<svg xmlns="http://www.w3.org/2000/svg" version="1.1" id="Logo_Artwork" x="0" y="0" viewBox="0 0 160.8 36.3" xml:space="preserve" width="160.8" height="36.3">
    <style type="text/css" id="style2">
        .st0{fill:none}.st1,.st2{fill:#fff}.st2{fill-rule:evenodd;clip-rule:evenodd}
    </style>
    <g id="g334">
        <g id="g306">
            <g id="g280">
                <path id="path12" d="M27.7 40.5s-.8-.6-.6-.9" class="st1" fill="#fff" transform="translate(-10.4 -10.4)"/>
                <path id="path14" d="M24.9 42.2c-.8-.3-1.8-.4-2.3-.2l.1.3.4.5h.4s.3 0 .6.1c0 .1.7-.7.8-.7z" class="st1" fill="#fff" transform="translate(-10.4 -10.4)"/>
                <g id="g18">
                    <path id="path16" d="M27.3 10.5s-.2.1-.2.2-.1.2-.1.3c0 .1 0 .2-.1.3l-.2.2c.5 0 1 .1 1.5.1l.2-.2c.1-.1.1-.2.1-.3 0-.1.1-.2.2-.3l.2-.2c-.5 0-1-.1-1.6-.1z" class="st1" fill="#fff" transform="translate(-10.4 -10.4)"/>
                </g>
                <g id="g22">
                    <path id="path20" d="M29.3 10.8l-.2.1c-.1.1-.1.2-.2.3 0 .1-.1.2-.1.3l-.2.2 1.5.3c.1 0 .3-.1.3-.1.1-.1.1-.2.2-.3 0-.1.1-.2.2-.3.1-.1.2-.1.2-.1-.6-.2-1.1-.3-1.7-.4z" class="st1" fill="#fff" transform="translate(-10.4 -10.4)"/>
                </g>
                <g id="g26">
                    <path id="path24" d="M31.3 11.4s-.2 0-.2.1c-.1.1-.1.2-.2.3 0 .1-.1.2-.2.3 0 0-.1.1-.3.1.5.2.9.3 1.4.5.1 0 .3-.1.3-.1.1-.1.1-.2.2-.2l.2-.2c.1-.1.3-.1.3-.1-.5-.4-1-.6-1.5-.7z" class="st1" fill="#fff" transform="translate(-10.4 -10.4)"/>
                </g>
                <g id="g30">
                    <path id="path28" d="M33.2 12.2s-.2 0-.3.1c-.1 0-.2.2-.2.2-.1.1-.1.2-.2.2 0 0-.1.1-.3.1.5.2.9.5 1.3.7.1 0 .3-.1.3-.1l.2-.2c.1-.1.2-.2.3-.2.1 0 .3-.1.3-.1-.5-.2-1-.5-1.4-.7z" class="st1" fill="#fff" transform="translate(-10.4 -10.4)"/>
                </g>
                <g id="g34">
                    <path id="path32" d="M34.9 13.2h-.3c-.1 0-.2.1-.3.2-.1.1-.1.2-.2.2 0 0-.1.1-.3.1l1.2.9h.3c.1 0 .2-.1.3-.2.1-.1.2-.1.3-.2h.3c-.4-.3-.9-.7-1.3-1z" class="st1" fill="#fff" transform="translate(-10.4 -10.4)"/>
                </g>
                <g id="g38">
                    <path id="path36" d="M36.5 14.5h-.3c-.1 0-.2.1-.3.2-.1.1-.1.1-.3.2h-.3c.4.3.8.7 1.1 1h.3c.1 0 .2-.1.3-.1.1 0 .2-.1.3-.1h.3c-.3-.5-.7-.8-1.1-1.2z" class="st1" fill="#fff" transform="translate(-10.4 -10.4)"/>
                </g>
                <g id="g42">
                    <path id="path40" d="M37.9 16h-.3c-.1 0-.2.1-.3.1-.1 0-.2.1-.3.1h-.3c.3.4.7.8 1 1.2h.3c.1 0 .2-.1.3-.1.1 0 .2-.1.3-.1h.3c-.3-.4-.7-.8-1-1.2z" class="st1" fill="#fff" transform="translate(-10.4 -10.4)"/>
                </g>
                <g id="g46">
                    <path id="path44" d="M39.1 17.6s-.2-.1-.3-.1c-.1 0-.2 0-.3.1-.1 0-.2.1-.3.1 0 0-.2 0-.3-.1.3.4.6.8.8 1.3.1.1.3.1.3.1.1 0 .2 0 .3-.1.1 0 .2-.1.3-.1.1 0 .3.1.3.1-.3-.4-.5-.8-.8-1.3z" class="st1" fill="#fff" transform="translate(-10.4 -10.4)"/>
                </g>
                <g id="g50">
                    <path id="path48" d="M40.1 19.4l-.2-.1h-.3c-.1 0-.2.1-.3.1 0 0-.2 0-.3-.1.2.4.4.9.6 1.4.1.1.3.1.3.1h.6c.1 0 .2.1.2.1l-.6-1.5z" class="st1" fill="#fff" transform="translate(-10.4 -10.4)"/>
                </g>
                <g id="g54">
                    <path id="path52" d="M40.8 21.3s-.1-.1-.2-.1H40s-.1 0-.3-.1c.2.5.3 1 .4 1.4.1.1.3.2.3.2h.6c.1 0 .2.1.2.1-.1-.5-.2-1-.4-1.5z" class="st1" fill="#fff" transform="translate(-10.4 -10.4)"/>
                </g>
                <g id="g58">
                    <path id="path56" d="M41.3 23.3l-.2-.2h-.6l-.2-.2c.1.5.2 1 .2 1.5l.2.2c.1.1.2 0 .3.1.1 0 .3 0 .3.1.1 0 .2.2.2.2 0-.7-.1-1.2-.2-1.7z" class="st1" fill="#fff" transform="translate(-10.4 -10.4)"/>
                </g>
                <g id="g62">
                    <path id="path60" d="M41.5 25.3l-.2-.2c-.1 0-.2-.1-.3-.1-.1 0-.2 0-.3-.1l-.2-.2c0 .5.1 1 0 1.5l.2.2c.1.1.2.1.3.1.1 0 .2.1.3.1l.2.2v-1.5z" class="st1" fill="#fff" transform="translate(-10.4 -10.4)"/>
                </g>
                <g id="g66">
                    <path id="path64" d="M41.5 27.3s-.1-.2-.2-.2-.2-.1-.3-.1c-.1 0-.2 0-.3-.1l-.2-.2c0 .5-.1 1-.2 1.5l.2.2c.1.1.2.1.3.1.1 0 .2.1.3.2l.2.2c.1-.5.1-1 .2-1.6z" class="st1" fill="#fff" transform="translate(-10.4 -10.4)"/>
                </g>
                <g id="g70">
                    <path id="path68" d="M41.2 29.3l-.1-.2c-.1-.1-.2-.1-.3-.2-.1 0-.2-.1-.3-.1l-.2-.2-.3 1.5c0 .1.1.3.1.3.1.1.2.1.3.2.1.1.2.1.3.2.1.1.1.2.1.2.1-.6.2-1.1.4-1.7z" class="st1" fill="#fff" transform="translate(-10.4 -10.4)"/>
                </g>
                <g id="g74">
                    <path id="path72" d="M40.6 31.3s0-.2-.1-.2c0-.1-.2-.2-.2-.2-.1-.1-.2-.1-.2-.2 0 0-.1-.1-.1-.3-.2.5-.4.9-.6 1.4 0 .1.1.3.1.3l.2.2.2.2c0 .1.1.3.1.3l.6-1.5z" class="st1" fill="#fff" transform="translate(-10.4 -10.4)"/>
                </g>
                <g id="g78">
                    <path id="path76" d="M39.8 33.2s0-.2-.1-.3c0-.1-.2-.2-.2-.2-.1-.1-.2-.1-.2-.2 0 0-.1-.1-.1-.3-.2.5-.5.9-.7 1.3 0 .1.1.3.1.3l.2.2c.1.1.2.2.2.3 0 .1.1.3.1.3.2-.5.4-1 .7-1.4z" class="st1" fill="#fff" transform="translate(-10.4 -10.4)"/>
                </g>
                <g id="g82">
                    <path id="path80" d="M38.7 34.9v-.3c0-.1-.1-.2-.2-.3-.1-.1-.2-.1-.2-.2 0 0-.1-.1-.1-.3l-.9 1.2v.3c0 .1.1.2.2.3.1.1.1.2.2.3v.3c.4-.4.7-.9 1-1.3z" class="st1" fill="#fff" transform="translate(-10.4 -10.4)"/>
                </g>
                <g id="g86">
                    <path id="path84" d="M37.4 36.5v-.3c0-.1-.1-.2-.2-.3-.1-.1-.1-.1-.2-.3v-.3c-.3.4-.7.8-1 1.1v.3c0 .1.1.2.1.3 0 .1.1.2.1.3v.3c.5-.4.9-.7 1.2-1.1z" class="st1" fill="#fff" transform="translate(-10.4 -10.4)"/>
                </g>
                <g id="g90">
                    <path id="path88" d="M36 37.9v-.3c0-.1-.1-.2-.1-.3 0-.1-.1-.2-.1-.3v-.3c-.4.3-.8.7-1.2.9v.3c0 .1.1.2.1.3 0 .1.1.2.1.3 0 .1-.1.3-.1.3.4-.2.9-.6 1.3-.9z" class="st1" fill="#fff" transform="translate(-10.4 -10.4)"/>
                </g>
                <g id="g94">
                    <path id="path92" d="M34.3 39.1s.1-.2.1-.3c0-.1 0-.2-.1-.3 0-.1-.1-.2-.1-.3 0 0 0-.2.1-.3-.4.3-.8.6-1.3.8-.1.1-.1.3-.1.3 0 .1 0 .2.1.3 0 .1.1.2.1.3 0 .1-.1.3-.1.3.4-.3.9-.5 1.3-.8z" class="st1" fill="#fff" transform="translate(-10.4 -10.4)"/>
                </g>
                <g id="g98">
                    <path id="path96" d="M32.5 40.1l.1-.2v-.3c0-.1-.1-.2-.1-.3 0 0 0-.2.1-.3-.5.2-.9.4-1.4.6-.1.1-.1.3-.1.3v.6c0 .1-.1.3-.1.3.5-.3 1-.5 1.5-.7z" class="st1" fill="#fff" transform="translate(-10.4 -10.4)"/>
                </g>
                <g id="g102">
                    <path id="path100" d="M30.5 40.8s0-.1.1-.2v-.3c0-.1-.1-.2 0-.3 0 0 .1-.3.2-.4-.5.2-1.2.4-1.6.7-.1 0-.2.1-.2.1 0 .1-.1.2-.1.3v.3c0 .2-.2.5-.2.5.5-.1 1.2-.4 1.6-.6z" class="st1" fill="#fff" transform="translate(-10.4 -10.4)"/>
                </g>
                <g id="g106">
                    <path id="path104" d="M20.6 40.6s.2 0 .2-.1c.1-.1.2-.2.2-.3 0-.1.1-.2.2-.3 0 0 .1-.1.3-.1-.5-.2-.9-.3-1.4-.5-.1 0-.3.1-.3.1-.1.1-.1.2-.2.2l-.2.2c-.1.1-.3.1-.3.1.5.3 1 .5 1.5.7z" class="st1" fill="#fff" transform="translate(-10.4 -10.4)"/>
                </g>
                <g id="g110">
                    <path id="path108" d="M18.8 39.8s.2 0 .3-.1c.1 0 .2-.2.2-.2.1-.1.1-.2.2-.2 0 0 .1-.1.3-.1-.5-.2-.9-.4-1.3-.7-.1 0-.3.1-.3.1l-.2.2c-.1.1-.2.2-.3.2-.1 0-.3.1-.3.1.4.2.9.4 1.4.7z" class="st1" fill="#fff" transform="translate(-10.4 -10.4)"/>
                </g>
                <g id="g114">
                    <path id="path112" d="M17 38.7h.3c.1 0 .2-.1.3-.2.1-.1.1-.2.2-.2 0 0 .1-.1.3-.1l-1.2-.9h-.3c-.1 0-.2.1-.3.2-.1.1-.2.1-.3.2h-.3c.5.4.9.7 1.3 1z" class="st1" fill="#fff" transform="translate(-10.4 -10.4)"/>
                </g>
                <g id="g118">
                    <path id="path116" d="M15.4 37.4h.3c.1 0 .2-.1.3-.2.1-.1.1-.1.3-.2h.3c-.4-.3-.7-.7-1.1-1h-.3c-.1 0-.2.1-.3.1-.1 0-.2.1-.3.1h-.3c.4.5.7.9 1.1 1.2z" class="st1" fill="#fff" transform="translate(-10.4 -10.4)"/>
                </g>
                <g id="g122">
                    <path id="path120" d="M14 36h.3c.1 0 .2-.1.3-.1.1 0 .2-.1.3-.1h.3c-.3-.4-.7-.8-1-1.2h-.3c-.1 0-.2.1-.3.1-.1 0-.2.1-.3.1-.1 0-.3-.1-.3-.1.4.4.7.8 1 1.3z" class="st1" fill="#fff" transform="translate(-10.4 -10.4)"/>
                </g>
                <g id="g126">
                    <path id="path124" d="M12.8 34.3s.2.1.3.1c.1 0 .2-.1.3-.1.1 0 .2-.1.3-.1 0 0 .2 0 .3.1-.3-.4-.6-.8-.8-1.3-.1-.1-.3-.1-.3-.1-.1 0-.2 0-.3.1-.1 0-.2.1-.3.1-.1 0-.3-.1-.3-.1.3.4.5.9.8 1.3z" class="st1" fill="#fff" transform="translate(-10.4 -10.4)"/>
                </g>
                <g id="g130">
                    <path id="path128" d="M11.8 32.5s.2.1.3.1h.3c.1 0 .2-.1.3-.1 0 0 .2 0 .3.1-.2-.4-.4-.9-.6-1.4-.1-.1-.3-.1-.3-.1h-.6c-.1 0-.2-.1-.2-.1.1.6.3 1 .5 1.5z" class="st1" fill="#fff" transform="translate(-10.4 -10.4)"/>
                </g>
                <g id="g134">
                    <path id="path132" d="M11.1 30.6s.1.1.2.1h.6s.1 0 .3.1c-.2-.5-.3-1-.4-1.4l-.2-.2H11c-.1 0-.2-.1-.2-.1 0 .5.1 1 .3 1.5z" class="st1" fill="#fff" transform="translate(-10.4 -10.4)"/>
                </g>
                <g id="g138">
                    <path id="path136" d="M10.6 28.7l.2.2h.6l.2.2c-.1-.5-.2-1-.2-1.5l-.2-.2c-.1-.1-.2 0-.3-.1-.1 0-.3 0-.3-.1-.1 0-.2-.2-.2-.2.1.6.1 1.1.2 1.7z" class="st1" fill="#fff" transform="translate(-10.4 -10.4)"/>
                </g>
                <g id="g142">
                    <path id="path140" d="M10.4 26.6l.2.2c.1 0 .2.1.3.1.1 0 .2 0 .3.1l.2.2c0-.5-.1-1 0-1.5l-.2-.2c-.1-.1-.2-.1-.3-.1-.1 0-.2-.1-.3-.1l-.2-.2v1.5z" class="st1" fill="#fff" transform="translate(-10.4 -10.4)"/>
                </g>
                <g id="g146">
                    <path id="path144" d="M10.5 24.6s.1.2.2.2.2.1.3.1c.1 0 .2 0 .3.1l.2.2c0-.5.1-1 .1-1.5l-.2-.2c-.1-.1-.2-.1-.3-.1-.1 0-.2-.1-.3-.2-.1-.1-.1-.2-.1-.2-.1.5-.2 1.1-.2 1.6z" class="st1" fill="#fff" transform="translate(-10.4 -10.4)"/>
                </g>
                <g id="g150">
                    <path id="path148" d="M10.8 22.6l.1.2c.1.1.2.1.3.2.1 0 .2.1.3.1l.2.2.3-1.5c0-.1-.1-.3-.1-.3-.1-.1-.2-.1-.3-.2-.1-.1-.2-.1-.3-.2-.1-.1-.1-.2-.1-.2-.2.7-.3 1.2-.4 1.7z" class="st1" fill="#fff" transform="translate(-10.4 -10.4)"/>
                </g>
                <g id="g154">
                    <path id="path152" d="M11.3 20.6s0 .2.1.2c.1.1.2.1.3.2.1 0 .2.1.3.2 0 0 .1.1.1.3.2-.5.3-.9.5-1.4 0-.1-.1-.3-.1-.3l-.2-.2-.2-.2c-.1-.1-.1-.3-.1-.3-.3.5-.5 1-.7 1.5z" class="st1" fill="#fff" transform="translate(-10.4 -10.4)"/>
                </g>
                <g id="g158">
                    <path id="path156" d="M12.2 18.8s0 .2.1.3c0 .1.2.2.2.2.1.1.2.1.2.2 0 0 .1.1.1.3.2-.5.5-.9.7-1.3 0-.1-.1-.3-.1-.3l-.2-.2c-.1-.1-.2-.2-.2-.3 0-.1-.1-.3-.1-.3-.2.4-.5.9-.7 1.4z" class="st1" fill="#fff" transform="translate(-10.4 -10.4)"/>
                </g>
                <g id="g162">
                    <path id="path160" d="M13.2 17v.3c0 .1.1.2.2.3.1.1.2.1.2.2 0 0 .1.1.1.3l.9-1.2v-.3c0-.1-.1-.2-.2-.3-.1-.1-.1-.2-.2-.3v-.3c-.4.5-.7.9-1 1.3z" class="st1" fill="#fff" transform="translate(-10.4 -10.4)"/>
                </g>
                <g id="g166">
                    <path id="path164" d="M14.5 15.5v.3c0 .1.1.2.2.3.1.1.1.1.2.3v.3c.3-.4.7-.8 1-1.1v-.3c0-.1-.1-.2-.1-.3 0-.1-.1-.2-.1-.3v-.3c-.5.3-.9.6-1.2 1.1z" class="st1" fill="#fff" transform="translate(-10.4 -10.4)"/>
                </g>
                <g id="g170">
                    <path id="path168" d="M16 14v.3c0 .1.1.2.1.3 0 .1.1.2.1.3v.3c.4-.3.8-.7 1.2-.9V14c0-.1-.1-.2-.1-.3 0-.1-.1-.2-.1-.3 0-.1.1-.3.1-.3-.5.3-.9.6-1.3.9z" class="st1" fill="#fff" transform="translate(-10.4 -10.4)"/>
                </g>
                <g id="g174">
                    <path id="path172" d="M17.6 12.8s-.1.2-.1.3c0 .1 0 .2.1.3 0 .1.1.2.1.3 0 0 0 .2-.1.3.4-.3.8-.5 1.3-.8.1-.1.1-.3.1-.3 0-.1 0-.2-.1-.3 0-.1-.1-.2-.1-.3 0-.1.1-.3.1-.3-.4.3-.9.5-1.3.8z" class="st1" fill="#fff" transform="translate(-10.4 -10.4)"/>
                </g>
                <g id="g178">
                    <path id="path176" d="M19.4 11.9s-.1.2-.1.3v.3c0 .1.1.2.1.3 0 0 0 .2-.1.3.4-.2.9-.4 1.4-.6.1-.1.1-.3.1-.3v-.6c0-.1.1-.2.1-.2-.5 0-1 .2-1.5.5z" class="st1" fill="#fff" transform="translate(-10.4 -10.4)"/>
                </g>
                <g id="g182">
                    <path id="path180" d="M21.3 11.1s-.1.1-.1.2v.6s0 .1-.1.3c.5-.2 1-.3 1.4-.4l.2-.2V11c0-.1.1-.2.1-.2-.5 0-1 .2-1.5.3z" class="st1" fill="#fff" transform="translate(-10.4 -10.4)"/>
                </g>
                <g id="g186">
                    <path id="path184" d="M23.3 10.6l-.2.2v.6l-.2.2c.5-.1 1-.2 1.5-.2l.2-.2c.1-.1 0-.2.1-.3 0-.1 0-.2.1-.3 0-.1.2-.2.2-.2-.7.1-1.2.1-1.7.2z" class="st1" fill="#fff" transform="translate(-10.4 -10.4)"/>
                </g>
                <g id="g190">
                    <path id="path188" d="M25.3 10.4l-.2.2c0 .1-.1.2-.1.3 0 .1 0 .2-.1.3l-.2.2c.5 0 1-.1 1.5 0l.2-.2c.1-.1.1-.2.1-.3 0-.1.1-.2.1-.3l.2-.2h-1.5z" class="st1" fill="#fff" transform="translate(-10.4 -10.4)"/>
                </g>
                <g id="g194">
                    <path id="path192" d="M21.5 40.5s.2.8.7.9c.1-.3.6-.8.9-1l.1-.1c-.1-.7.2-1.1.2-1.1l-.3.1c-.7.2-1.3.6-1.6 1.2z" class="st1" fill="#fff" transform="translate(-10.4 -10.4)"/>
                </g>
                <g id="g198">
                    <path id="path196" d="M22.5 43.3c.1 0 .2-.1.3-.2-.4-.3-.6-.8-.6-1.3-.7-.1-.9-.9-.9-.9-.1.3-.2.6-.2.9 0 .5.1 1.1.4 1.5.1 0 .6.1 1 0z" class="st1" fill="#fff" transform="translate(-10.4 -10.4)"/>
                </g>
                <g id="g202">
                    <path id="path200" d="M24 43.4h-.3c-.2 0-.4 0-.6-.1-.2.5-1.2.4-1.2.4.4.4.9.6 1.5.7 0 0 .6-.1.6-1z" class="st1" fill="#fff" transform="translate(-10.4 -10.4)"/>
                </g>
                <g id="g206">
                    <path id="path204" d="M24.4 43.4l.5.1c.9.2 1 .4 1 .4s-1 .9-1.9.7c0-.1.7-.5.4-1.2" class="st1" fill="#fff" transform="translate(-10.4 -10.4)"/>
                </g>
                <g id="g210">
                    <path id="path208" d="M27.3 43.2c-.7-.5-1.3-.6-1.8-.8l-1 .7 1.1.4c.3.1.4.3.9.5 0 0 1.1-.6.8-.8z" class="st1" fill="#fff" transform="translate(-10.4 -10.4)"/>
                </g>
                <g id="g214">
                    <path id="path212" d="M29.2 44.1c-.4.4-1 .4-1 .4-.4 0-.8 0-1.3-.3 0 0 .8-.6.8-.9.2.1.8.1.9 0 .1.1.3.6.6.8z" class="st1" fill="#fff" transform="translate(-10.4 -10.4)"/>
                </g>
                <g id="g218">
                    <path id="path216" d="M27.7 40.5c.4-.4.8-.5 1.1-.4 1-.4 1.2-.5 1.2-.5-.4-.4-.8-.5-1.5-.5-.3 0-1.3.4-1.4.6" class="st1" fill="#fff" transform="translate(-10.4 -10.4)"/>
                </g>
                <g id="g222">
                    <path id="path220" d="M27.4 40.7s-.7-.6-.5-1c-.7.7-1 1-1.7 1-.2 0 0 0 0 0-.1.1-.1.2-.2.3 0 .1-.1.2-.1.3v.3c.7 0 .6.1 1.2-.1 0 0 .4-.2.8-.6.2 0 .4-.2.5-.2z" class="st1" fill="#fff" transform="translate(-10.4 -10.4)"/>
                </g>
                <g id="g226">
                    <path id="path224" d="M24.7 41.7s-.1 0 0-.4c0-.1.1-.2.1-.3 0-.1.1-.2.2-.3 0 0-.1.1 0 0h-.2c-.5 0-.8-.1-1.2-.2-.1 0 0 0 0 0-.2 0-.4.2-.4.3 0 .1-.1.1-.2.2l-.2.2c.4.2 1.4.5 1.9.5z" class="st1" fill="#fff" transform="translate(-10.4 -10.4)"/>
                </g>
                <g id="g232">
                    <g id="g230">
                        <path id="path228" d="M24.1 39.3c.1-.1.2-.1.4-.1.6-.1 1.5.3 1.6.7l-.3.2c-.2.2-.6.2-.6.2l-.2-.1c-.2-.1-.5-.1-.7-.1-.2 0-.5-.1-.6 0-.2-.1.4-.8.4-.8z" class="st1" fill="#fff" transform="translate(-10.4 -10.4)"/>
                    </g>
                </g>
                <g id="g236">
                    <path id="path234" d="M21.6 43.8c-.2.2-.4.3-.4.3l-.2.2s-.7-.8-1.3-.3c.2-.3.4-.6.6-.7.1-.1.3-.2.5-.4h-.1c.1 0 .2-.1.2-.1.1 0 .2.7.7 1z" class="st1" fill="#fff" transform="translate(-10.4 -10.4)"/>
                </g>
                <g id="g240">
                    <path id="path238" d="M19.4 44.4c.7-.6 1.3.2 1.3.2l-.5.5z" class="st1" fill="#fff" transform="translate(-10.4 -10.4)"/>
                </g>
                <g id="g244">
                    <path id="polygon242" class="st1" fill="#fff" d="M19.2 44.6l-.1.1.7.7.1-.1z" transform="translate(-10.4 -10.4)"/>
                </g>
                <g id="g248">
                    <path id="path246" d="M18.9 44.9c-.2.2-.4.3-.4.3l.8.9.3-.5z" class="st1" fill="#fff" transform="translate(-10.4 -10.4)"/>
                </g>
                <g id="g252">
                    <path id="path250" d="M32 45.1c.2.2.4.3.4.3l-.8.9-.3-.5z" class="st1" fill="#fff" transform="translate(-10.4 -10.4)"/>
                </g>
                <g id="g256">
                    <path id="polygon254" class="st1" fill="#fff" d="M31 45.5l.1.1.7-.6-.1-.1z" transform="translate(-10.4 -10.4)"/>
                </g>
                <g id="g260">
                    <path id="path258" d="M31.6 44.6c-.7-.6-1.3.1-1.3.1l.5.5z" class="st1" fill="#fff" transform="translate(-10.4 -10.4)"/>
                </g>
                <g id="g264">
                    <path id="path262" d="M30.3 43.1c-.9-.5-1.4.2-1.4.2.6.3 1 .9 1 .9l.1.2s.7-.8 1.3-.3c-.2-.3-.4-.6-.5-.7-.2 0-.3-.2-.5-.3z" class="st1" fill="#fff" transform="translate(-10.4 -10.4)"/>
                </g>
                <g id="g268">
                    <path id="path266" d="M26.8 41.6c-.1 0 .5.2 1.4.1l.2-.2c0-.1.1-.3.1-.4v-.5c-.1.1-.7.2-.7.2-.2 0-.3.1-.3.1-.1.1-.2.1-.2.2 0 0-.2.1-.3.2.1.1-.2.2-.2.3z" class="st1" fill="#fff" transform="translate(-10.4 -10.4)"/>
                </g>
                <g id="g272">
                    <path id="path270" d="M30.6 42.9c.6-.7.3-1.4.2-1.8l-1.1.5c0 .1.2.4-.1.7 0 0 1.1.5 1 .6z" class="st1" fill="#fff" transform="translate(-10.4 -10.4)"/>
                </g>
                <g id="g278">
                    <g id="g276">
                        <path id="path274" d="M28.4 43.1s.8-.7 1.2-.5l-.1-.1c-.4-.3-1-.5-1.5-.5s-1.3.1-1.5.4c0 0 .7.1 1.1.6.2.1.4 0 .8.1z" class="st1" fill="#fff" transform="translate(-10.4 -10.4)"/>
                    </g>
                </g>
            </g>
            <g id="g304">
                <path id="path282" d="M16.9 25.7l.5-.9 1 .2-.7-.7.5-.9-.9.5-.7-.7.2 1-.9.5 1 .2zm6.8 2.6c-.5.1-1.2.1-1.8.2-.3-1.1-1.1-2.6-2.5-2.4-1.2.2-1.7 1.4-1.4 2.5-1.7.2-3.2-1.2-3.6-2.8-.5-2.4 1.2-4.8 3.8-4.8 3.5.1 5.4 4.8 5.5 7.3z" class="st1" fill="#fff" transform="translate(-10.4 -10.4)"/>
                <path id="path284" d="M35 25.7l.2-1 1-.1-.9-.5.2-1-.7.7-.9-.5.5.9-.7.7 1-.2zm-6.8 2.7c.1-2.5 2-7.2 5.6-7.2 2.5 0 4.3 2.4 3.8 4.8-.4 1.6-1.8 3-3.6 2.8.3-1.1-.2-2.4-1.4-2.5-1.4-.2-2.3 1.3-2.5 2.4-.7-.2-1.3-.3-1.9-.3z" class="st1" fill="#fff" transform="translate(-10.4 -10.4)"/>
                <path id="path286" d="M26 30c2.3 0 4.2-.2 4.2-.4 0-.1-1.9-.4-4.2-.4-2.3 0-4.2.2-4.2.4 0 .1 1.9.4 4.2.4zm0 .5c-2.7 0-4.8-.4-4.8-.9s2.2-.9 4.8-.9c2.7 0 4.8.4 4.8.9s-2.2.9-4.8.9z" class="st1" fill="#fff" transform="translate(-10.4 -10.4)"/>
                <g id="g290">
                    <path id="path288" d="M29.9 30.6c-.5.1-1.1.2-1.7.2.1 1.1 1 3.3 2.5 3.3 1.1 0 2-1 2-2-1.3.7-2.6.1-2.8-1.5z" class="st1" fill="#fff" transform="translate(-10.4 -10.4)"/>
                </g>
                <g id="g294">
                    <path id="path292" d="M23.7 30.9c-.6-.1-1.2-.1-1.7-.2-.3 1.6-1.6 2.2-2.9 1.6.1 1.1.9 2 2 2 1.6-.1 2.5-2.4 2.6-3.4z" class="st1" fill="#fff" transform="translate(-10.4 -10.4)"/>
                </g>
                <g id="g298">
                    <path id="path296" d="M26 13.8c.6.7 1.7 1.5 1.9 1.7 1.6 1.2 2.4 2.9 2.4 4.4 0 2.7-2.3 5.1-2.6 8.4-.5-.1-1-.1-1.5-.1.1-3.3-.1-7.9-.3-11.2-.2 3.3-.4 7.8-.3 11.2-.5 0-1 0-1.5.1-.3-3.3-2.6-5.7-2.6-8.4 0-1.5.8-3.2 2.4-4.4.3-.2 1.4-1 2.1-1.7z" class="st2" clip-rule="evenodd" fill="#fff" fill-rule="evenodd" transform="translate(-10.4 -10.4)"/>
                </g>
                <g id="g302">
                    <path id="path300" d="M26 37.3c1.3-.6 2.6-1.8 3.2-3-.8-1.1-1.2-2.4-1.4-3.3-.5 0-1 .1-1.5.1-.1.9-.1 2.8-.3 3.8-.3-1-.3-2.9-.3-3.8-.5 0-1 0-1.5-.1-.1 1-.5 2.2-1.4 3.3.5 1.2 1.9 2.4 3.2 3z" class="st2" clip-rule="evenodd" fill="#fff" fill-rule="evenodd" transform="translate(-10.4 -10.4)"/>
                </g>
            </g>
        </g>
        <g id="g332">
            <g id="g310">
                <path id="path308" d="M169.5 15.6c.9 0 1.7.7 1.7 1.7s-.8 1.7-1.7 1.7c-.9 0-1.7-.7-1.7-1.7.1-1 .8-1.7 1.7-1.7zm0 3.1c.8 0 1.4-.6 1.4-1.4 0-.8-.6-1.4-1.4-1.4-.8 0-1.4.6-1.4 1.4 0 .8.6 1.4 1.4 1.4zm-.6-2.4h.7c.5 0 .7.2.7.6 0 .3-.2.5-.5.5l.6.9h-.3l-.5-.8h-.3v.8h-.3v-2zm.3.9h.3c.3 0 .5 0 .5-.3s-.2-.3-.4-.3h-.4z" class="st1" fill="#fff" transform="translate(-10.4 -10.4)"/>
            </g>
            <g id="g330">
                <path id="path312" d="M97.7 33.2c-3.8 0-6.4-2.9-6.4-7.4 0-4.4 2.5-7.3 6.4-7.3 3.8 0 6.3 2.9 6.3 7.3.1 4.5-2.5 7.4-6.3 7.4zm0-17.5c-2.8 0-5.3.9-7.1 2.5-2.1 1.8-3.2 4.6-3.2 7.9 0 3.3 1.2 6.1 3.5 8 1.8 1.5 4.2 2.3 6.9 2.3 2.8 0 5.3-.9 7.1-2.5 2.1-1.9 3.3-4.6 3.3-7.9 0-3.1-1.1-5.8-3-7.6-1.9-1.8-4.5-2.8-7.5-2.7z" class="st1" fill="#fff" transform="translate(-10.4 -10.4)"/>
                <path id="path314" d="M112.3 16.1h3.8V29c.1 1.3.5 2.4 1.3 3.1.8.7 1.9 1.1 3.4 1.1 1.6 0 2.8-.4 3.6-1.2.7-.7 1.1-1.7 1.1-2.9v-13h3.8v12.5c0 2.3-.7 4.1-2 5.5-1.5 1.5-3.7 2.4-6.6 2.4-2.8 0-5-.8-6.3-2.1-1.3-1.3-2.1-3.2-2.1-5.4z" class="st1" fill="#fff" transform="translate(-10.4 -10.4)"/>
                <path id="path316" d="M149 19.1h-5.8v16.8h-3.8V19.1h-6.2v-3h17.4z" class="st1" fill="#fff" transform="translate(-10.4 -10.4)"/>
                <g id="g320">
                    <path id="path318" d="M71.4 18.5c1.8-1.7 4.3-2.8 7.3-2.9h1c1.5.1 3.3.6 4.6 1.4.2.1.4.3.4.3-.2.3-1.4 2.5-1.4 2.5l-.4-.2c-.9-.5-2-.8-3.2-.8h-.6c-2 .1-3.6.8-4.8 2.1-1.1 1.2-1.7 2.8-1.8 4.6v.9c.2 4 2.7 6.7 6.4 6.9h.8c1.4-.1 2.6-.5 3.8-1.3.1.2 1.4 2.7 1.5 2.8-1.5.9-3.9 1.6-6.3 1.6-3.1 0-5.7-1-7.5-2.8-1.8-1.8-2.8-4.3-2.8-7.4 0-3.2 1.1-5.9 3-7.7z" class="st1" fill="#fff" transform="translate(-10.4 -10.4)"/>
                </g>
                <g id="g324">
                    <path id="path322" d="M60.9 30.5c0-1.9-1.9-2.8-3.8-3.6-1.3-.6-2.4-1-3.5-2s-1.7-2.3-1.7-4c0-3.3 2.6-5.4 6.7-5.4 2.9 0 4.9 1 5.9 1.7 0 .1-1.4 2.4-1.4 2.5-1.2-.8-2.7-1.4-3.9-1.4-2.1.1-3.3 1.1-3.3 2.4 0 1.7 1.8 2.4 3.6 3.2 2.6 1 5.5 2.3 5.5 6.3 0 3.5-3.1 6-7.4 6-2.5 0-4.6-.6-6.7-1.7 0-.1 1.5-2.8 1.5-2.8 1.7.9 3.3 1.5 4.7 1.5 2.3.1 3.8-1.1 3.8-2.7z" class="st1" fill="#fff" transform="translate(-10.4 -10.4)"/>
                </g>
                <g id="g328">
                    <path id="path326" d="M162 30.5c0-1.9-1.9-2.8-3.8-3.6-1.3-.6-2.4-1-3.5-2s-1.7-2.3-1.7-4c0-3.3 2.6-5.4 6.7-5.4 2.9 0 4.9 1 5.9 1.7 0 .1-1.4 2.4-1.4 2.5-1.2-.8-2.7-1.4-3.9-1.4-2.1.1-3.3 1.1-3.3 2.4 0 1.7 1.8 2.4 3.6 3.2 2.6 1 5.5 2.3 5.5 6.3 0 3.5-3.1 6-7.4 6-2.5 0-4.6-.6-6.7-1.7 0-.1 1.5-2.8 1.5-2.8 1.7.9 3.3 1.5 4.7 1.5 2.3.1 3.8-1.1 3.8-2.7z" class="st1" fill="#fff" transform="translate(-10.4 -10.4)"/>
                </g>
            </g>
        </g>
    </g>
    <g id="g352">
        <path id="path336" d="M131.1 44.7l-.8 1.9h-.8l3.1-7.1 3.1 7.1h-.8l-.8-1.9zm1.5-3.4l-1.2 2.7h2.3z" class="st1" fill="#fff" transform="translate(-10.4 -10.4)"/>
        <path id="path338" d="M136.1 44.5c0-1.2 1-2.2 2.2-2.2 1.2 0 2.2 1 2.2 2.2 0 1.2-1 2.2-2.2 2.2-1.2 0-2.2-1-2.2-2.2zm.7 0c0 .9.6 1.6 1.5 1.6s1.5-.7 1.5-1.6c0-.9-.6-1.6-1.5-1.6s-1.5.7-1.5 1.6z" class="st1" fill="#fff" transform="translate(-10.4 -10.4)"/>
        <path id="path340" d="M142.4 46.6h-.7V43h-.4v-.7h.4v-1.5h.7v1.5h.8v.7h-.8z" class="st1" fill="#fff" transform="translate(-10.4 -10.4)"/>
        <path id="path342" d="M144.2 44.6c0 .8.6 1.4 1.4 1.4.6 0 1-.4 1.3-.9l.6.4c-.4.8-1.1 1.2-2 1.2-1.3 0-2.1-1-2.1-2.2 0-1.3.7-2.3 2.1-2.3 1.4 0 2.1 1.1 2 2.4zm2.6-.6c-.1-.6-.6-1.1-1.2-1.1s-1.2.5-1.3 1.1z" class="st1" fill="#fff" transform="translate(-10.4 -10.4)"/>
        <path id="path344" d="M152.5 46.6h-.7V46c-.4.5-.9.7-1.5.7-1.2 0-2-1.1-2-2.2 0-1.2.8-2.2 2-2.2.6 0 1.1.3 1.4.7v-.6h.7v4.2zm-3.5-2.2c0 .8.5 1.6 1.4 1.6.9 0 1.4-.7 1.4-1.6 0-.8-.5-1.5-1.4-1.5-.9 0-1.4.7-1.4 1.5z" class="st1" fill="#fff" transform="translate(-10.4 -10.4)"/>
        <path id="path346" d="M154.6 42.8c.3-.3.5-.6 1-.6.2 0 .4.1.6.2l-.3.7c-.1-.1-.2-.2-.4-.2-.8 0-.8 1-.8 1.6v2.1h-.7v-4.2h.7v.4z" class="st1" fill="#fff" transform="translate(-10.4 -10.4)"/>
        <path id="path348" d="M156.6 44.5c0-1.2 1-2.2 2.2-2.2 1.2 0 2.2 1 2.2 2.2 0 1.2-1 2.2-2.2 2.2-1.2 0-2.2-1-2.2-2.2zm.8 0c0 .9.6 1.6 1.5 1.6s1.5-.7 1.5-1.6c0-.9-.6-1.6-1.5-1.6s-1.5.7-1.5 1.6z" class="st1" fill="#fff" transform="translate(-10.4 -10.4)"/>
        <path id="path350" d="M166 46.6h-.7V46c-.4.5-.9.7-1.5.7-1.2 0-2-1.1-2-2.2 0-1.2.8-2.2 2-2.2.6 0 1.1.3 1.5.7v-.6h.7zm-3.5-2.2c0 .8.5 1.6 1.4 1.6.9 0 1.4-.7 1.4-1.6 0-.8-.5-1.5-1.4-1.5-.8 0-1.4.7-1.4 1.5z" class="st1" fill="#fff" transform="translate(-10.4 -10.4)"/>
    </g>
</svg>
