<svg xmlns="http://www.w3.org/2000/svg" version="1.1" id="Logo_Artwork" x="0" y="0" viewBox="0 0 160.8 36.3" xml:space="preserve" width="160.8" height="36.3"><style type="text/css" id="style2">.st0{fill:none}.st1,.st2{fill:#6a2c91}.st2{fill-rule:evenodd;clip-rule:evenodd}</style><path class="st1" d="M17.3 30.1s-.8-.6-.6-.9m-2.2 2.6c-.8-.3-1.8-.4-2.3-.2l.1.3.4.5h.4s.3 0 .6.1c0 .1.7-.7.8-.7zM16.9.1s-.2.1-.2.2-.1.2-.1.3c0 .1 0 .2-.1.3l-.2.2c.5 0 1 .1 1.5.1L18 1c.1-.1.1-.2.1-.3 0-.1.1-.2.2-.3l.2-.2c-.5 0-1-.1-1.6-.1zm2 .3l-.2.1c-.1.1-.1.2-.2.3 0 .1-.1.2-.1.3l-.2.2 1.5.3c.1 0 .3-.1.3-.1.1-.1.1-.2.2-.3 0-.1.1-.2.2-.3.1-.1.2-.1.2-.1-.6-.2-1.1-.3-1.7-.4zm2 .6s-.2 0-.2.1c-.1.1-.1.2-.2.3 0 .1-.1.2-.2.3 0 0-.1.1-.3.1.5.2.9.3 1.4.5.1 0 .3-.1.3-.1.1-.1.1-.2.2-.2l.2-.2c.1-.1.3-.1.3-.1-.5-.4-1-.6-1.5-.7zm1.9.8s-.2 0-.3.1c-.1 0-.2.2-.2.2-.1.1-.1.2-.2.2 0 0-.1.1-.3.1.5.2.9.5 1.3.7.1 0 .3-.1.3-.1l.2-.2c.1-.1.2-.2.3-.2.1 0 .3-.1.3-.1-.5-.2-1-.5-1.4-.7zm1.7 1h-.3c-.1 0-.2.1-.3.2-.1.1-.1.2-.2.2 0 0-.1.1-.3.1l1.2.9h.3c.1 0 .2-.1.3-.2.1-.1.2-.1.3-.2h.3c-.4-.3-.9-.7-1.3-1zm1.6 1.3h-.3c-.1 0-.2.1-.3.2-.1.1-.1.1-.3.2h-.3c.4.3.8.7 1.1 1h.3c.1 0 .2-.1.3-.1.1 0 .2-.1.3-.1h.3c-.3-.5-.7-.8-1.1-1.2zm1.4 1.5h-.3c-.1 0-.2.1-.3.1-.1 0-.2.1-.3.1h-.3c.3.4.7.8 1 1.2h.3c.1 0 .2-.1.3-.1.1 0 .2-.1.3-.1h.3c-.3-.4-.7-.8-1-1.2zm1.2 1.6s-.2-.1-.3-.1c-.1 0-.2 0-.3.1-.1 0-.2.1-.3.1 0 0-.2 0-.3-.1.3.4.6.8.8 1.3.1.1.3.1.3.1.1 0 .2 0 .3-.1.1 0 .2-.1.3-.1.1 0 .3.1.3.1-.3-.4-.5-.8-.8-1.3zm1 1.8l-.2-.1h-.3c-.1 0-.2.1-.3.1 0 0-.2 0-.3-.1.2.4.4.9.6 1.4.1.1.3.1.3.1h.6c.1 0 .2.1.2.1zm.7 1.9s-.1-.1-.2-.1h-.6s-.1 0-.3-.1c.2.5.3 1 .4 1.4.1.1.3.2.3.2h.6c.1 0 .2.1.2.1-.1-.5-.2-1-.4-1.5zm.5 2l-.2-.2h-.6l-.2-.2c.1.5.2 1 .2 1.5l.2.2c.1.1.2 0 .3.1.1 0 .3 0 .3.1.1 0 .2.2.2.2 0-.7-.1-1.2-.2-1.7zm.2 2l-.2-.2c-.1 0-.2-.1-.3-.1-.1 0-.2 0-.3-.1l-.2-.2c0 .5.1 1 0 1.5l.2.2c.1.1.2.1.3.1.1 0 .2.1.3.1l.2.2zm0 2s-.1-.2-.2-.2-.2-.1-.3-.1c-.1 0-.2 0-.3-.1l-.2-.2c0 .5-.1 1-.2 1.5l.2.2c.1.1.2.1.3.1.1 0 .2.1.3.2l.2.2c.1-.5.1-1 .2-1.6zm-.3 2l-.1-.2c-.1-.1-.2-.1-.3-.2-.1 0-.2-.1-.3-.1l-.2-.2-.3 1.5c0 .1.1.3.1.3.1.1.2.1.3.2.1.1.2.1.3.2.1.1.1.2.1.2.1-.6.2-1.1.4-1.7zm-.6 2s0-.2-.1-.2c0-.1-.2-.2-.2-.2-.1-.1-.2-.1-.2-.2 0 0-.1-.1-.1-.3-.2.5-.4.9-.6 1.4 0 .1.1.3.1.3l.2.2.2.2c0 .1.1.3.1.3zm-.8 1.9s0-.2-.1-.3c0-.1-.2-.2-.2-.2-.1-.1-.2-.1-.2-.2 0 0-.1-.1-.1-.3-.2.5-.5.9-.7 1.3 0 .1.1.3.1.3l.2.2c.1.1.2.2.2.3 0 .1.1.3.1.3.2-.5.4-1 .7-1.4zm-1.1 1.7v-.3c0-.1-.1-.2-.2-.3-.1-.1-.2-.1-.2-.2 0 0-.1-.1-.1-.3l-.9 1.2v.3c0 .1.1.2.2.3.1.1.1.2.2.3v.3c.4-.4.7-.9 1-1.3zM27 26.1v-.3c0-.1-.1-.2-.2-.3-.1-.1-.1-.1-.2-.3v-.3c-.3.4-.7.8-1 1.1v.3c0 .1.1.2.1.3 0 .1.1.2.1.3v.3c.5-.4.9-.7 1.2-1.1zm-1.4 1.4v-.3c0-.1-.1-.2-.1-.3 0-.1-.1-.2-.1-.3v-.3c-.4.3-.8.7-1.2.9v.3c0 .1.1.2.1.3 0 .1.1.2.1.3 0 .1-.1.3-.1.3.4-.2.9-.6 1.3-.9zm-1.7 1.2s.1-.2.1-.3c0-.1 0-.2-.1-.3 0-.1-.1-.2-.1-.3 0 0 0-.2.1-.3-.4.3-.8.6-1.3.8-.1.1-.1.3-.1.3 0 .1 0 .2.1.3 0 .1.1.2.1.3 0 .1-.1.3-.1.3.4-.3.9-.5 1.3-.8zm-1.8 1l.1-.2v-.3c0-.1-.1-.2-.1-.3 0 0 0-.2.1-.3-.5.2-.9.4-1.4.6-.1.1-.1.3-.1.3v.6c0 .1-.1.3-.1.3.5-.3 1-.5 1.5-.7zm-2 .7s0-.1.1-.2v-.3c0-.1-.1-.2 0-.3 0 0 .1-.3.2-.4-.5.2-1.2.4-1.6.7-.1 0-.2.1-.2.1 0 .1-.1.2-.1.3v.3c0 .2-.2.5-.2.5.5-.1 1.2-.4 1.6-.6zm-9.9-.2s.2 0 .2-.1c.1-.1.2-.2.2-.3 0-.1.1-.2.2-.3 0 0 .1-.1.3-.1-.5-.2-.9-.3-1.4-.5-.1 0-.3.1-.3.1-.1.1-.1.2-.2.2l-.2.2c-.1.1-.3.1-.3.1.5.3 1 .5 1.5.7zm-1.8-.8s.2 0 .3-.1c.1 0 .2-.2.2-.2.1-.1.1-.2.2-.2 0 0 .1-.1.3-.1-.5-.2-.9-.4-1.3-.7-.1 0-.3.1-.3.1l-.2.2c-.1.1-.2.2-.3.2-.1 0-.3.1-.3.1.4.2.9.4 1.4.7zm-1.8-1.1h.3c.1 0 .2-.1.3-.2.1-.1.1-.2.2-.2 0 0 .1-.1.3-.1l-1.2-.9h-.3c-.1 0-.2.1-.3.2-.1.1-.2.1-.3.2h-.3c.5.4.9.7 1.3 1zM5 27h.3c.1 0 .2-.1.3-.2.1-.1.1-.1.3-.2h.3c-.4-.3-.7-.7-1.1-1h-.3c-.1 0-.2.1-.3.1-.1 0-.2.1-.3.1h-.3c.4.5.7.9 1.1 1.2zm-1.4-1.4h.3c.1 0 .2-.1.3-.1.1 0 .2-.1.3-.1h.3c-.3-.4-.7-.8-1-1.2h-.3c-.1 0-.2.1-.3.1-.1 0-.2.1-.3.1-.1 0-.3-.1-.3-.1.4.4.7.8 1 1.3zm-1.2-1.7s.2.1.3.1c.1 0 .2-.1.3-.1.1 0 .2-.1.3-.1 0 0 .2 0 .3.1-.3-.4-.6-.8-.8-1.3-.1-.1-.3-.1-.3-.1-.1 0-.2 0-.3.1-.1 0-.2.1-.3.1-.1 0-.3-.1-.3-.1.3.4.5.9.8 1.3zm-1-1.8s.2.1.3.1H2c.1 0 .2-.1.3-.1 0 0 .2 0 .3.1-.2-.4-.4-.9-.6-1.4-.1-.1-.3-.1-.3-.1h-.6c-.1 0-.2-.1-.2-.1.1.6.3 1 .5 1.5zm-.7-1.9s.1.1.2.1h.6s.1 0 .3.1c-.2-.5-.3-1-.4-1.4l-.2-.2H.6c-.1 0-.2-.1-.2-.1 0 .5.1 1 .3 1.5zm-.5-1.9l.2.2H1l.2.2c-.1-.5-.2-1-.2-1.5L.8 17c-.1-.1-.2 0-.3-.1-.1 0-.3 0-.3-.1-.1 0-.2-.2-.2-.2.1.6.1 1.1.2 1.7zM0 16.2l.2.2c.1 0 .2.1.3.1.1 0 .2 0 .3.1l.2.2c0-.5-.1-1 0-1.5l-.2-.2C.7 15 .6 15 .5 15c-.1 0-.2-.1-.3-.1l-.2-.2zm.1-2s.1.2.2.2.2.1.3.1c.1 0 .2 0 .3.1l.2.2c0-.5.1-1 .1-1.5l-.2-.2C.9 13 .8 13 .7 13c-.1 0-.2-.1-.3-.2-.1-.1-.1-.2-.1-.2-.1.5-.2 1.1-.2 1.6zm.3-2l.1.2c.1.1.2.1.3.2.1 0 .2.1.3.1l.2.2.3-1.5c0-.1-.1-.3-.1-.3-.1-.1-.2-.1-.3-.2-.1-.1-.2-.1-.3-.2-.1-.1-.1-.2-.1-.2-.2.7-.3 1.2-.4 1.7zm.5-2s0 .2.1.2c.1.1.2.1.3.2.1 0 .2.1.3.2 0 0 .1.1.1.3.2-.5.3-.9.5-1.4 0-.1-.1-.3-.1-.3l-.2-.2-.2-.2c-.1-.1-.1-.3-.1-.3-.3.5-.5 1-.7 1.5zm.9-1.8s0 .2.1.3c0 .1.2.2.2.2.1.1.2.1.2.2 0 0 .1.1.1.3.2-.5.5-.9.7-1.3 0-.1-.1-.3-.1-.3l-.2-.2c-.1-.1-.2-.2-.2-.3 0-.1-.1-.3-.1-.3-.2.4-.5.9-.7 1.4zm1-1.8v.3c0 .1.1.2.2.3.1.1.2.1.2.2 0 0 .1.1.1.3l.9-1.2v-.3c0-.1-.1-.2-.2-.3-.1-.1-.1-.2-.2-.3v-.3c-.4.5-.7.9-1 1.3zm1.3-1.5v.3c0 .1.1.2.2.3.1.1.1.1.2.3v.3c.3-.4.7-.8 1-1.1v-.3c0-.1-.1-.2-.1-.3 0-.1-.1-.2-.1-.3V4c-.5.3-.9.6-1.2 1.1zm1.5-1.5v.3c0 .1.1.2.1.3 0 .1.1.2.1.3v.3c.4-.3.8-.7 1.2-.9v-.3c0-.1-.1-.2-.1-.3 0-.1-.1-.2-.1-.3 0-.1.1-.3.1-.3-.5.3-.9.6-1.3.9zm1.6-1.2s-.1.2-.1.3c0 .1 0 .2.1.3 0 .1.1.2.1.3 0 0 0 .2-.1.3.4-.3.8-.5 1.3-.8.1-.1.1-.3.1-.3 0-.1 0-.2-.1-.3 0-.1-.1-.2-.1-.3 0-.1.1-.3.1-.3-.4.3-.9.5-1.3.8zM9 1.5s-.1.2-.1.3v.3c0 .1.1.2.1.3 0 0 0 .2-.1.3.4-.2.9-.4 1.4-.6.1-.1.1-.3.1-.3v-.6c0-.1.1-.2.1-.2-.5 0-1 .2-1.5.5zm1.9-.8s-.1.1-.1.2v.6s0 .1-.1.3c.5-.2 1-.3 1.4-.4l.2-.2V.6c0-.1.1-.2.1-.2-.5 0-1 .2-1.5.3zm2-.5l-.2.2V1l-.2.2c.5-.1 1-.2 1.5-.2l.2-.2c.1-.1 0-.2.1-.3 0-.1 0-.2.1-.3 0-.1.2-.2.2-.2-.7.1-1.2.1-1.7.2zm2-.2l-.2.2c0 .1-.1.2-.1.3 0 .1 0 .2-.1.3l-.2.2c.5 0 1-.1 1.5 0l.2-.2c.1-.1.1-.2.1-.3 0-.1.1-.2.1-.3l.2-.2zm-3.8 30.1s.2.8.7.9c.1-.3.6-.8.9-1l.1-.1c-.1-.7.2-1.1.2-1.1l-.3.1c-.7.2-1.3.6-1.6 1.2zm1 2.8c.1 0 .2-.1.3-.2-.4-.3-.6-.8-.6-1.3-.7-.1-.9-.9-.9-.9-.1.3-.2.6-.2.9 0 .5.1 1.1.4 1.5.1 0 .6.1 1 0zm1.5.1h-.3c-.2 0-.4 0-.6-.1-.2.5-1.2.4-1.2.4.4.4.9.6 1.5.7 0 0 .6-.1.6-1zm.4 0l.5.1c.9.2 1 .4 1 .4s-1 .9-1.9.7c0-.1.7-.5.4-1.2m2.9-.2c-.7-.5-1.3-.6-1.8-.8l-1 .7 1.1.4c.3.1.4.3.9.5 0 0 1.1-.6.8-.8zm1.9.9c-.4.4-1 .4-1 .4-.4 0-.8 0-1.3-.3 0 0 .8-.6.8-.9.2.1.8.1.9 0 .1.1.3.6.6.8z" id="path6" fill="#5f249f" fill-opacity="1"/><path class="st1" d="M17.3 30.1c.4-.4.8-.5 1.1-.4 1-.4 1.2-.5 1.2-.5-.4-.4-.8-.5-1.5-.5-.3 0-1.3.4-1.4.6m.3 1s-.7-.6-.5-1c-.7.7-1 1-1.7 1-.2 0 0 0 0 0-.1.1-.1.2-.2.3 0 .1-.1.2-.1.3v.3c.7 0 .6.1 1.2-.1 0 0 .4-.2.8-.6.2 0 .4-.2.5-.2zm-2.7 1s-.1 0 0-.4c0-.1.1-.2.1-.3 0-.1.1-.2.2-.3 0 0-.1.1 0 0h-.2c-.5 0-.8-.1-1.2-.2-.1 0 0 0 0 0-.2 0-.4.2-.4.3 0 .1-.1.1-.2.2l-.2.2c.4.2 1.4.5 1.9.5zm-.6-2.4c.1-.1.2-.1.4-.1.6-.1 1.5.3 1.6.7l-.3.2c-.2.2-.6.2-.6.2l-.2-.1c-.2-.1-.5-.1-.7-.1-.2 0-.5-.1-.6 0-.2-.1.4-.8.4-.8zm-2.5 4.5c-.2.2-.4.3-.4.3l-.2.2s-.7-.8-1.3-.3c.2-.3.4-.6.6-.7.1-.1.3-.2.5-.4h-.1c.1 0 .2-.1.2-.1.1 0 .2.7.7 1zM9 34c.7-.6 1.3.2 1.3.2l-.5.5zm.4 1l.1-.1-.7-.7-.1.1zm-.9-.5c-.2.2-.4.3-.4.3l.8.9.3-.5zm13.1.2c.2.2.4.3.4.3l-.8.9-.3-.5zm-.2-.1l-.1-.1-.7.6.1.1zm-.2-.4c-.7-.6-1.3.1-1.3.1l.5.5zm-1.3-1.5c-.9-.5-1.4.2-1.4.2.6.3 1 .9 1 .9l.1.2s.7-.8 1.3-.3c-.2-.3-.4-.6-.5-.7-.2 0-.3-.2-.5-.3zm-3.5-1.5c-.1 0 .5.2 1.4.1l.2-.2c0-.1.1-.3.1-.4v-.5c-.1.1-.7.2-.7.2-.2 0-.3.1-.3.1-.1.1-.2.1-.2.2 0 0-.2.1-.3.2.1.1-.2.2-.2.3zm3.8 1.3c.6-.7.3-1.4.2-1.8l-1.1.5c0 .1.2.4-.1.7 0 0 1.1.5 1 .6zm-2.2.2s.8-.7 1.2-.5l-.1-.1c-.4-.3-1-.5-1.5-.5s-1.3.1-1.5.4c0 0 .7.1 1.1.6.2.1.4 0 .8.1z" id="path8" fill="#5f249f" fill-opacity="1"/><g id="g14" fill="#5f249f" fill-opacity="1"><path class="st1" d="M16.9 25.7l.5-.9 1 .2-.7-.7.5-.9-.9.5-.7-.7.2 1-.9.5 1 .2zm6.8 2.6c-.5.1-1.2.1-1.8.2-.3-1.1-1.1-2.6-2.5-2.4-1.2.2-1.7 1.4-1.4 2.5-1.7.2-3.2-1.2-3.6-2.8-.5-2.4 1.2-4.8 3.8-4.8 3.5.1 5.4 4.8 5.5 7.3zM35 25.7l.2-1 1-.1-.9-.5.2-1-.7.7-.9-.5.5.9-.7.7 1-.2zm-6.8 2.7c.1-2.5 2-7.2 5.6-7.2 2.5 0 4.3 2.4 3.8 4.8-.4 1.6-1.8 3-3.6 2.8.3-1.1-.2-2.4-1.4-2.5-1.4-.2-2.3 1.3-2.5 2.4-.7-.2-1.3-.3-1.9-.3zM26 30c2.3 0 4.2-.2 4.2-.4 0-.1-1.9-.4-4.2-.4-2.3 0-4.2.2-4.2.4 0 .1 1.9.4 4.2.4zm0 .5c-2.7 0-4.8-.4-4.8-.9s2.2-.9 4.8-.9c2.7 0 4.8.4 4.8.9s-2.2.9-4.8.9zm3.9.1c-.5.1-1.1.2-1.7.2.1 1.1 1 3.3 2.5 3.3 1.1 0 2-1 2-2-1.3.7-2.6.1-2.8-1.5zm-6.2.3c-.6-.1-1.2-.1-1.7-.2-.3 1.6-1.6 2.2-2.9 1.6.1 1.1.9 2 2 2 1.6-.1 2.5-2.4 2.6-3.4z" id="path10" fill="#5f249f" transform="translate(-10.4 -10.4)" fill-opacity="1"/><path class="st2" d="M26 13.8c.6.7 1.7 1.5 1.9 1.7 1.6 1.2 2.4 2.9 2.4 4.4 0 2.7-2.3 5.1-2.6 8.4-.5-.1-1-.1-1.5-.1.1-3.3-.1-7.9-.3-11.2-.2 3.3-.4 7.8-.3 11.2-.5 0-1 0-1.5.1-.3-3.3-2.6-5.7-2.6-8.4 0-1.5.8-3.2 2.4-4.4.3-.2 1.4-1 2.1-1.7zm0 23.5c1.3-.6 2.6-1.8 3.2-3-.8-1.1-1.2-2.4-1.4-3.3-.5 0-1 .1-1.5.1-.1.9-.1 2.8-.3 3.8-.3-1-.3-2.9-.3-3.8-.5 0-1 0-1.5-.1-.1 1-.5 2.2-1.4 3.3.5 1.2 1.9 2.4 3.2 3z" id="path12" clip-rule="evenodd" fill="#5f249f" fill-rule="evenodd" transform="translate(-10.4 -10.4)" fill-opacity="1"/></g><g id="g18" fill="#5f249f" fill-opacity="1"><path class="st1" d="M169.5 15.6c.9 0 1.7.7 1.7 1.7s-.8 1.7-1.7 1.7c-.9 0-1.7-.7-1.7-1.7.1-1 .8-1.7 1.7-1.7zm0 3.1c.8 0 1.4-.6 1.4-1.4 0-.8-.6-1.4-1.4-1.4-.8 0-1.4.6-1.4 1.4 0 .8.6 1.4 1.4 1.4zm-.6-2.4h.7c.5 0 .7.2.7.6 0 .3-.2.5-.5.5l.6.9h-.3l-.5-.8h-.3v.8h-.3v-2zm.3.9h.3c.3 0 .5 0 .5-.3s-.2-.3-.4-.3h-.4zm-71.5 16c-3.8 0-6.4-2.9-6.4-7.4 0-4.4 2.5-7.3 6.4-7.3 3.8 0 6.3 2.9 6.3 7.3.1 4.5-2.5 7.4-6.3 7.4zm0-17.5c-2.8 0-5.3.9-7.1 2.5-2.1 1.8-3.2 4.6-3.2 7.9 0 3.3 1.2 6.1 3.5 8 1.8 1.5 4.2 2.3 6.9 2.3 2.8 0 5.3-.9 7.1-2.5 2.1-1.9 3.3-4.6 3.3-7.9 0-3.1-1.1-5.8-3-7.6-1.9-1.8-4.5-2.8-7.5-2.7zm14.6.4h3.8V29c.1 1.3.5 2.4 1.3 3.1.8.7 1.9 1.1 3.4 1.1 1.6 0 2.8-.4 3.6-1.2.7-.7 1.1-1.7 1.1-2.9v-13h3.8v12.5c0 2.3-.7 4.1-2 5.5-1.5 1.5-3.7 2.4-6.6 2.4-2.8 0-5-.8-6.3-2.1-1.3-1.3-2.1-3.2-2.1-5.4zm36.7 3h-5.8v16.8h-3.8V19.1h-6.2v-3h17.4zm-77.6-.6c1.8-1.7 4.3-2.8 7.3-2.9h1c1.5.1 3.3.6 4.6 1.4.2.1.4.3.4.3-.2.3-1.4 2.5-1.4 2.5l-.4-.2c-.9-.5-2-.8-3.2-.8h-.6c-2 .1-3.6.8-4.8 2.1-1.1 1.2-1.7 2.8-1.8 4.6v.9c.2 4 2.7 6.7 6.4 6.9h.8c1.4-.1 2.6-.5 3.8-1.3.1.2 1.4 2.7 1.5 2.8-1.5.9-3.9 1.6-6.3 1.6-3.1 0-5.7-1-7.5-2.8-1.8-1.8-2.8-4.3-2.8-7.4 0-3.2 1.1-5.9 3-7.7zm-10.5 12c0-1.9-1.9-2.8-3.8-3.6-1.3-.6-2.4-1-3.5-2s-1.7-2.3-1.7-4c0-3.3 2.6-5.4 6.7-5.4 2.9 0 4.9 1 5.9 1.7 0 .1-1.4 2.4-1.4 2.5-1.2-.8-2.7-1.4-3.9-1.4-2.1.1-3.3 1.1-3.3 2.4 0 1.7 1.8 2.4 3.6 3.2 2.6 1 5.5 2.3 5.5 6.3 0 3.5-3.1 6-7.4 6-2.5 0-4.6-.6-6.7-1.7 0-.1 1.5-2.8 1.5-2.8 1.7.9 3.3 1.5 4.7 1.5 2.3.1 3.8-1.1 3.8-2.7zm101.1 0c0-1.9-1.9-2.8-3.8-3.6-1.3-.6-2.4-1-3.5-2s-1.7-2.3-1.7-4c0-3.3 2.6-5.4 6.7-5.4 2.9 0 4.9 1 5.9 1.7 0 .1-1.4 2.4-1.4 2.5-1.2-.8-2.7-1.4-3.9-1.4-2.1.1-3.3 1.1-3.3 2.4 0 1.7 1.8 2.4 3.6 3.2 2.6 1 5.5 2.3 5.5 6.3 0 3.5-3.1 6-7.4 6-2.5 0-4.6-.6-6.7-1.7 0-.1 1.5-2.8 1.5-2.8 1.7.9 3.3 1.5 4.7 1.5 2.3.1 3.8-1.1 3.8-2.7z" id="path16" fill="#5f249f" transform="translate(-10.4 -10.4)" fill-opacity="1"/></g><g id="g22" fill="#5f249f" fill-opacity="1"><path class="st1" d="M131.1 44.7l-.8 1.9h-.8l3.1-7.1 3.1 7.1h-.8l-.8-1.9zm1.5-3.4l-1.2 2.7h2.3zm3.5 3.2c0-1.2 1-2.2 2.2-2.2 1.2 0 2.2 1 2.2 2.2 0 1.2-1 2.2-2.2 2.2-1.2 0-2.2-1-2.2-2.2zm.7 0c0 .9.6 1.6 1.5 1.6s1.5-.7 1.5-1.6c0-.9-.6-1.6-1.5-1.6s-1.5.7-1.5 1.6zm5.6 2.1h-.7V43h-.4v-.7h.4v-1.5h.7v1.5h.8v.7h-.8zm1.8-2c0 .8.6 1.4 1.4 1.4.6 0 1-.4 1.3-.9l.6.4c-.4.8-1.1 1.2-2 1.2-1.3 0-2.1-1-2.1-2.2 0-1.3.7-2.3 2.1-2.3 1.4 0 2.1 1.1 2 2.4zm2.6-.6c-.1-.6-.6-1.1-1.2-1.1s-1.2.5-1.3 1.1zm5.7 2.6h-.7V46c-.4.5-.9.7-1.5.7-1.2 0-2-1.1-2-2.2 0-1.2.8-2.2 2-2.2.6 0 1.1.3 1.4.7v-.6h.7v4.2zm-3.5-2.2c0 .8.5 1.6 1.4 1.6.9 0 1.4-.7 1.4-1.6 0-.8-.5-1.5-1.4-1.5-.9 0-1.4.7-1.4 1.5zm5.6-1.6c.3-.3.5-.6 1-.6.2 0 .4.1.6.2l-.3.7c-.1-.1-.2-.2-.4-.2-.8 0-.8 1-.8 1.6v2.1h-.7v-4.2h.7v.4zm2 1.7c0-1.2 1-2.2 2.2-2.2 1.2 0 2.2 1 2.2 2.2 0 1.2-1 2.2-2.2 2.2-1.2 0-2.2-1-2.2-2.2zm.8 0c0 .9.6 1.6 1.5 1.6s1.5-.7 1.5-1.6c0-.9-.6-1.6-1.5-1.6s-1.5.7-1.5 1.6zm8.6 2.1h-.7V46c-.4.5-.9.7-1.5.7-1.2 0-2-1.1-2-2.2 0-1.2.8-2.2 2-2.2.6 0 1.1.3 1.5.7v-.6h.7zm-3.5-2.2c0 .8.5 1.6 1.4 1.6.9 0 1.4-.7 1.4-1.6 0-.8-.5-1.5-1.4-1.5-.8 0-1.4.7-1.4 1.5z" id="path20" fill="#5f249f" transform="translate(-10.4 -10.4)" fill-opacity="1"/></g></svg>