<!DOCTYPE svg PUBLIC "-//W3C//DTD SVG 1.1//EN" "http://www.w3.org/Graphics/SVG/1.1/DTD/svg11.dtd" [
	<!ENTITY ns_extend "http://ns.adobe.com/Extensibility/1.0/">
	<!ENTITY ns_ai "http://ns.adobe.com/AdobeIllustrator/10.0/">
	<!ENTITY ns_graphs "http://ns.adobe.com/Graphs/1.0/">
	<!ENTITY ns_vars "http://ns.adobe.com/Variables/1.0/">
	<!ENTITY ns_imrep "http://ns.adobe.com/ImageReplacement/1.0/">
	<!ENTITY ns_sfw "http://ns.adobe.com/SaveForWeb/1.0/">
	<!ENTITY ns_custom "http://ns.adobe.com/GenericCustomNamespace/1.0/">
	<!ENTITY ns_adobe_xpath "http://ns.adobe.com/XPath/1.0/">
]><svg version="1.1" id="Logo_Artwork" xmlns="http://www.w3.org/2000/svg" x="0" y="0" viewBox="0 0 181.6 57.1" xml:space="preserve"><style type="text/css">.st0{fill:none}.st1,.st2{fill:#6a2c91}.st2{fill-rule:evenodd;clip-rule:evenodd}</style><path class="st0" d="M0 0h181.6v57.1H0z"/><path class="st1" d="M27.7 40.5s-.8-.6-.6-.9M24.9 42.2c-.8-.3-1.8-.4-2.3-.2l.1.3.4.5h.4s.3 0 .6.1c0 .1.7-.7.8-.7zM27.3 10.5s-.2.1-.2.2-.1.2-.1.3c0 .1 0 .2-.1.3l-.2.2c.5 0 1 .1 1.5.1l.2-.2c.1-.1.1-.2.1-.3 0-.1.1-.2.2-.3l.2-.2c-.5 0-1-.1-1.6-.1zM29.3 10.8l-.2.1c-.1.1-.1.2-.2.3 0 .1-.1.2-.1.3l-.2.2 1.5.3c.1 0 .3-.1.3-.1.1-.1.1-.2.2-.3 0-.1.1-.2.2-.3.1-.1.2-.1.2-.1-.6-.2-1.1-.3-1.7-.4zM31.3 11.4s-.2 0-.2.1c-.1.1-.1.2-.2.3 0 .1-.1.2-.2.3 0 0-.1.1-.3.1.5.2.9.3 1.4.5.1 0 .3-.1.3-.1.1-.1.1-.2.2-.2l.2-.2c.1-.1.3-.1.3-.1-.5-.4-1-.6-1.5-.7zM33.2 12.2s-.2 0-.3.1c-.1 0-.2.2-.2.2-.1.1-.1.2-.2.2 0 0-.1.1-.3.1.5.2.9.5 1.3.7.1 0 .3-.1.3-.1l.2-.2c.1-.1.2-.2.3-.2.1 0 .3-.1.3-.1-.5-.2-1-.5-1.4-.7zM34.9 13.2h-.3c-.1 0-.2.1-.3.2-.1.1-.1.2-.2.2 0 0-.1.1-.3.1l1.2.9h.3c.1 0 .2-.1.3-.2.1-.1.2-.1.3-.2h.3c-.4-.3-.9-.7-1.3-1zM36.5 14.5h-.3c-.1 0-.2.1-.3.2-.1.1-.1.1-.3.2h-.3c.4.3.8.7 1.1 1h.3c.1 0 .2-.1.3-.1.1 0 .2-.1.3-.1h.3c-.3-.5-.7-.8-1.1-1.2zM37.9 16h-.3c-.1 0-.2.1-.3.1-.1 0-.2.1-.3.1h-.3c.3.4.7.8 1 1.2h.3c.1 0 .2-.1.3-.1.1 0 .2-.1.3-.1h.3c-.3-.4-.7-.8-1-1.2zM39.1 17.6s-.2-.1-.3-.1c-.1 0-.2 0-.3.1-.1 0-.2.1-.3.1 0 0-.2 0-.3-.1.3.4.6.8.8 1.3.1.1.3.1.3.1.1 0 .2 0 .3-.1.1 0 .2-.1.3-.1.1 0 .3.1.3.1-.3-.4-.5-.8-.8-1.3zM40.1 19.4l-.2-.1h-.3c-.1 0-.2.1-.3.1 0 0-.2 0-.3-.1.2.4.4.9.6 1.4.1.1.3.1.3.1h.6c.1 0 .2.1.2.1l-.6-1.5zM40.8 21.3s-.1-.1-.2-.1H40s-.1 0-.3-.1c.2.5.3 1 .4 1.4.1.1.3.2.3.2h.6c.1 0 .2.1.2.1-.1-.5-.2-1-.4-1.5zM41.3 23.3l-.2-.2h-.6l-.2-.2c.1.5.2 1 .2 1.5l.2.2c.1.1.2 0 .3.1.1 0 .3 0 .3.1.1 0 .2.2.2.2 0-.7-.1-1.2-.2-1.7zM41.5 25.3l-.2-.2c-.1 0-.2-.1-.3-.1-.1 0-.2 0-.3-.1l-.2-.2c0 .5.1 1 0 1.5l.2.2c.1.1.2.1.3.1.1 0 .2.1.3.1l.2.2v-1.5zM41.5 27.3s-.1-.2-.2-.2-.2-.1-.3-.1c-.1 0-.2 0-.3-.1l-.2-.2c0 .5-.1 1-.2 1.5l.2.2c.1.1.2.1.3.1.1 0 .2.1.3.2l.2.2c.1-.5.1-1 .2-1.6zM41.2 29.3l-.1-.2c-.1-.1-.2-.1-.3-.2-.1 0-.2-.1-.3-.1l-.2-.2-.3 1.5c0 .1.1.3.1.3.1.1.2.1.3.2.1.1.2.1.3.2.1.1.1.2.1.2.1-.6.2-1.1.4-1.7zM40.6 31.3s0-.2-.1-.2c0-.1-.2-.2-.2-.2-.1-.1-.2-.1-.2-.2 0 0-.1-.1-.1-.3-.2.5-.4.9-.6 1.4 0 .1.1.3.1.3l.2.2.2.2c0 .1.1.3.1.3l.6-1.5zM39.8 33.2s0-.2-.1-.3c0-.1-.2-.2-.2-.2-.1-.1-.2-.1-.2-.2 0 0-.1-.1-.1-.3-.2.5-.5.9-.7 1.3 0 .1.1.3.1.3l.2.2c.1.1.2.2.2.3 0 .1.1.3.1.3.2-.5.4-1 .7-1.4zM38.7 34.9v-.3c0-.1-.1-.2-.2-.3-.1-.1-.2-.1-.2-.2 0 0-.1-.1-.1-.3l-.9 1.2v.3c0 .1.1.2.2.3.1.1.1.2.2.3v.3c.4-.4.7-.9 1-1.3zM37.4 36.5v-.3c0-.1-.1-.2-.2-.3-.1-.1-.1-.1-.2-.3v-.3c-.3.4-.7.8-1 1.1v.3c0 .1.1.2.1.3 0 .1.1.2.1.3v.3c.5-.4.9-.7 1.2-1.1zM36 37.9v-.3c0-.1-.1-.2-.1-.3 0-.1-.1-.2-.1-.3v-.3c-.4.3-.8.7-1.2.9v.3c0 .1.1.2.1.3 0 .1.1.2.1.3 0 .1-.1.3-.1.3.4-.2.9-.6 1.3-.9zM34.3 39.1s.1-.2.1-.3c0-.1 0-.2-.1-.3 0-.1-.1-.2-.1-.3 0 0 0-.2.1-.3-.4.3-.8.6-1.3.8-.1.1-.1.3-.1.3 0 .1 0 .2.1.3 0 .1.1.2.1.3 0 .1-.1.3-.1.3.4-.3.9-.5 1.3-.8zM32.5 40.1l.1-.2v-.3c0-.1-.1-.2-.1-.3 0 0 0-.2.1-.3-.5.2-.9.4-1.4.6-.1.1-.1.3-.1.3v.6c0 .1-.1.3-.1.3.5-.3 1-.5 1.5-.7zM30.5 40.8s0-.1.1-.2v-.3c0-.1-.1-.2 0-.3 0 0 .1-.3.2-.4-.5.2-1.2.4-1.6.7-.1 0-.2.1-.2.1 0 .1-.1.2-.1.3v.3c0 .2-.2.5-.2.5.5-.1 1.2-.4 1.6-.6l.2-.1zM20.6 40.6s.2 0 .2-.1c.1-.1.2-.2.2-.3 0-.1.1-.2.2-.3 0 0 .1-.1.3-.1-.5-.2-.9-.3-1.4-.5-.1 0-.3.1-.3.1-.1.1-.1.2-.2.2l-.2.2c-.1.1-.3.1-.3.1.5.3 1 .5 1.5.7zM18.8 39.8s.2 0 .3-.1c.1 0 .2-.2.2-.2.1-.1.1-.2.2-.2 0 0 .1-.1.3-.1-.5-.2-.9-.4-1.3-.7-.1 0-.3.1-.3.1l-.2.2c-.1.1-.2.2-.3.2-.1 0-.3.1-.3.1.4.2.9.4 1.4.7zM17 38.7h.3c.1 0 .2-.1.3-.2.1-.1.1-.2.2-.2 0 0 .1-.1.3-.1l-1.2-.9h-.3c-.1 0-.2.1-.3.2-.1.1-.2.1-.3.2h-.3c.5.4.9.7 1.3 1zM15.4 37.4h.3c.1 0 .2-.1.3-.2.1-.1.1-.1.3-.2h.3c-.4-.3-.7-.7-1.1-1h-.3c-.1 0-.2.1-.3.1-.1 0-.2.1-.3.1h-.3c.4.5.7.9 1.1 1.2zM14 36h.3c.1 0 .2-.1.3-.1.1 0 .2-.1.3-.1h.3c-.3-.4-.7-.8-1-1.2h-.3c-.1 0-.2.1-.3.1-.1 0-.2.1-.3.1-.1 0-.3-.1-.3-.1.4.4.7.8 1 1.3zM12.8 34.3s.2.1.3.1c.1 0 .2-.1.3-.1.1 0 .2-.1.3-.1 0 0 .2 0 .3.1-.3-.4-.6-.8-.8-1.3-.1-.1-.3-.1-.3-.1-.1 0-.2 0-.3.1-.1 0-.2.1-.3.1-.1 0-.3-.1-.3-.1.3.4.5.9.8 1.3zM11.8 32.5s.2.1.3.1h.3c.1 0 .2-.1.3-.1 0 0 .2 0 .3.1-.2-.4-.4-.9-.6-1.4-.1-.1-.3-.1-.3-.1h-.6c-.1 0-.2-.1-.2-.1.1.6.3 1 .5 1.5zM11.1 30.6s.1.1.2.1h.6s.1 0 .3.1c-.2-.5-.3-1-.4-1.4l-.2-.2H11c-.1 0-.2-.1-.2-.1 0 .5.1 1 .3 1.5zM10.6 28.7l.2.2h.6l.2.2c-.1-.5-.2-1-.2-1.5l-.2-.2c-.1-.1-.2 0-.3-.1-.1 0-.3 0-.3-.1-.1 0-.2-.2-.2-.2.1.6.1 1.1.2 1.7zM10.4 26.6l.2.2c.1 0 .2.1.3.1.1 0 .2 0 .3.1l.2.2c0-.5-.1-1 0-1.5l-.2-.2c-.1-.1-.2-.1-.3-.1-.1 0-.2-.1-.3-.1l-.2-.2v1.5zM10.5 24.6s.1.2.2.2.2.1.3.1c.1 0 .2 0 .3.1l.2.2c0-.5.1-1 .1-1.5l-.2-.2c-.1-.1-.2-.1-.3-.1-.1 0-.2-.1-.3-.2-.1-.1-.1-.2-.1-.2-.1.5-.2 1.1-.2 1.6zM10.8 22.6l.1.2c.1.1.2.1.3.2.1 0 .2.1.3.1l.2.2.3-1.5c0-.1-.1-.3-.1-.3-.1-.1-.2-.1-.3-.2-.1-.1-.2-.1-.3-.2-.1-.1-.1-.2-.1-.2-.2.7-.3 1.2-.4 1.7zM11.3 20.6s0 .2.1.2c.1.1.2.1.3.2.1 0 .2.1.3.2 0 0 .1.1.1.3.2-.5.3-.9.5-1.4 0-.1-.1-.3-.1-.3l-.2-.2-.2-.2c-.1-.1-.1-.3-.1-.3-.3.5-.5 1-.7 1.5zM12.2 18.8s0 .2.1.3c0 .1.2.2.2.2.1.1.2.1.2.2 0 0 .1.1.1.3.2-.5.5-.9.7-1.3 0-.1-.1-.3-.1-.3l-.2-.2c-.1-.1-.2-.2-.2-.3 0-.1-.1-.3-.1-.3-.2.4-.5.9-.7 1.4zM13.2 17v.3c0 .1.1.2.2.3.1.1.2.1.2.2 0 0 .1.1.1.3l.9-1.2v-.3c0-.1-.1-.2-.2-.3-.1-.1-.1-.2-.2-.3v-.3c-.4.5-.7.9-1 1.3zM14.5 15.5v.3c0 .1.1.2.2.3.1.1.1.1.2.3v.3c.3-.4.7-.8 1-1.1v-.3c0-.1-.1-.2-.1-.3 0-.1-.1-.2-.1-.3v-.3c-.5.3-.9.6-1.2 1.1zM16 14v.3c0 .1.1.2.1.3 0 .1.1.2.1.3v.3c.4-.3.8-.7 1.2-.9V14c0-.1-.1-.2-.1-.3 0-.1-.1-.2-.1-.3 0-.1.1-.3.1-.3-.5.3-.9.6-1.3.9zM17.6 12.8s-.1.2-.1.3c0 .1 0 .2.1.3 0 .1.1.2.1.3 0 0 0 .2-.1.3.4-.3.8-.5 1.3-.8.1-.1.1-.3.1-.3 0-.1 0-.2-.1-.3 0-.1-.1-.2-.1-.3 0-.1.1-.3.1-.3-.4.3-.9.5-1.3.8zM19.4 11.9s-.1.2-.1.3v.3c0 .1.1.2.1.3 0 0 0 .2-.1.3.4-.2.9-.4 1.4-.6.1-.1.1-.3.1-.3v-.3-.3c0-.1.1-.2.1-.2-.5 0-1 .2-1.5.5zM21.3 11.1s-.1.1-.1.2v.6s0 .1-.1.3c.5-.2 1-.3 1.4-.4l.2-.2v-.3-.3c0-.1.1-.2.1-.2-.5 0-1 .2-1.5.3zM23.3 10.6l-.2.2v.6l-.2.2c.5-.1 1-.2 1.5-.2l.2-.2c.1-.1 0-.2.1-.3 0-.1 0-.2.1-.3 0-.1.2-.2.2-.2-.7.1-1.2.1-1.7.2zM25.3 10.4l-.2.2c0 .1-.1.2-.1.3 0 .1 0 .2-.1.3l-.2.2c.5 0 1-.1 1.5 0l.2-.2c.1-.1.1-.2.1-.3 0-.1.1-.2.1-.3l.2-.2h-1.5zM21.5 40.5s.2.8.7.9c.1-.3.6-.8.9-1l.1-.1c-.1-.7.2-1.1.2-1.1l-.3.1c-.7.2-1.3.6-1.6 1.2zM22.5 43.3c.1 0 .2-.1.3-.2-.4-.3-.6-.8-.6-1.3-.7-.1-.9-.9-.9-.9-.1.3-.2.6-.2.9 0 .5.1 1.1.4 1.5.1 0 .6.1 1 0zM24 43.4h-.3c-.2 0-.4 0-.6-.1-.2.5-1.2.4-1.2.4.4.4.9.6 1.5.7 0 0 .6-.1.6-1zM24.4 43.4l.5.1c.9.2 1 .4 1 .4s-1 .9-1.9.7c0-.1.7-.5.4-1.2M27.3 43.2c-.7-.5-1.3-.6-1.8-.8l-1 .7 1.1.4c.3.1.4.3.9.5 0 0 1.1-.6.8-.8zM29.2 44.1c-.4.4-1 .4-1 .4-.4 0-.8 0-1.3-.3 0 0 .8-.6.8-.9.2.1.8.1.9 0 .1.1.3.6.6.8z"/><path class="st1" d="M27.7 40.5c.4-.4.8-.5 1.1-.4 1-.4 1.2-.5 1.2-.5-.4-.4-.8-.5-1.5-.5-.3 0-1.3.4-1.4.6M27.4 40.7s-.7-.6-.5-1c-.7.7-1 1-1.7 1-.2 0 0 0 0 0-.1.1-.1.2-.2.3 0 .1-.1.2-.1.3v.3c.7 0 .6.1 1.2-.1 0 0 .4-.2.8-.6.2 0 .4-.2.5-.2zM24.7 41.7s-.1 0 0-.4c0-.1.1-.2.1-.3 0-.1.1-.2.2-.3 0 0-.1.1 0 0h-.2c-.5 0-.8-.1-1.2-.2-.1 0 0 0 0 0-.2 0-.4.2-.4.3 0 .1-.1.1-.2.2l-.2.2c.4.2 1.4.5 1.9.5zM24.1 39.3c.1-.1.2-.1.4-.1.6-.1 1.5.3 1.6.7l-.3.2c-.2.2-.6.2-.6.2l-.2-.1c-.2-.1-.5-.1-.7-.1-.2 0-.5-.1-.6 0-.2-.1.4-.8.4-.8zM21.6 43.8c-.2.2-.4.3-.4.3l-.2.2s-.7-.8-1.3-.3c.2-.3.4-.6.6-.7.1-.1.3-.2.5-.4h-.1c.1 0 .2-.1.2-.1.1 0 .2.7.7 1zM19.4 44.4c.7-.6 1.3.2 1.3.2l-.5.5-.8-.7zM19.8 45.4l.1-.1-.7-.7-.1.1zM18.9 44.9c-.2.2-.4.3-.4.3l.8.9.3-.5-.7-.7zM32 45.1c.2.2.4.3.4.3l-.8.9-.3-.5.7-.7zM31.8 45l-.1-.1-.7.6.1.1zM31.6 44.6c-.7-.6-1.3.1-1.3.1l.5.5.8-.6zM30.3 43.1c-.9-.5-1.4.2-1.4.2.6.3 1 .9 1 .9l.1.2s.7-.8 1.3-.3c-.2-.3-.4-.6-.5-.7-.2 0-.3-.2-.5-.3zM26.8 41.6c-.1 0 .5.2 1.4.1l.2-.2c0-.1.1-.3.1-.4v-.3-.2c-.1.1-.7.2-.7.2-.2 0-.3.1-.3.1-.1.1-.2.1-.2.2 0 0-.2.1-.3.2.1.1-.2.2-.2.3zM30.6 42.9c.6-.7.3-1.4.2-1.8l-1.1.5c0 .1.2.4-.1.7 0 0 1.1.5 1 .6zM28.4 43.1s.8-.7 1.2-.5l-.1-.1c-.4-.3-1-.5-1.5-.5s-1.3.1-1.5.4c0 0 .7.1 1.1.6.2.1.4 0 .8.1z"/><g><path class="st1" d="M16.9 25.7l.5-.9 1 .2-.7-.7.5-.9-.9.5-.7-.7.2 1-.9.5 1 .2v.8zm6.8 2.6c-.5.1-1.2.1-1.8.2-.3-1.1-1.1-2.6-2.5-2.4-1.2.2-1.7 1.4-1.4 2.5-1.7.2-3.2-1.2-3.6-2.8-.5-2.4 1.2-4.8 3.8-4.8 3.5.1 5.4 4.8 5.5 7.3zM35 25.7l.2-1 1-.1-.9-.5.2-1-.7.7-.9-.5.5.9-.7.7 1-.2.3 1zm-6.8 2.7c.1-2.5 2-7.2 5.6-7.2 2.5 0 4.3 2.4 3.8 4.8-.4 1.6-1.8 3-3.6 2.8.3-1.1-.2-2.4-1.4-2.5-1.4-.2-2.3 1.3-2.5 2.4-.7-.2-1.3-.3-1.9-.3zM26 30c2.3 0 4.2-.2 4.2-.4 0-.1-1.9-.4-4.2-.4-2.3 0-4.2.2-4.2.4 0 .1 1.9.4 4.2.4zm0 .5c-2.7 0-4.8-.4-4.8-.9s2.2-.9 4.8-.9c2.7 0 4.8.4 4.8.9s-2.2.9-4.8.9zM29.9 30.6c-.5.1-1.1.2-1.7.2.1 1.1 1 3.3 2.5 3.3 1.1 0 2-1 2-2-1.3.7-2.6.1-2.8-1.5zM23.7 30.9c-.6-.1-1.2-.1-1.7-.2-.3 1.6-1.6 2.2-2.9 1.6.1 1.1.9 2 2 2 1.6-.1 2.5-2.4 2.6-3.4z"/><path class="st2" d="M26 13.8c.6.7 1.7 1.5 1.9 1.7 1.6 1.2 2.4 2.9 2.4 4.4 0 2.7-2.3 5.1-2.6 8.4-.5-.1-1-.1-1.5-.1.1-3.3-.1-7.9-.3-11.2-.2 3.3-.4 7.8-.3 11.2-.5 0-1 0-1.5.1-.3-3.3-2.6-5.7-2.6-8.4 0-1.5.8-3.2 2.4-4.4.3-.2 1.4-1 2.1-1.7zM26 37.3c1.3-.6 2.6-1.8 3.2-3-.8-1.1-1.2-2.4-1.4-3.3-.5 0-1 .1-1.5.1-.1.9-.1 2.8-.3 3.8-.3-1-.3-2.9-.3-3.8-.5 0-1 0-1.5-.1-.1 1-.5 2.2-1.4 3.3.5 1.2 1.9 2.4 3.2 3z"/></g><g><path class="st1" d="M169.5 15.6c.9 0 1.7.7 1.7 1.7s-.8 1.7-1.7 1.7c-.9 0-1.7-.7-1.7-1.7.1-1 .8-1.7 1.7-1.7zm0 3.1c.8 0 1.4-.6 1.4-1.4 0-.8-.6-1.4-1.4-1.4-.8 0-1.4.6-1.4 1.4 0 .8.6 1.4 1.4 1.4zm-.6-2.4h.7c.5 0 .7.2.7.6 0 .3-.2.5-.5.5l.6.9h-.3l-.5-.8h-.3v.8h-.3v-2zm.3.9h.3c.3 0 .5 0 .5-.3s-.2-.3-.4-.3h-.4v.6zM97.7 33.2c-3.8 0-6.4-2.9-6.4-7.4 0-4.4 2.5-7.3 6.4-7.3 3.8 0 6.3 2.9 6.3 7.3.1 4.5-2.5 7.4-6.3 7.4zm0-17.5c-2.8 0-5.3.9-7.1 2.5-2.1 1.8-3.2 4.6-3.2 7.9 0 3.3 1.2 6.1 3.5 8 1.8 1.5 4.2 2.3 6.9 2.3 2.8 0 5.3-.9 7.1-2.5 2.1-1.9 3.3-4.6 3.3-7.9 0-3.1-1.1-5.8-3-7.6-1.9-1.8-4.5-2.8-7.5-2.7zM112.3 16.1h3.8V29c.1 1.3.5 2.4 1.3 3.1.8.7 1.9 1.1 3.4 1.1 1.6 0 2.8-.4 3.6-1.2.7-.7 1.1-1.7 1.1-2.9v-13h3.8v12.5c0 2.3-.7 4.1-2 5.5-1.5 1.5-3.7 2.4-6.6 2.4-2.8 0-5-.8-6.3-2.1-1.3-1.3-2.1-3.2-2.1-5.4V16.1zM149 19.1h-5.8v16.8h-3.8V19.1h-6.2v-3h17.4l-1.6 3zM71.4 18.5c1.8-1.7 4.3-2.8 7.3-2.9h1c1.5.1 3.3.6 4.6 1.4.2.1.4.3.4.3-.2.3-1.4 2.5-1.4 2.5l-.4-.2c-.9-.5-2-.8-3.2-.8h-.6c-2 .1-3.6.8-4.8 2.1-1.1 1.2-1.7 2.8-1.8 4.6v.9c.2 4 2.7 6.7 6.4 6.9h.8c1.4-.1 2.6-.5 3.8-1.3.1.2 1.4 2.7 1.5 2.8-1.5.9-3.9 1.6-6.3 1.6-3.1 0-5.7-1-7.5-2.8-1.8-1.8-2.8-4.3-2.8-7.4 0-3.2 1.1-5.9 3-7.7zM60.9 30.5c0-1.9-1.9-2.8-3.8-3.6-1.3-.6-2.4-1-3.5-2s-1.7-2.3-1.7-4c0-3.3 2.6-5.4 6.7-5.4 2.9 0 4.9 1 5.9 1.7 0 .1-1.4 2.4-1.4 2.5-1.2-.8-2.7-1.4-3.9-1.4-2.1.1-3.3 1.1-3.3 2.4 0 1.7 1.8 2.4 3.6 3.2 2.6 1 5.5 2.3 5.5 6.3 0 3.5-3.1 6-7.4 6-2.5 0-4.6-.6-6.7-1.7 0-.1 1.5-2.8 1.5-2.8 1.7.9 3.3 1.5 4.7 1.5 2.3.1 3.8-1.1 3.8-2.7zM162 30.5c0-1.9-1.9-2.8-3.8-3.6-1.3-.6-2.4-1-3.5-2s-1.7-2.3-1.7-4c0-3.3 2.6-5.4 6.7-5.4 2.9 0 4.9 1 5.9 1.7 0 .1-1.4 2.4-1.4 2.5-1.2-.8-2.7-1.4-3.9-1.4-2.1.1-3.3 1.1-3.3 2.4 0 1.7 1.8 2.4 3.6 3.2 2.6 1 5.5 2.3 5.5 6.3 0 3.5-3.1 6-7.4 6-2.5 0-4.6-.6-6.7-1.7 0-.1 1.5-2.8 1.5-2.8 1.7.9 3.3 1.5 4.7 1.5 2.3.1 3.8-1.1 3.8-2.7z"/></g><g><path class="st1" d="M131.1 44.7l-.8 1.9h-.8l3.1-7.1 3.1 7.1h-.8l-.8-1.9h-3zm1.5-3.4l-1.2 2.7h2.3l-1.1-2.7zM136.1 44.5c0-1.2 1-2.2 2.2-2.2s2.2 1 2.2 2.2-1 2.2-2.2 2.2-2.2-1-2.2-2.2zm.7 0c0 .9.6 1.6 1.5 1.6s1.5-.7 1.5-1.6c0-.9-.6-1.6-1.5-1.6s-1.5.7-1.5 1.6zM142.4 46.6h-.7V43h-.4v-.7h.4v-1.5h.7v1.5h.8v.7h-.8v3.6zM144.2 44.6c0 .8.6 1.4 1.4 1.4.6 0 1-.4 1.3-.9l.6.4c-.4.8-1.1 1.2-2 1.2-1.3 0-2.1-1-2.1-2.2 0-1.3.7-2.3 2.1-2.3 1.4 0 2.1 1.1 2 2.4h-3.3zm2.6-.6c-.1-.6-.6-1.1-1.2-1.1s-1.2.5-1.3 1.1h2.5zM152.5 46.6h-.7V46c-.4.5-.9.7-1.5.7-1.2 0-2-1.1-2-2.2 0-1.2.8-2.2 2-2.2.6 0 1.1.3 1.4.7v-.6h.7v4.2zm-3.5-2.2c0 .8.5 1.6 1.4 1.6.9 0 1.4-.7 1.4-1.6 0-.8-.5-1.5-1.4-1.5-.9 0-1.4.7-1.4 1.5zM154.6 42.8c.3-.3.5-.6 1-.6.2 0 .4.1.6.2l-.3.7c-.1-.1-.2-.2-.4-.2-.8 0-.8 1-.8 1.6v2.1h-.7v-4.2h.7v.4zM156.6 44.5c0-1.2 1-2.2 2.2-2.2 1.2 0 2.2 1 2.2 2.2s-1 2.2-2.2 2.2c-1.2 0-2.2-1-2.2-2.2zm.8 0c0 .9.6 1.6 1.5 1.6s1.5-.7 1.5-1.6c0-.9-.6-1.6-1.5-1.6s-1.5.7-1.5 1.6zM166 46.6h-.7V46c-.4.5-.9.7-1.5.7-1.2 0-2-1.1-2-2.2 0-1.2.8-2.2 2-2.2.6 0 1.1.3 1.5.7v-.6h.7v4.2zm-3.5-2.2c0 .8.5 1.6 1.4 1.6.9 0 1.4-.7 1.4-1.6 0-.8-.5-1.5-1.4-1.5-.8 0-1.4.7-1.4 1.5z"/></g></svg>