<?xml version="1.0" encoding="UTF-8" standalone="no"?>
<!-- Generator: Adobe Illustrator 24.2.0, SVG Export Plug-In . SVG Version: 6.00 Build 0)  -->

<svg
   xmlns:ns="&amp;ns_sfw;"
   xmlns:dc="http://purl.org/dc/elements/1.1/"
   xmlns:cc="http://creativecommons.org/ns#"
   xmlns:rdf="http://www.w3.org/1999/02/22-rdf-syntax-ns#"
   xmlns:svg="http://www.w3.org/2000/svg"
   xmlns="http://www.w3.org/2000/svg"
   xmlns:sodipodi="http://sodipodi.sourceforge.net/DTD/sodipodi-0.dtd"
   xmlns:inkscape="http://www.inkscape.org/namespaces/inkscape"
   version="1.1"
   id="Logo_Artwork"
   x="0px"
   y="0px"
   viewBox="0 0 160.8 36.3"
   xml:space="preserve"
   sodipodi:docname="toolbar-logo.svg"
   width="160.8"
   height="36.299999"
   inkscape:version="0.92.5 (2060ec1f9f, 2020-04-08)"><defs
   id="defs359">
	
	
</defs><sodipodi:namedview
   pagecolor="#ffffff"
   bordercolor="#666666"
   borderopacity="1"
   objecttolerance="10"
   gridtolerance="10"
   guidetolerance="10"
   inkscape:pageopacity="0"
   inkscape:pageshadow="2"
   inkscape:window-width="1920"
   inkscape:window-height="1015"
   id="namedview357"
   showgrid="false"
   fit-margin-top="0"
   fit-margin-left="0"
   fit-margin-right="0"
   fit-margin-bottom="0"
   inkscape:zoom="1.5473568"
   inkscape:cx="-7.8149499"
   inkscape:cy="-1.7697532"
   inkscape:window-x="0"
   inkscape:window-y="0"
   inkscape:window-maximized="1"
   inkscape:current-layer="Logo_Artwork" />
<style
   type="text/css"
   id="style2">
	.st0{fill:none;}
	.st1{fill:#ffffff;}
	.st2{fill-rule:evenodd;clip-rule:evenodd;fill:#ffffff;}
</style>
<metadata
   id="metadata4">
	<ns:sfw>
		<ns:slices />
		<ns:sliceSourceBounds
   bottomLeftOrigin="true"
   height="16383"
   width="181.6"
   x="0"
   y="-8221" />
	</ns:sfw>
<rdf:RDF><cc:Work
     rdf:about=""><dc:format>image/svg+xml</dc:format><dc:type
       rdf:resource="http://purl.org/dc/dcmitype/StillImage" /><dc:title></dc:title></cc:Work></rdf:RDF></metadata>


<g
   transform="translate(-10.4,-10.4)"
   id="g334"><g
     id="g306"><g
       id="g280"><line
         style="fill:#ffffff"
         id="line8"
         y2="28.299999"
         x2="27.6"
         y1="28.299999"
         x1="27.6"
         class="st1" /><path
         style="fill:#ffffff"
         inkscape:connector-curvature="0"
         id="path10"
         d="M 24.1,28.3"
         class="st1" /><path
         style="fill:#ffffff"
         inkscape:connector-curvature="0"
         id="path12"
         d="m 27.7,40.5 c 0,0 -0.8,-0.6 -0.6,-0.9"
         class="st1" /><path
         style="fill:#ffffff"
         inkscape:connector-curvature="0"
         id="path14"
         d="M 24.9,42.2 C 24.1,41.9 23.1,41.8 22.6,42 l 0.1,0.3 0.4,0.5 h 0.4 c 0,0 0.3,0 0.6,0.1 0,0.1 0.7,-0.7 0.8,-0.7 z"
         class="st1" /><g
         id="g18"><path
           style="fill:#ffffff"
           inkscape:connector-curvature="0"
           id="path16"
           d="m 27.3,10.5 c 0,0 -0.2,0.1 -0.2,0.2 0,0.1 -0.1,0.2 -0.1,0.3 0,0.1 0,0.2 -0.1,0.3 0,0 -0.1,0.1 -0.2,0.2 v 0 c 0.5,0 1,0.1 1.5,0.1 v 0 c 0.1,-0.1 0.2,-0.2 0.2,-0.2 0.1,-0.1 0.1,-0.2 0.1,-0.3 0,-0.1 0.1,-0.2 0.2,-0.3 0.1,-0.1 0.2,-0.2 0.2,-0.2 v 0 c -0.5,0 -1,-0.1 -1.6,-0.1 z"
           class="st1" /></g><g
         id="g22"><path
           style="fill:#ffffff"
           inkscape:connector-curvature="0"
           id="path20"
           d="m 29.3,10.8 c 0,0 -0.2,0.1 -0.2,0.1 -0.1,0.1 -0.1,0.2 -0.2,0.3 0,0.1 -0.1,0.2 -0.1,0.3 0,0 -0.1,0.1 -0.2,0.2 v 0 c 0.5,0.1 1,0.2 1.5,0.3 v 0 c 0.1,0 0.3,-0.1 0.3,-0.1 0.1,-0.1 0.1,-0.2 0.2,-0.3 0,-0.1 0.1,-0.2 0.2,-0.3 0.1,-0.1 0.2,-0.1 0.2,-0.1 v 0 C 30.4,11 29.9,10.9 29.3,10.8 Z"
           class="st1" /></g><g
         id="g26"><path
           style="fill:#ffffff"
           inkscape:connector-curvature="0"
           id="path24"
           d="m 31.3,11.4 c 0,0 -0.2,0 -0.2,0.1 -0.1,0.1 -0.1,0.2 -0.2,0.3 0,0.1 -0.1,0.2 -0.2,0.3 0,0 -0.1,0.1 -0.3,0.1 v 0 c 0.5,0.2 0.9,0.3 1.4,0.5 v 0 c 0.1,0 0.3,-0.1 0.3,-0.1 0.1,-0.1 0.1,-0.2 0.2,-0.2 0.1,-0.1 0.2,-0.2 0.2,-0.2 0.1,-0.1 0.3,-0.1 0.3,-0.1 v 0 c -0.5,-0.4 -1,-0.6 -1.5,-0.7 z"
           class="st1" /></g><g
         id="g30"><path
           style="fill:#ffffff"
           inkscape:connector-curvature="0"
           id="path28"
           d="m 33.2,12.2 c 0,0 -0.2,0 -0.3,0.1 -0.1,0 -0.2,0.2 -0.2,0.2 -0.1,0.1 -0.1,0.2 -0.2,0.2 0,0 -0.1,0.1 -0.3,0.1 v 0 c 0.5,0.2 0.9,0.5 1.3,0.7 v 0 c 0.1,0 0.3,-0.1 0.3,-0.1 0.1,-0.1 0.2,-0.2 0.2,-0.2 0.1,-0.1 0.2,-0.2 0.3,-0.2 0.1,0 0.3,-0.1 0.3,-0.1 v 0 c -0.5,-0.2 -1,-0.5 -1.4,-0.7 z"
           class="st1" /></g><g
         id="g34"><path
           style="fill:#ffffff"
           inkscape:connector-curvature="0"
           id="path32"
           d="m 34.9,13.2 c 0,0 -0.2,0 -0.3,0 -0.1,0 -0.2,0.1 -0.3,0.2 -0.1,0.1 -0.1,0.2 -0.2,0.2 0,0 -0.1,0.1 -0.3,0.1 v 0 c 0.4,0.3 0.8,0.6 1.2,0.9 v 0 c 0.1,0 0.3,0 0.3,0 0.1,0 0.2,-0.1 0.3,-0.2 0.1,-0.1 0.2,-0.1 0.3,-0.2 0.1,0 0.3,0 0.3,0 v 0 c -0.4,-0.3 -0.9,-0.7 -1.3,-1 z"
           class="st1" /></g><g
         id="g38"><path
           style="fill:#ffffff"
           inkscape:connector-curvature="0"
           id="path36"
           d="m 36.5,14.5 c 0,0 -0.2,0 -0.3,0 -0.1,0 -0.2,0.1 -0.3,0.2 -0.1,0.1 -0.1,0.1 -0.3,0.2 0,0 -0.2,0 -0.3,0 v 0 c 0.4,0.3 0.8,0.7 1.1,1 v 0 c 0.1,0 0.3,0 0.3,0 0.1,0 0.2,-0.1 0.3,-0.1 0.1,0 0.2,-0.1 0.3,-0.1 0.1,0 0.3,0 0.3,0 v 0 c -0.3,-0.5 -0.7,-0.8 -1.1,-1.2 z"
           class="st1" /></g><g
         id="g42"><path
           style="fill:#ffffff"
           inkscape:connector-curvature="0"
           id="path40"
           d="m 37.9,16 c 0,0 -0.2,0 -0.3,0 -0.1,0 -0.2,0.1 -0.3,0.1 -0.1,0 -0.2,0.1 -0.3,0.1 0,0 -0.2,0 -0.3,0 v 0 c 0.3,0.4 0.7,0.8 1,1.2 v 0 c 0.1,0 0.3,0 0.3,0 0.1,0 0.2,-0.1 0.3,-0.1 0.1,0 0.2,-0.1 0.3,-0.1 0.1,0 0.3,0 0.3,0 v 0 c -0.3,-0.4 -0.7,-0.8 -1,-1.2 z"
           class="st1" /></g><g
         id="g46"><path
           style="fill:#ffffff"
           inkscape:connector-curvature="0"
           id="path44"
           d="m 39.1,17.6 c 0,0 -0.2,-0.1 -0.3,-0.1 -0.1,0 -0.2,0 -0.3,0.1 -0.1,0 -0.2,0.1 -0.3,0.1 0,0 -0.2,0 -0.3,-0.1 v 0 c 0.3,0.4 0.6,0.8 0.8,1.3 v 0 C 38.8,19 39,19 39,19 c 0.1,0 0.2,0 0.3,-0.1 0.1,0 0.2,-0.1 0.3,-0.1 0.1,0 0.3,0.1 0.3,0.1 v 0 c -0.3,-0.4 -0.5,-0.8 -0.8,-1.3 z"
           class="st1" /></g><g
         id="g50"><path
           style="fill:#ffffff"
           inkscape:connector-curvature="0"
           id="path48"
           d="m 40.1,19.4 c 0,0 -0.2,-0.1 -0.2,-0.1 -0.1,0 -0.2,0 -0.3,0 -0.1,0 -0.2,0.1 -0.3,0.1 0,0 -0.2,0 -0.3,-0.1 v 0 c 0.2,0.4 0.4,0.9 0.6,1.4 v 0 c 0.1,0.1 0.3,0.1 0.3,0.1 0.1,0 0.2,0 0.3,0 0.1,0 0.3,0 0.3,0 0.1,0 0.2,0.1 0.2,0.1 v 0 c -0.2,-0.5 -0.4,-1 -0.6,-1.5 z"
           class="st1" /></g><g
         id="g54"><path
           style="fill:#ffffff"
           inkscape:connector-curvature="0"
           id="path52"
           d="m 40.8,21.3 c 0,0 -0.1,-0.1 -0.2,-0.1 -0.1,0 -0.2,0 -0.3,0 -0.1,0 -0.2,0 -0.3,0 0,0 -0.1,0 -0.3,-0.1 v 0 c 0.2,0.5 0.3,1 0.4,1.4 v 0 c 0.1,0.1 0.3,0.2 0.3,0.2 0.1,0 0.2,0 0.3,0 0.1,0 0.3,0 0.3,0 0.1,0 0.2,0.1 0.2,0.1 v 0 c -0.1,-0.5 -0.2,-1 -0.4,-1.5 z"
           class="st1" /></g><g
         id="g58"><path
           style="fill:#ffffff"
           inkscape:connector-curvature="0"
           id="path56"
           d="m 41.3,23.3 c 0,0 -0.1,-0.1 -0.2,-0.2 -0.1,0 -0.2,0 -0.3,0 -0.1,0 -0.2,0 -0.3,0 0,0 -0.1,-0.1 -0.2,-0.2 v 0 c 0.1,0.5 0.2,1 0.2,1.5 v 0 c 0.1,0.1 0.2,0.2 0.2,0.2 0.1,0.1 0.2,0 0.3,0.1 0.1,0 0.3,0 0.3,0.1 0.1,0 0.2,0.2 0.2,0.2 v 0 c 0,-0.7 -0.1,-1.2 -0.2,-1.7 z"
           class="st1" /></g><g
         id="g62"><path
           style="fill:#ffffff"
           inkscape:connector-curvature="0"
           id="path60"
           d="m 41.5,25.3 c 0,0 -0.1,-0.1 -0.2,-0.2 -0.1,0 -0.2,-0.1 -0.3,-0.1 -0.1,0 -0.2,0 -0.3,-0.1 0,0 -0.1,-0.1 -0.2,-0.2 v 0 c 0,0.5 0.1,1 0,1.5 v 0 c 0.1,0.1 0.2,0.2 0.2,0.2 0.1,0.1 0.2,0.1 0.3,0.1 0.1,0 0.2,0.1 0.3,0.1 0.1,0.1 0.2,0.2 0.2,0.2 v 0 c 0,-0.4 0,-1 0,-1.5 z"
           class="st1" /></g><g
         id="g66"><path
           style="fill:#ffffff"
           inkscape:connector-curvature="0"
           id="path64"
           d="m 41.5,27.3 c 0,0 -0.1,-0.2 -0.2,-0.2 -0.1,0 -0.2,-0.1 -0.3,-0.1 -0.1,0 -0.2,0 -0.3,-0.1 0,0 -0.1,-0.1 -0.2,-0.2 v 0 c 0,0.5 -0.1,1 -0.2,1.5 v 0 c 0.1,0.1 0.2,0.2 0.2,0.2 0.1,0.1 0.2,0.1 0.3,0.1 0.1,0 0.2,0.1 0.3,0.2 0.1,0.1 0.2,0.2 0.2,0.2 v 0 c 0.1,-0.5 0.1,-1 0.2,-1.6 z"
           class="st1" /></g><g
         id="g70"><path
           style="fill:#ffffff"
           inkscape:connector-curvature="0"
           id="path68"
           d="m 41.2,29.3 c 0,0 -0.1,-0.2 -0.1,-0.2 C 41,29 40.9,29 40.8,28.9 c -0.1,0 -0.2,-0.1 -0.3,-0.1 0,0 -0.1,-0.1 -0.2,-0.2 v 0 c -0.1,0.5 -0.2,1 -0.3,1.5 v 0 c 0,0.1 0.1,0.3 0.1,0.3 0.1,0.1 0.2,0.1 0.3,0.2 0.1,0.1 0.2,0.1 0.3,0.2 0.1,0.1 0.1,0.2 0.1,0.2 v 0 c 0.1,-0.6 0.2,-1.1 0.4,-1.7 z"
           class="st1" /></g><g
         id="g74"><path
           style="fill:#ffffff"
           inkscape:connector-curvature="0"
           id="path72"
           d="m 40.6,31.3 c 0,0 0,-0.2 -0.1,-0.2 0,-0.1 -0.2,-0.2 -0.2,-0.2 -0.1,-0.1 -0.2,-0.1 -0.2,-0.2 0,0 -0.1,-0.1 -0.1,-0.3 v 0 c -0.2,0.5 -0.4,0.9 -0.6,1.4 v 0 c 0,0.1 0.1,0.3 0.1,0.3 0.1,0.1 0.2,0.2 0.2,0.2 0.1,0.1 0.2,0.2 0.2,0.2 0,0.1 0.1,0.3 0.1,0.3 v 0 c 0.2,-0.5 0.4,-1 0.6,-1.5 z"
           class="st1" /></g><g
         id="g78"><path
           style="fill:#ffffff"
           inkscape:connector-curvature="0"
           id="path76"
           d="m 39.8,33.2 c 0,0 0,-0.2 -0.1,-0.3 0,-0.1 -0.2,-0.2 -0.2,-0.2 -0.1,-0.1 -0.2,-0.1 -0.2,-0.2 0,0 -0.1,-0.1 -0.1,-0.3 v 0 c -0.2,0.5 -0.5,0.9 -0.7,1.3 v 0 c 0,0.1 0.1,0.3 0.1,0.3 0.1,0.1 0.2,0.2 0.2,0.2 0.1,0.1 0.2,0.2 0.2,0.3 0,0.1 0.1,0.3 0.1,0.3 v 0 c 0.2,-0.5 0.4,-1 0.7,-1.4 z"
           class="st1" /></g><g
         id="g82"><path
           style="fill:#ffffff"
           inkscape:connector-curvature="0"
           id="path80"
           d="m 38.7,34.9 c 0,0 0,-0.2 0,-0.3 0,-0.1 -0.1,-0.2 -0.2,-0.3 -0.1,-0.1 -0.2,-0.1 -0.2,-0.2 0,0 -0.1,-0.1 -0.1,-0.3 v 0 c -0.3,0.4 -0.6,0.8 -0.9,1.2 v 0 c 0,0.1 0,0.3 0,0.3 0,0.1 0.1,0.2 0.2,0.3 0.1,0.1 0.1,0.2 0.2,0.3 0,0.1 0,0.3 0,0.3 v 0 c 0.4,-0.4 0.7,-0.9 1,-1.3 z"
           class="st1" /></g><g
         id="g86"><path
           style="fill:#ffffff"
           inkscape:connector-curvature="0"
           id="path84"
           d="m 37.4,36.5 c 0,0 0,-0.2 0,-0.3 0,-0.1 -0.1,-0.2 -0.2,-0.3 -0.1,-0.1 -0.1,-0.1 -0.2,-0.3 0,0 0,-0.2 0,-0.3 v 0 c -0.3,0.4 -0.7,0.8 -1,1.1 v 0 c 0,0.1 0,0.3 0,0.3 0,0.1 0.1,0.2 0.1,0.3 0,0.1 0.1,0.2 0.1,0.3 0,0.1 0,0.3 0,0.3 v 0 c 0.5,-0.4 0.9,-0.7 1.2,-1.1 z"
           class="st1" /></g><g
         id="g90"><path
           style="fill:#ffffff"
           inkscape:connector-curvature="0"
           id="path88"
           d="m 36,37.9 c 0,0 0,-0.2 0,-0.3 0,-0.1 -0.1,-0.2 -0.1,-0.3 0,-0.1 -0.1,-0.2 -0.1,-0.3 0,0 0,-0.2 0,-0.3 v 0 C 35.4,37 35,37.4 34.6,37.6 v 0 c 0,0.1 0,0.3 0,0.3 0,0.1 0.1,0.2 0.1,0.3 0,0.1 0.1,0.2 0.1,0.3 0,0.1 -0.1,0.3 -0.1,0.3 v 0 c 0.4,-0.2 0.9,-0.6 1.3,-0.9 z"
           class="st1" /></g><g
         id="g94"><path
           style="fill:#ffffff"
           inkscape:connector-curvature="0"
           id="path92"
           d="m 34.3,39.1 c 0,0 0.1,-0.2 0.1,-0.3 0,-0.1 0,-0.2 -0.1,-0.3 0,-0.1 -0.1,-0.2 -0.1,-0.3 0,0 0,-0.2 0.1,-0.3 v 0 c -0.4,0.3 -0.8,0.6 -1.3,0.8 v 0 c -0.1,0.1 -0.1,0.3 -0.1,0.3 0,0.1 0,0.2 0.1,0.3 0,0.1 0.1,0.2 0.1,0.3 0,0.1 -0.1,0.3 -0.1,0.3 v 0 c 0.4,-0.3 0.9,-0.5 1.3,-0.8 z"
           class="st1" /></g><g
         id="g98"><path
           style="fill:#ffffff"
           inkscape:connector-curvature="0"
           id="path96"
           d="m 32.5,40.1 c 0,0 0.1,-0.2 0.1,-0.2 0,-0.1 0,-0.2 0,-0.3 0,-0.1 -0.1,-0.2 -0.1,-0.3 0,0 0,-0.2 0.1,-0.3 v 0 c -0.5,0.2 -0.9,0.4 -1.4,0.6 v 0 c -0.1,0.1 -0.1,0.3 -0.1,0.3 0,0.1 0,0.2 0,0.3 0,0.1 0,0.3 0,0.3 0,0.1 -0.1,0.3 -0.1,0.3 v 0 c 0.5,-0.3 1,-0.5 1.5,-0.7 z"
           class="st1" /></g><g
         id="g102"><path
           style="fill:#ffffff"
           inkscape:connector-curvature="0"
           id="path100"
           d="m 30.5,40.8 c 0,0 0,-0.1 0.1,-0.2 0,-0.1 0,-0.2 0,-0.3 0,-0.1 -0.1,-0.2 0,-0.3 0,0 0.1,-0.3 0.2,-0.4 v 0 c -0.5,0.2 -1.2,0.4 -1.6,0.7 v 0 c -0.1,0 -0.2,0.1 -0.2,0.1 0,0.1 -0.1,0.2 -0.1,0.3 0,0.1 0,0.2 0,0.3 0,0.2 -0.2,0.5 -0.2,0.5 v 0 c 0.5,-0.1 1.2,-0.4 1.6,-0.6 z"
           class="st1" /></g><g
         id="g106"><path
           style="fill:#ffffff"
           inkscape:connector-curvature="0"
           id="path104"
           d="m 20.6,40.6 c 0,0 0.2,0 0.2,-0.1 0.1,-0.1 0.2,-0.2 0.2,-0.3 0,-0.1 0.1,-0.2 0.2,-0.3 0,0 0.1,-0.1 0.3,-0.1 v 0 C 21,39.6 20.6,39.5 20.1,39.3 v 0 c -0.1,0 -0.3,0.1 -0.3,0.1 -0.1,0.1 -0.1,0.2 -0.2,0.2 -0.1,0.1 -0.2,0.2 -0.2,0.2 -0.1,0.1 -0.3,0.1 -0.3,0.1 v 0 c 0.5,0.3 1,0.5 1.5,0.7 z"
           class="st1" /></g><g
         id="g110"><path
           style="fill:#ffffff"
           inkscape:connector-curvature="0"
           id="path108"
           d="m 18.8,39.8 c 0,0 0.2,0 0.3,-0.1 0.1,0 0.2,-0.2 0.2,-0.2 0.1,-0.1 0.1,-0.2 0.2,-0.2 0,0 0.1,-0.1 0.3,-0.1 v 0 C 19.3,39 18.9,38.8 18.5,38.5 v 0 c -0.1,0 -0.3,0.1 -0.3,0.1 -0.1,0.1 -0.2,0.2 -0.2,0.2 -0.1,0.1 -0.2,0.2 -0.3,0.2 -0.1,0 -0.3,0.1 -0.3,0.1 v 0 c 0.4,0.2 0.9,0.4 1.4,0.7 z"
           class="st1" /></g><g
         id="g114"><path
           style="fill:#ffffff"
           inkscape:connector-curvature="0"
           id="path112"
           d="m 17,38.7 c 0,0 0.2,0 0.3,0 0.1,0 0.2,-0.1 0.3,-0.2 0.1,-0.1 0.1,-0.2 0.2,-0.2 0,0 0.1,-0.1 0.3,-0.1 v 0 c -0.4,-0.3 -0.8,-0.6 -1.2,-0.9 v 0 c -0.1,0 -0.3,0 -0.3,0 -0.1,0 -0.2,0.1 -0.3,0.2 -0.1,0.1 -0.2,0.1 -0.3,0.2 -0.1,0 -0.3,0 -0.3,0 v 0 c 0.5,0.4 0.9,0.7 1.3,1 z"
           class="st1" /></g><g
         id="g118"><path
           style="fill:#ffffff"
           inkscape:connector-curvature="0"
           id="path116"
           d="m 15.4,37.4 c 0,0 0.2,0 0.3,0 0.1,0 0.2,-0.1 0.3,-0.2 0.1,-0.1 0.1,-0.1 0.3,-0.2 0,0 0.2,0 0.3,0 v 0 c -0.4,-0.3 -0.7,-0.7 -1.1,-1 v 0 c -0.1,0 -0.3,0 -0.3,0 -0.1,0 -0.2,0.1 -0.3,0.1 -0.1,0 -0.2,0.1 -0.3,0.1 -0.1,0 -0.3,0 -0.3,0 v 0 c 0.4,0.5 0.7,0.9 1.1,1.2 z"
           class="st1" /></g><g
         id="g122"><path
           style="fill:#ffffff"
           inkscape:connector-curvature="0"
           id="path120"
           d="m 14,36 c 0,0 0.2,0 0.3,0 0.1,0 0.2,-0.1 0.3,-0.1 0.1,0 0.2,-0.1 0.3,-0.1 0,0 0.2,0 0.3,0 v 0 c -0.3,-0.4 -0.7,-0.8 -1,-1.2 v 0 c -0.1,0 -0.3,0 -0.3,0 -0.1,0 -0.2,0.1 -0.3,0.1 -0.1,0 -0.2,0.1 -0.3,0.1 -0.1,0 -0.3,-0.1 -0.3,-0.1 v 0 c 0.4,0.4 0.7,0.8 1,1.3 z"
           class="st1" /></g><g
         id="g126"><path
           style="fill:#ffffff"
           inkscape:connector-curvature="0"
           id="path124"
           d="m 12.8,34.3 c 0,0 0.2,0.1 0.3,0.1 0.1,0 0.2,-0.1 0.3,-0.1 0.1,0 0.2,-0.1 0.3,-0.1 0,0 0.2,0 0.3,0.1 v 0 C 13.7,33.9 13.4,33.5 13.2,33 v 0 c -0.1,-0.1 -0.3,-0.1 -0.3,-0.1 -0.1,0 -0.2,0 -0.3,0.1 -0.1,0 -0.2,0.1 -0.3,0.1 C 12.2,33.1 12,33 12,33 v 0 c 0.3,0.4 0.5,0.9 0.8,1.3 z"
           class="st1" /></g><g
         id="g130"><path
           style="fill:#ffffff"
           inkscape:connector-curvature="0"
           id="path128"
           d="m 11.8,32.5 c 0,0 0.2,0.1 0.3,0.1 0.1,0 0.2,0 0.3,0 0.1,0 0.2,-0.1 0.3,-0.1 0,0 0.2,0 0.3,0.1 v 0 c -0.2,-0.4 -0.4,-0.9 -0.6,-1.4 v 0 c -0.1,-0.1 -0.3,-0.1 -0.3,-0.1 -0.1,0 -0.2,0 -0.3,0 -0.1,0 -0.2,0 -0.3,0 -0.1,0 -0.2,-0.1 -0.2,-0.1 v 0 c 0.1,0.6 0.3,1 0.5,1.5 z"
           class="st1" /></g><g
         id="g134"><path
           style="fill:#ffffff"
           inkscape:connector-curvature="0"
           id="path132"
           d="m 11.1,30.6 c 0,0 0.1,0.1 0.2,0.1 0.1,0 0.2,0 0.3,0 0.1,0 0.2,0 0.3,0 0,0 0.1,0 0.3,0.1 v 0 c -0.2,-0.5 -0.3,-1 -0.4,-1.4 v 0 c -0.1,-0.1 -0.2,-0.2 -0.2,-0.2 -0.1,0 -0.2,0 -0.3,0 -0.1,0 -0.3,0 -0.3,0 -0.1,0 -0.2,-0.1 -0.2,-0.1 v 0 c 0,0.5 0.1,1 0.3,1.5 z"
           class="st1" /></g><g
         id="g138"><path
           style="fill:#ffffff"
           inkscape:connector-curvature="0"
           id="path136"
           d="m 10.6,28.7 c 0,0 0.1,0.1 0.2,0.2 0.1,0 0.2,0 0.3,0 0.1,0 0.2,0 0.3,0 0,0 0.1,0.1 0.2,0.2 v 0 c -0.1,-0.5 -0.2,-1 -0.2,-1.5 v 0 c -0.1,-0.1 -0.2,-0.2 -0.2,-0.2 -0.1,-0.1 -0.2,0 -0.3,-0.1 -0.1,0 -0.3,0 -0.3,-0.1 -0.1,0 -0.2,-0.2 -0.2,-0.2 v 0 c 0.1,0.6 0.1,1.1 0.2,1.7 z"
           class="st1" /></g><g
         id="g142"><path
           style="fill:#ffffff"
           inkscape:connector-curvature="0"
           id="path140"
           d="m 10.4,26.6 c 0,0 0.1,0.1 0.2,0.2 0.1,0 0.2,0.1 0.3,0.1 0.1,0 0.2,0 0.3,0.1 0,0 0.1,0.1 0.2,0.2 v 0 c 0,-0.5 -0.1,-1 0,-1.5 v 0 c -0.1,-0.1 -0.2,-0.2 -0.2,-0.2 -0.1,-0.1 -0.2,-0.1 -0.3,-0.1 -0.1,0 -0.2,-0.1 -0.3,-0.1 -0.1,-0.1 -0.2,-0.2 -0.2,-0.2 v 0 c 0,0.5 0,1 0,1.5 z"
           class="st1" /></g><g
         id="g146"><path
           style="fill:#ffffff"
           inkscape:connector-curvature="0"
           id="path144"
           d="m 10.5,24.6 c 0,0 0.1,0.2 0.2,0.2 0.1,0 0.2,0.1 0.3,0.1 0.1,0 0.2,0 0.3,0.1 0,0 0.1,0.1 0.2,0.2 v 0 c 0,-0.5 0.1,-1 0.1,-1.5 v 0 C 11.5,23.6 11.4,23.5 11.4,23.5 11.3,23.4 11.2,23.4 11.1,23.4 11,23.4 10.9,23.3 10.8,23.2 10.7,23.1 10.7,23 10.7,23 v 0 c -0.1,0.5 -0.2,1.1 -0.2,1.6 z"
           class="st1" /></g><g
         id="g150"><path
           style="fill:#ffffff"
           inkscape:connector-curvature="0"
           id="path148"
           d="m 10.8,22.6 c 0,0 0.1,0.2 0.1,0.2 0.1,0.1 0.2,0.1 0.3,0.2 0.1,0 0.2,0.1 0.3,0.1 0,0 0.1,0.1 0.2,0.2 v 0 c 0.1,-0.5 0.2,-1 0.3,-1.5 v 0 C 12,21.7 11.9,21.5 11.9,21.5 11.8,21.4 11.7,21.4 11.6,21.3 11.5,21.2 11.4,21.2 11.3,21.1 11.2,21 11.2,20.9 11.2,20.9 v 0 c -0.2,0.7 -0.3,1.2 -0.4,1.7 z"
           class="st1" /></g><g
         id="g154"><path
           style="fill:#ffffff"
           inkscape:connector-curvature="0"
           id="path152"
           d="m 11.3,20.6 c 0,0 0,0.2 0.1,0.2 0.1,0.1 0.2,0.1 0.3,0.2 0.1,0 0.2,0.1 0.3,0.2 0,0 0.1,0.1 0.1,0.3 v 0 c 0.2,-0.5 0.3,-0.9 0.5,-1.4 v 0 C 12.6,20 12.5,19.8 12.5,19.8 12.4,19.7 12.3,19.6 12.3,19.6 12.2,19.5 12.1,19.4 12.1,19.4 12,19.3 12,19.1 12,19.1 v 0 c -0.3,0.5 -0.5,1 -0.7,1.5 z"
           class="st1" /></g><g
         id="g158"><path
           style="fill:#ffffff"
           inkscape:connector-curvature="0"
           id="path156"
           d="m 12.2,18.8 c 0,0 0,0.2 0.1,0.3 0,0.1 0.2,0.2 0.2,0.2 0.1,0.1 0.2,0.1 0.2,0.2 0,0 0.1,0.1 0.1,0.3 v 0 c 0.2,-0.5 0.5,-0.9 0.7,-1.3 v 0 c 0,-0.1 -0.1,-0.3 -0.1,-0.3 C 13.3,18.1 13.2,18 13.2,18 13.1,17.9 13,17.8 13,17.7 13,17.6 12.9,17.4 12.9,17.4 v 0 c -0.2,0.4 -0.5,0.9 -0.7,1.4 z"
           class="st1" /></g><g
         id="g162"><path
           style="fill:#ffffff"
           inkscape:connector-curvature="0"
           id="path160"
           d="m 13.2,17 c 0,0 0,0.2 0,0.3 0,0.1 0.1,0.2 0.2,0.3 0.1,0.1 0.2,0.1 0.2,0.2 0,0 0.1,0.1 0.1,0.3 v 0 c 0.3,-0.4 0.6,-0.8 0.9,-1.2 v 0 c 0,-0.1 0,-0.3 0,-0.3 0,-0.1 -0.1,-0.2 -0.2,-0.3 -0.1,-0.1 -0.1,-0.2 -0.2,-0.3 0,-0.1 0,-0.3 0,-0.3 v 0 c -0.4,0.5 -0.7,0.9 -1,1.3 z"
           class="st1" /></g><g
         id="g166"><path
           style="fill:#ffffff"
           inkscape:connector-curvature="0"
           id="path164"
           d="m 14.5,15.5 c 0,0 0,0.2 0,0.3 0,0.1 0.1,0.2 0.2,0.3 0.1,0.1 0.1,0.1 0.2,0.3 0,0 0,0.1 0,0.3 v 0 c 0.3,-0.4 0.7,-0.8 1,-1.1 v 0 c 0,-0.1 0,-0.3 0,-0.3 0,-0.1 -0.1,-0.2 -0.1,-0.3 0,-0.1 -0.1,-0.2 -0.1,-0.3 0,-0.1 0,-0.3 0,-0.3 v 0 c -0.5,0.3 -0.9,0.6 -1.2,1.1 z"
           class="st1" /></g><g
         id="g170"><path
           style="fill:#ffffff"
           inkscape:connector-curvature="0"
           id="path168"
           d="m 16,14 c 0,0 0,0.2 0,0.3 0,0.1 0.1,0.2 0.1,0.3 0,0.1 0.1,0.2 0.1,0.3 0,0 0,0.2 0,0.3 v 0 c 0.4,-0.3 0.8,-0.7 1.2,-0.9 v 0 c 0,-0.1 0,-0.3 0,-0.3 0,-0.1 -0.1,-0.2 -0.1,-0.3 0,-0.1 -0.1,-0.2 -0.1,-0.3 0,-0.1 0.1,-0.3 0.1,-0.3 v 0 C 16.8,13.4 16.4,13.7 16,14 Z"
           class="st1" /></g><g
         id="g174"><path
           style="fill:#ffffff"
           inkscape:connector-curvature="0"
           id="path172"
           d="m 17.6,12.8 c 0,0 -0.1,0.2 -0.1,0.3 0,0.1 0,0.2 0.1,0.3 0,0.1 0.1,0.2 0.1,0.3 0,0 0,0.2 -0.1,0.3 v 0 c 0.4,-0.3 0.8,-0.5 1.3,-0.8 v 0 C 19,13.1 19,12.9 19,12.9 c 0,-0.1 0,-0.2 -0.1,-0.3 0,-0.1 -0.1,-0.2 -0.1,-0.3 0,-0.1 0.1,-0.3 0.1,-0.3 v 0 c -0.4,0.3 -0.9,0.5 -1.3,0.8 z"
           class="st1" /></g><g
         id="g178"><path
           style="fill:#ffffff"
           inkscape:connector-curvature="0"
           id="path176"
           d="m 19.4,11.9 c 0,0 -0.1,0.2 -0.1,0.3 0,0.1 0,0.2 0,0.3 0,0.1 0.1,0.2 0.1,0.3 0,0 0,0.2 -0.1,0.3 v 0 c 0.4,-0.2 0.9,-0.4 1.4,-0.6 v 0 c 0.1,-0.1 0.1,-0.3 0.1,-0.3 0,-0.1 0,-0.2 0,-0.3 0,-0.1 0,-0.2 0,-0.3 0,-0.1 0.1,-0.2 0.1,-0.2 v 0 c -0.5,0 -1,0.2 -1.5,0.5 z"
           class="st1" /></g><g
         id="g182"><path
           style="fill:#ffffff"
           inkscape:connector-curvature="0"
           id="path180"
           d="m 21.3,11.1 c 0,0 -0.1,0.1 -0.1,0.2 0,0.1 0,0.2 0,0.3 0,0.1 0,0.2 0,0.3 0,0 0,0.1 -0.1,0.3 v 0 c 0.5,-0.2 1,-0.3 1.4,-0.4 v 0 c 0.1,-0.1 0.2,-0.2 0.2,-0.2 0,-0.1 0,-0.2 0,-0.3 0,-0.1 0,-0.3 0,-0.3 0,-0.1 0.1,-0.2 0.1,-0.2 v 0 c -0.5,0 -1,0.2 -1.5,0.3 z"
           class="st1" /></g><g
         id="g186"><path
           style="fill:#ffffff"
           inkscape:connector-curvature="0"
           id="path184"
           d="m 23.3,10.6 c 0,0 -0.1,0.1 -0.2,0.2 0,0.1 0,0.2 0,0.3 0,0.1 0,0.2 0,0.3 0,0 -0.1,0.1 -0.2,0.2 v 0 c 0.5,-0.1 1,-0.2 1.5,-0.2 v 0 c 0.1,-0.1 0.2,-0.2 0.2,-0.2 0.1,-0.1 0,-0.2 0.1,-0.3 0,-0.1 0,-0.2 0.1,-0.3 0,-0.1 0.2,-0.2 0.2,-0.2 v 0 c -0.7,0.1 -1.2,0.1 -1.7,0.2 z"
           class="st1" /></g><g
         id="g190"><path
           style="fill:#ffffff"
           inkscape:connector-curvature="0"
           id="path188"
           d="m 25.3,10.4 c 0,0 -0.1,0.1 -0.2,0.2 0,0.1 -0.1,0.2 -0.1,0.3 0,0.1 0,0.2 -0.1,0.3 0,0 -0.1,0.1 -0.2,0.2 v 0 c 0.5,0 1,-0.1 1.5,0 v 0 c 0.1,-0.1 0.2,-0.2 0.2,-0.2 0.1,-0.1 0.1,-0.2 0.1,-0.3 0,-0.1 0.1,-0.2 0.1,-0.3 0.1,-0.1 0.2,-0.2 0.2,-0.2 v 0 c -0.5,0 -1,0 -1.5,0 z"
           class="st1" /></g><g
         id="g194"><path
           style="fill:#ffffff"
           inkscape:connector-curvature="0"
           id="path192"
           d="m 21.5,40.5 c 0,0 0.2,0.8 0.7,0.9 0.1,-0.3 0.6,-0.8 0.9,-1 l 0.1,-0.1 c -0.1,-0.7 0.2,-1.1 0.2,-1.1 l -0.3,0.1 c -0.7,0.2 -1.3,0.6 -1.6,1.2 z"
           class="st1" /></g><g
         id="g198"><path
           style="fill:#ffffff"
           inkscape:connector-curvature="0"
           id="path196"
           d="m 22.5,43.3 c 0.1,0 0.2,-0.1 0.3,-0.2 v 0 c -0.4,-0.3 -0.6,-0.8 -0.6,-1.3 -0.7,-0.1 -0.9,-0.9 -0.9,-0.9 v 0 c -0.1,0.3 -0.2,0.6 -0.2,0.9 0,0.5 0.1,1.1 0.4,1.5 v 0 c 0.1,0 0.6,0.1 1,0 z"
           class="st1" /></g><g
         id="g202"><path
           style="fill:#ffffff"
           inkscape:connector-curvature="0"
           id="path200"
           d="m 24,43.4 c -0.1,0 -0.2,0 -0.3,0 -0.2,0 -0.4,0 -0.6,-0.1 v 0 c -0.2,0.5 -1.2,0.4 -1.2,0.4 v 0 c 0.4,0.4 0.9,0.6 1.5,0.7 v 0 c 0,0 0.6,-0.1 0.6,-1 z"
           class="st1" /></g><g
         id="g206"><path
           style="fill:#ffffff"
           inkscape:connector-curvature="0"
           id="path204"
           d="m 24.4,43.4 c 0,0 0,0 0,0 l 0.5,0.1 c 0.9,0.2 1,0.4 1,0.4 v 0 c 0,0 -1,0.9 -1.9,0.7 v 0 c 0,-0.1 0.7,-0.5 0.4,-1.2 v 0"
           class="st1" /></g><g
         id="g210"><path
           style="fill:#ffffff"
           inkscape:connector-curvature="0"
           id="path208"
           d="M 27.3,43.2 C 26.6,42.7 26,42.6 25.5,42.4 v 0 l -1,0.7 1.1,0.4 c 0.3,0.1 0.4,0.3 0.9,0.5 0,0 1.1,-0.6 0.8,-0.8 z"
           class="st1" /></g><g
         id="g214"><path
           style="fill:#ffffff"
           inkscape:connector-curvature="0"
           id="path212"
           d="m 29.2,44.1 c -0.4,0.4 -1,0.4 -1,0.4 -0.4,0 -0.8,0 -1.3,-0.3 0,0 0.8,-0.6 0.8,-0.9 0.2,0.1 0.8,0.1 0.9,0 0.1,0.1 0.3,0.6 0.6,0.8 z"
           class="st1" /></g><g
         id="g218"><path
           style="fill:#ffffff"
           inkscape:connector-curvature="0"
           id="path216"
           d="m 27.7,40.5 c 0.4,-0.4 0.8,-0.5 1.1,-0.4 1,-0.4 1.2,-0.5 1.2,-0.5 v 0 c -0.4,-0.4 -0.8,-0.5 -1.5,-0.5 -0.3,0 -1.3,0.4 -1.4,0.6"
           class="st1" /></g><g
         id="g222"><path
           style="fill:#ffffff"
           inkscape:connector-curvature="0"
           id="path220"
           d="m 27.4,40.7 c 0,0 -0.7,-0.6 -0.5,-1 -0.7,0.7 -1,1 -1.7,1 v 0 c -0.2,0 0,0 0,0 -0.1,0.1 -0.1,0.2 -0.2,0.3 0,0.1 -0.1,0.2 -0.1,0.3 0,0.3 0,0.3 0,0.3 v 0 c 0.7,0 0.6,0.1 1.2,-0.1 0,0 0.4,-0.2 0.8,-0.6 0.2,0 0.4,-0.2 0.5,-0.2 z"
           class="st1" /></g><g
         id="g226"><path
           style="fill:#ffffff"
           inkscape:connector-curvature="0"
           id="path224"
           d="m 24.7,41.7 c 0,0 -0.1,0 0,-0.4 0,-0.1 0.1,-0.2 0.1,-0.3 0,-0.1 0.1,-0.2 0.2,-0.3 0,0 -0.1,0.1 0,0 h -0.2 c -0.5,0 -0.8,-0.1 -1.2,-0.2 v 0 c -0.1,0 0,0 0,0 -0.2,0 -0.4,0.2 -0.4,0.3 0,0.1 -0.1,0.1 -0.2,0.2 0,0 -0.2,0.2 -0.2,0.2 v 0 c 0.4,0.2 1.4,0.5 1.9,0.5 z"
           class="st1" /></g><g
         id="g232"><g
           id="g230"><path
             style="fill:#ffffff"
             inkscape:connector-curvature="0"
             id="path228"
             d="m 24.1,39.3 c 0.1,-0.1 0.2,-0.1 0.4,-0.1 0.6,-0.1 1.5,0.3 1.6,0.7 l -0.3,0.2 c -0.2,0.2 -0.6,0.2 -0.6,0.2 L 25,40.2 c -0.2,-0.1 -0.5,-0.1 -0.7,-0.1 -0.2,0 -0.5,-0.1 -0.6,0 v 0 c -0.2,-0.1 0.4,-0.8 0.4,-0.8 z"
             class="st1" /></g></g><g
         id="g236"><path
           style="fill:#ffffff"
           inkscape:connector-curvature="0"
           id="path234"
           d="m 21.6,43.8 c -0.2,0.2 -0.4,0.3 -0.4,0.3 L 21,44.3 v 0 c 0,0 -0.7,-0.8 -1.3,-0.3 v 0 c 0.2,-0.3 0.4,-0.6 0.6,-0.7 0.1,-0.1 0.3,-0.2 0.5,-0.4 h -0.1 c 0.1,0 0.2,-0.1 0.2,-0.1 0.1,0 0.2,0.7 0.7,1 z"
           class="st1" /></g><g
         id="g240"><path
           style="fill:#ffffff"
           inkscape:connector-curvature="0"
           id="path238"
           d="m 19.4,44.4 c 0.7,-0.6 1.3,0.2 1.3,0.2 l -0.5,0.5 z"
           class="st1" /></g><g
         id="g244"><polygon
           style="fill:#ffffff"
           id="polygon242"
           points="19.2,44.6 19.1,44.7 19.8,45.4 19.9,45.3 "
           class="st1" /></g><g
         id="g248"><path
           style="fill:#ffffff"
           inkscape:connector-curvature="0"
           id="path246"
           d="m 18.9,44.9 c -0.2,0.2 -0.4,0.3 -0.4,0.3 l 0.8,0.9 0.3,-0.5 z"
           class="st1" /></g><g
         id="g252"><path
           style="fill:#ffffff"
           inkscape:connector-curvature="0"
           id="path250"
           d="m 32,45.1 c 0.2,0.2 0.4,0.3 0.4,0.3 l -0.8,0.9 -0.3,-0.5 z"
           class="st1" /></g><g
         id="g256"><polygon
           style="fill:#ffffff"
           id="polygon254"
           points="31,45.5 31.1,45.6 31.8,45 31.7,44.9 "
           class="st1" /></g><g
         id="g260"><path
           style="fill:#ffffff"
           inkscape:connector-curvature="0"
           id="path258"
           d="m 31.6,44.6 c -0.7,-0.6 -1.3,0.1 -1.3,0.1 l 0.5,0.5 z"
           class="st1" /></g><g
         id="g264"><path
           style="fill:#ffffff"
           inkscape:connector-curvature="0"
           id="path262"
           d="m 30.3,43.1 c -0.9,-0.5 -1.4,0.2 -1.4,0.2 v 0 c 0.6,0.3 1,0.9 1,0.9 l 0.1,0.2 v 0 c 0,0 0.7,-0.8 1.3,-0.3 v 0 c -0.2,-0.3 -0.4,-0.6 -0.5,-0.7 -0.2,0 -0.3,-0.2 -0.5,-0.3 z"
           class="st1" /></g><g
         id="g268"><path
           style="fill:#ffffff"
           inkscape:connector-curvature="0"
           id="path266"
           d="m 26.8,41.6 c -0.1,0 0.5,0.2 1.4,0.1 v 0 c 0,0 0.1,-0.1 0.2,-0.2 0,-0.1 0.1,-0.3 0.1,-0.4 0,-0.1 0,-0.1 0,-0.3 0,0 0,-0.1 0,-0.2 v 0 c -0.1,0.1 -0.7,0.2 -0.7,0.2 -0.2,0 -0.3,0.1 -0.3,0.1 -0.1,0.1 -0.2,0.1 -0.2,0.2 0,0 -0.2,0.1 -0.3,0.2 0.1,0.1 -0.2,0.2 -0.2,0.3 z"
           class="st1" /></g><g
         id="g272"><path
           style="fill:#ffffff"
           inkscape:connector-curvature="0"
           id="path270"
           d="m 30.6,42.9 c 0.6,-0.7 0.3,-1.4 0.2,-1.8 l -1.1,0.5 c 0,0.1 0.2,0.4 -0.1,0.7 0,0 1.1,0.5 1,0.6 z"
           class="st1" /></g><g
         id="g278"><g
           id="g276"><path
             style="fill:#ffffff"
             inkscape:connector-curvature="0"
             id="path274"
             d="m 28.4,43.1 c 0,0 0.8,-0.7 1.2,-0.5 L 29.5,42.5 C 29.1,42.2 28.5,42 28,42 c -0.5,0 -1.3,0.1 -1.5,0.4 0,0 0.7,0.1 1.1,0.6 0.2,0.1 0.4,0 0.8,0.1 z"
             class="st1" /></g></g></g><g
       id="g304"><path
         style="fill:#ffffff"
         inkscape:connector-curvature="0"
         id="path282"
         d="m 16.9,25.7 0.5,-0.9 1,0.2 -0.7,-0.7 0.5,-0.9 -0.9,0.5 -0.7,-0.7 0.2,1 -0.9,0.5 1,0.2 z m 6.8,2.6 v 0 c -0.5,0.1 -1.2,0.1 -1.8,0.2 -0.3,-1.1 -1.1,-2.6 -2.5,-2.4 -1.2,0.2 -1.7,1.4 -1.4,2.5 -1.7,0.2 -3.2,-1.2 -3.6,-2.8 -0.5,-2.4 1.2,-4.8 3.8,-4.8 3.5,0.1 5.4,4.8 5.5,7.3 z"
         class="st1" /><path
         style="fill:#ffffff"
         inkscape:connector-curvature="0"
         id="path284"
         d="m 35,25.7 0.2,-1 1,-0.1 -0.9,-0.5 0.2,-1 -0.7,0.7 -0.9,-0.5 0.5,0.9 -0.7,0.7 1,-0.2 z m -6.8,2.7 c 0.1,-2.5 2,-7.2 5.6,-7.2 2.5,0 4.3,2.4 3.8,4.8 -0.4,1.6 -1.8,3 -3.6,2.8 0.3,-1.1 -0.2,-2.4 -1.4,-2.5 -1.4,-0.2 -2.3,1.3 -2.5,2.4 -0.7,-0.2 -1.3,-0.3 -1.9,-0.3 z"
         class="st1" /><path
         style="fill:#ffffff"
         inkscape:connector-curvature="0"
         id="path286"
         d="m 26,30 c 2.3,0 4.2,-0.2 4.2,-0.4 0,-0.1 -1.9,-0.4 -4.2,-0.4 -2.3,0 -4.2,0.2 -4.2,0.4 0,0.1 1.9,0.4 4.2,0.4 z m 0,0.5 c -2.7,0 -4.8,-0.4 -4.8,-0.9 0,-0.5 2.2,-0.9 4.8,-0.9 2.7,0 4.8,0.4 4.8,0.9 0,0.5 -2.2,0.9 -4.8,0.9 z"
         class="st1" /><g
         id="g290"><path
           style="fill:#ffffff"
           inkscape:connector-curvature="0"
           id="path288"
           d="m 29.9,30.6 c -0.5,0.1 -1.1,0.2 -1.7,0.2 v 0 c 0.1,1.1 1,3.3 2.5,3.3 1.1,0 2,-1 2,-2 -1.3,0.7 -2.6,0.1 -2.8,-1.5 z"
           class="st1" /></g><g
         id="g294"><path
           style="fill:#ffffff"
           inkscape:connector-curvature="0"
           id="path292"
           d="M 23.7,30.9 C 23.1,30.8 22.5,30.8 22,30.7 v 0 c -0.3,1.6 -1.6,2.2 -2.9,1.6 0.1,1.1 0.9,2 2,2 1.6,-0.1 2.5,-2.4 2.6,-3.4 z"
           class="st1" /></g><g
         id="g298"><path
           style="clip-rule:evenodd;fill:#ffffff;fill-rule:evenodd"
           inkscape:connector-curvature="0"
           id="path296"
           d="m 26,13.8 c 0.6,0.7 1.7,1.5 1.9,1.7 1.6,1.2 2.4,2.9 2.4,4.4 0,2.7 -2.3,5.1 -2.6,8.4 -0.5,-0.1 -1,-0.1 -1.5,-0.1 0.1,-3.3 -0.1,-7.9 -0.3,-11.2 -0.2,3.3 -0.4,7.8 -0.3,11.2 -0.5,0 -1,0 -1.5,0.1 -0.3,-3.3 -2.6,-5.7 -2.6,-8.4 0,-1.5 0.8,-3.2 2.4,-4.4 0.3,-0.2 1.4,-1 2.1,-1.7 z"
           class="st2" /></g><g
         id="g302"><path
           style="clip-rule:evenodd;fill:#ffffff;fill-rule:evenodd"
           inkscape:connector-curvature="0"
           id="path300"
           d="m 26,37.3 c 1.3,-0.6 2.6,-1.8 3.2,-3 -0.8,-1.1 -1.2,-2.4 -1.4,-3.3 -0.5,0 -1,0.1 -1.5,0.1 -0.1,0.9 -0.1,2.8 -0.3,3.8 -0.3,-1 -0.3,-2.9 -0.3,-3.8 -0.5,0 -1,0 -1.5,-0.1 -0.1,1 -0.5,2.2 -1.4,3.3 0.5,1.2 1.9,2.4 3.2,3 z"
           class="st2" /></g></g></g><g
     id="g332"><g
       id="g310"><path
         style="fill:#ffffff"
         inkscape:connector-curvature="0"
         id="path308"
         d="m 169.5,15.6 c 0.9,0 1.7,0.7 1.7,1.7 0,1 -0.8,1.7 -1.7,1.7 -0.9,0 -1.7,-0.7 -1.7,-1.7 0.1,-1 0.8,-1.7 1.7,-1.7 z m 0,3.1 c 0.8,0 1.4,-0.6 1.4,-1.4 0,-0.8 -0.6,-1.4 -1.4,-1.4 -0.8,0 -1.4,0.6 -1.4,1.4 0,0.8 0.6,1.4 1.4,1.4 z m -0.6,-2.4 h 0.7 c 0.5,0 0.7,0.2 0.7,0.6 0,0.3 -0.2,0.5 -0.5,0.5 l 0.6,0.9 h -0.3 l -0.5,-0.8 h -0.3 v 0.8 H 169 v -2 z m 0.3,0.9 h 0.3 c 0.3,0 0.5,0 0.5,-0.3 0,-0.3 -0.2,-0.3 -0.4,-0.3 h -0.4 z"
         class="st1" /></g><g
       id="g330"><path
         style="fill:#ffffff"
         inkscape:connector-curvature="0"
         id="path312"
         d="m 97.7,33.2 c -3.8,0 -6.4,-2.9 -6.4,-7.4 0,-4.4 2.5,-7.3 6.4,-7.3 3.8,0 6.3,2.9 6.3,7.3 0.1,4.5 -2.5,7.4 -6.3,7.4 z m 0,-17.5 c -2.8,0 -5.3,0.9 -7.1,2.5 -2.1,1.8 -3.2,4.6 -3.2,7.9 0,3.3 1.2,6.1 3.5,8 1.8,1.5 4.2,2.3 6.9,2.3 2.8,0 5.3,-0.9 7.1,-2.5 2.1,-1.9 3.3,-4.6 3.3,-7.9 0,-3.1 -1.1,-5.8 -3,-7.6 -1.9,-1.8 -4.5,-2.8 -7.5,-2.7 z"
         class="st1" /><path
         style="fill:#ffffff"
         inkscape:connector-curvature="0"
         id="path314"
         d="m 112.3,16.1 h 3.8 v 12.1 c 0,0.1 0,0.7 0,0.8 0.1,1.3 0.5,2.4 1.3,3.1 0.8,0.7 1.9,1.1 3.4,1.1 1.6,0 2.8,-0.4 3.6,-1.2 0.7,-0.7 1.1,-1.7 1.1,-2.9 0,-0.1 0,-0.6 0,-0.7 V 16.1 h 3.8 v 12.5 c 0,2.3 -0.7,4.1 -2,5.5 -1.5,1.5 -3.7,2.4 -6.6,2.4 -2.8,0 -5,-0.8 -6.3,-2.1 -1.3,-1.3 -2.1,-3.2 -2.1,-5.4 z"
         class="st1" /><path
         style="fill:#ffffff"
         inkscape:connector-curvature="0"
         id="path316"
         d="m 149,19.1 h -5.8 v 16.8 h -3.8 V 19.1 h -6.2 v -3 h 17.4 z"
         class="st1" /><g
         id="g320"><path
           style="fill:#ffffff"
           inkscape:connector-curvature="0"
           id="path318"
           d="m 71.4,18.5 c 1.8,-1.7 4.3,-2.8 7.3,-2.9 0.3,0 0.7,0 1,0 1.5,0.1 3.3,0.6 4.6,1.4 0.2,0.1 0.4,0.3 0.4,0.3 -0.2,0.3 -1.4,2.5 -1.4,2.5 0,0 -0.2,-0.1 -0.4,-0.2 -0.9,-0.5 -2,-0.8 -3.2,-0.8 -0.2,0 -0.4,0 -0.6,0 -2,0.1 -3.6,0.8 -4.8,2.1 -1.1,1.2 -1.7,2.8 -1.8,4.6 0,0.3 0,0.6 0,0.9 0.2,4 2.7,6.7 6.4,6.9 0.2,0 0.5,0 0.8,0 1.4,-0.1 2.6,-0.5 3.8,-1.3 0,0 0,0 0,0 0.1,0.2 1.4,2.7 1.5,2.8 -1.5,0.9 -3.9,1.6 -6.3,1.6 -3.1,0 -5.7,-1 -7.5,-2.8 -1.8,-1.8 -2.8,-4.3 -2.8,-7.4 0,-3.2 1.1,-5.9 3,-7.7 z"
           class="st1" /></g><g
         id="g324"><path
           style="fill:#ffffff"
           inkscape:connector-curvature="0"
           id="path322"
           d="m 60.9,30.5 c 0,-1.9 -1.9,-2.8 -3.8,-3.6 -1.3,-0.6 -2.4,-1 -3.5,-2 -1.1,-1 -1.7,-2.3 -1.7,-4 0,-3.3 2.6,-5.4 6.7,-5.4 2.9,0 4.9,1 5.9,1.7 0,0.1 -1.4,2.4 -1.4,2.5 -1.2,-0.8 -2.7,-1.4 -3.9,-1.4 -2.1,0.1 -3.3,1.1 -3.3,2.4 0,1.7 1.8,2.4 3.6,3.2 v 0 c 2.6,1 5.5,2.3 5.5,6.3 0,3.5 -3.1,6 -7.4,6 -2.5,0 -4.6,-0.6 -6.7,-1.7 0,-0.1 1.5,-2.8 1.5,-2.8 1.7,0.9 3.3,1.5 4.7,1.5 2.3,0.1 3.8,-1.1 3.8,-2.7 z"
           class="st1" /></g><g
         id="g328"><path
           style="fill:#ffffff"
           inkscape:connector-curvature="0"
           id="path326"
           d="m 162,30.5 c 0,-1.9 -1.9,-2.8 -3.8,-3.6 -1.3,-0.6 -2.4,-1 -3.5,-2 -1.1,-1 -1.7,-2.3 -1.7,-4 0,-3.3 2.6,-5.4 6.7,-5.4 2.9,0 4.9,1 5.9,1.7 0,0.1 -1.4,2.4 -1.4,2.5 -1.2,-0.8 -2.7,-1.4 -3.9,-1.4 -2.1,0.1 -3.3,1.1 -3.3,2.4 0,1.7 1.8,2.4 3.6,3.2 v 0 c 2.6,1 5.5,2.3 5.5,6.3 0,3.5 -3.1,6 -7.4,6 -2.5,0 -4.6,-0.6 -6.7,-1.7 0,-0.1 1.5,-2.8 1.5,-2.8 1.7,0.9 3.3,1.5 4.7,1.5 2.3,0.1 3.8,-1.1 3.8,-2.7 z"
           class="st1" /></g></g></g></g><g
   transform="translate(-10.4,-10.4)"
   id="g352"><path
     style="fill:#ffffff"
     inkscape:connector-curvature="0"
     id="path336"
     d="m 131.1,44.7 -0.8,1.9 h -0.8 l 3.1,-7.1 3.1,7.1 h -0.8 l -0.8,-1.9 z m 1.5,-3.4 -1.2,2.7 h 2.3 z"
     class="st1" /><path
     style="fill:#ffffff"
     inkscape:connector-curvature="0"
     id="path338"
     d="m 136.1,44.5 c 0,-1.2 1,-2.2 2.2,-2.2 1.2,0 2.2,1 2.2,2.2 0,1.2 -1,2.2 -2.2,2.2 -1.2,0 -2.2,-1 -2.2,-2.2 z m 0.7,0 c 0,0.9 0.6,1.6 1.5,1.6 0.9,0 1.5,-0.7 1.5,-1.6 0,-0.9 -0.6,-1.6 -1.5,-1.6 -0.9,0 -1.5,0.7 -1.5,1.6 z"
     class="st1" /><path
     style="fill:#ffffff"
     inkscape:connector-curvature="0"
     id="path340"
     d="m 142.4,46.6 h -0.7 V 43 h -0.4 v -0.7 h 0.4 v -1.5 h 0.7 v 1.5 h 0.8 V 43 h -0.8 z"
     class="st1" /><path
     style="fill:#ffffff"
     inkscape:connector-curvature="0"
     id="path342"
     d="m 144.2,44.6 c 0,0.8 0.6,1.4 1.4,1.4 0.6,0 1,-0.4 1.3,-0.9 l 0.6,0.4 c -0.4,0.8 -1.1,1.2 -2,1.2 -1.3,0 -2.1,-1 -2.1,-2.2 0,-1.3 0.7,-2.3 2.1,-2.3 1.4,0 2.1,1.1 2,2.4 z m 2.6,-0.6 c -0.1,-0.6 -0.6,-1.1 -1.2,-1.1 -0.6,0 -1.2,0.5 -1.3,1.1 z"
     class="st1" /><path
     style="fill:#ffffff"
     inkscape:connector-curvature="0"
     id="path344"
     d="m 152.5,46.6 h -0.7 V 46 46 c -0.4,0.5 -0.9,0.7 -1.5,0.7 -1.2,0 -2,-1.1 -2,-2.2 0,-1.2 0.8,-2.2 2,-2.2 0.6,0 1.1,0.3 1.4,0.7 v 0 -0.6 h 0.7 v 4.2 z M 149,44.4 c 0,0.8 0.5,1.6 1.4,1.6 0.9,0 1.4,-0.7 1.4,-1.6 0,-0.8 -0.5,-1.5 -1.4,-1.5 -0.9,0 -1.4,0.7 -1.4,1.5 z"
     class="st1" /><path
     style="fill:#ffffff"
     inkscape:connector-curvature="0"
     id="path346"
     d="m 154.6,42.8 v 0 c 0.3,-0.3 0.5,-0.6 1,-0.6 0.2,0 0.4,0.1 0.6,0.2 l -0.3,0.7 c -0.1,-0.1 -0.2,-0.2 -0.4,-0.2 -0.8,0 -0.8,1 -0.8,1.6 v 2.1 H 154 v -4.2 h 0.7 v 0.4 z"
     class="st1" /><path
     style="fill:#ffffff"
     inkscape:connector-curvature="0"
     id="path348"
     d="m 156.6,44.5 c 0,-1.2 1,-2.2 2.2,-2.2 1.2,0 2.2,1 2.2,2.2 0,1.2 -1,2.2 -2.2,2.2 -1.2,0 -2.2,-1 -2.2,-2.2 z m 0.8,0 c 0,0.9 0.6,1.6 1.5,1.6 0.9,0 1.5,-0.7 1.5,-1.6 0,-0.9 -0.6,-1.6 -1.5,-1.6 -0.9,0 -1.5,0.7 -1.5,1.6 z"
     class="st1" /><path
     style="fill:#ffffff"
     inkscape:connector-curvature="0"
     id="path350"
     d="m 166,46.6 h -0.7 V 46 46 c -0.4,0.5 -0.9,0.7 -1.5,0.7 -1.2,0 -2,-1.1 -2,-2.2 0,-1.2 0.8,-2.2 2,-2.2 0.6,0 1.1,0.3 1.5,0.7 v 0 -0.6 h 0.7 z m -3.5,-2.2 c 0,0.8 0.5,1.6 1.4,1.6 0.9,0 1.4,-0.7 1.4,-1.6 0,-0.8 -0.5,-1.5 -1.4,-1.5 -0.8,0 -1.4,0.7 -1.4,1.5 z"
     class="st1" /></g></svg>