<?xml version="1.0" encoding="UTF-8" standalone="no"?>
<svg
   xmlns:dc="http://purl.org/dc/elements/1.1/"
   xmlns:cc="http://creativecommons.org/ns#"
   xmlns:rdf="http://www.w3.org/1999/02/22-rdf-syntax-ns#"
   xmlns:svg="http://www.w3.org/2000/svg"
   xmlns="http://www.w3.org/2000/svg"
   xmlns:sodipodi="http://sodipodi.sourceforge.net/DTD/sodipodi-0.dtd"
   xmlns:inkscape="http://www.inkscape.org/namespaces/inkscape"
   version="1.1"
   id="Logo_Artwork"
   x="0"
   y="0"
   viewBox="0 0 160.8 36.3"
   xml:space="preserve"
   sodipodi:docname="sign-in-logo.svg"
   width="160.8"
   height="36.299999"
   inkscape:version="0.92.5 (2060ec1f9f, 2020-04-08)"><metadata
     id="metadata29"><rdf:RDF><cc:Work
         rdf:about=""><dc:format>image/svg+xml</dc:format><dc:type
           rdf:resource="http://purl.org/dc/dcmitype/StillImage" /><dc:title></dc:title></cc:Work></rdf:RDF></metadata><defs
     id="defs27" /><sodipodi:namedview
     pagecolor="#ffffff"
     bordercolor="#666666"
     borderopacity="1"
     objecttolerance="10"
     gridtolerance="10"
     guidetolerance="10"
     inkscape:pageopacity="0"
     inkscape:pageshadow="2"
     inkscape:window-width="1920"
     inkscape:window-height="1015"
     id="namedview25"
     showgrid="false"
     fit-margin-top="0"
     fit-margin-left="0"
     fit-margin-right="0"
     fit-margin-bottom="0"
     inkscape:zoom="4.3765859"
     inkscape:cx="56.709849"
     inkscape:cy="16.813608"
     inkscape:window-x="0"
     inkscape:window-y="0"
     inkscape:window-maximized="1"
     inkscape:current-layer="g18" /><style
     type="text/css"
     id="style2">.st0{fill:none}.st1,.st2{fill:#6a2c91}.st2{fill-rule:evenodd;clip-rule:evenodd}</style><path
     class="st1"
     d="m 17.300001,30.1 c 0,0 -0.8,-0.6 -0.6,-0.9 m -2.2,2.6 c -0.8,-0.3 -1.8,-0.4 -2.3,-0.2 l 0.1,0.3 0.4,0.5 h 0.4 c 0,0 0.3,0 0.6,0.1 0,0.1 0.7,-0.7 0.8,-0.7 z m 2.4,-31.7 c 0,0 -0.2,0.1 -0.2,0.2 0,0.1 -0.1,0.2 -0.1,0.3 0,0.1 0,0.2 -0.1,0.3 l -0.2,0.2 c 0.5,0 1,0.1 1.5,0.1 l 0.2,-0.2 c 0.1,-0.1 0.1,-0.2 0.1,-0.3 0,-0.1 0.1,-0.2 0.2,-0.3 l 0.2,-0.2 c -0.5,0 -1,-0.1 -1.6,-0.1 z m 2,0.3 -0.2,0.1 c -0.1,0.1 -0.1,0.2 -0.2,0.3 0,0.1 -0.1,0.2 -0.1,0.3 l -0.2,0.2 1.5,0.3 c 0.1,0 0.3,-0.1 0.3,-0.1 0.1,-0.1 0.1,-0.2 0.2,-0.3 0,-0.1 0.1,-0.2 0.2,-0.3 0.1,-0.1 0.2,-0.1 0.2,-0.1 -0.6,-0.2 -1.1,-0.3 -1.7,-0.4 z m 2,0.6 c 0,0 -0.2,0 -0.2,0.1 -0.1,0.1 -0.1,0.2 -0.2,0.3 0,0.1 -0.1,0.2 -0.2,0.3 0,0 -0.1,0.1 -0.3,0.1 0.5,0.2 0.9,0.3 1.4,0.5 0.1,0 0.3,-0.1 0.3,-0.1 0.1,-0.1 0.1,-0.2 0.2,-0.2 l 0.2,-0.2 c 0.1,-0.1 0.3,-0.1 0.3,-0.1 -0.5,-0.4 -1,-0.6 -1.5,-0.7 z m 1.9,0.8 c 0,0 -0.2,0 -0.3,0.1 -0.1,0 -0.2,0.2 -0.2,0.2 -0.1,0.1 -0.1,0.2 -0.2,0.2 0,0 -0.1,0.1 -0.3,0.1 0.5,0.2 0.9,0.5 1.3,0.7 0.1,0 0.3,-0.1 0.3,-0.1 l 0.2,-0.2 c 0.1,-0.1 0.2,-0.2 0.3,-0.2 0.1,0 0.3,-0.1 0.3,-0.1 -0.5,-0.2 -1,-0.5 -1.4,-0.7 z m 1.7,1 h -0.3 c -0.1,0 -0.2,0.1 -0.3,0.2 -0.1,0.1 -0.1,0.2 -0.2,0.2 0,0 -0.1,0.1 -0.3,0.1 l 1.2,0.9 h 0.3 c 0.1,0 0.2,-0.1 0.3,-0.2 0.1,-0.1 0.2,-0.1 0.3,-0.2 h 0.3 c -0.4,-0.3 -0.9,-0.7 -1.3,-1 z m 1.6,1.3 h -0.3 c -0.1,0 -0.2,0.1 -0.3,0.2 -0.1,0.1 -0.1,0.1 -0.3,0.2 h -0.3 c 0.4,0.3 0.8,0.7 1.1,1 h 0.3 c 0.1,0 0.2,-0.1 0.3,-0.1 0.1,0 0.2,-0.1 0.3,-0.1 h 0.3 c -0.3,-0.5 -0.7,-0.8 -1.1,-1.2 z m 1.4,1.5 h -0.3 c -0.1,0 -0.2,0.1 -0.3,0.1 -0.1,0 -0.2,0.1 -0.3,0.1 h -0.3 c 0.3,0.4 0.7,0.8 1,1.2 h 0.3 c 0.1,0 0.2,-0.1 0.3,-0.1 0.1,0 0.2,-0.1 0.3,-0.1 h 0.3 c -0.3,-0.4 -0.7,-0.8 -1,-1.2 z m 1.2,1.6 c 0,0 -0.2,-0.1 -0.3,-0.1 -0.1,0 -0.2,0 -0.3,0.1 -0.1,0 -0.2,0.1 -0.3,0.1 0,0 -0.2,0 -0.3,-0.1 0.3,0.4 0.6,0.8 0.8,1.3 0.1,0.1 0.3,0.1 0.3,0.1 0.1,0 0.2,0 0.3,-0.1 0.1,0 0.2,-0.1 0.3,-0.1 0.1,0 0.3,0.1 0.3,0.1 -0.3,-0.4 -0.5,-0.8 -0.8,-1.3 z m 1,1.8 -0.2,-0.1 h -0.3 c -0.1,0 -0.2,0.1 -0.3,0.1 0,0 -0.2,0 -0.3,-0.1 0.2,0.4 0.4,0.9 0.6,1.4 0.1,0.1 0.3,0.1 0.3,0.1 h 0.6 c 0.1,0 0.2,0.1 0.2,0.1 z m 0.7,1.9 c 0,0 -0.1,-0.1 -0.2,-0.1 h -0.6 c 0,0 -0.1,0 -0.3,-0.1 0.2,0.5 0.3,1 0.4,1.4 0.1,0.1 0.3,0.2 0.3,0.2 h 0.6 c 0.1,0 0.2,0.1 0.2,0.1 -0.1,-0.5 -0.2,-1 -0.4,-1.5 z m 0.5,2 -0.2,-0.2 h -0.6 l -0.2,-0.2 c 0.1,0.5 0.2,1 0.2,1.5 l 0.2,0.2 c 0.1,0.1 0.2,0 0.3,0.1 0.1,0 0.3,0 0.3,0.1 0.1,0 0.2,0.2 0.2,0.2 0,-0.7 -0.1,-1.2 -0.2,-1.7 z m 0.2,2 -0.2,-0.2 c -0.1,0 -0.2,-0.1 -0.3,-0.1 -0.1,0 -0.2,0 -0.3,-0.1 l -0.2,-0.2 c 0,0.5 0.1,1 0,1.5 l 0.2,0.2 c 0.1,0.1 0.2,0.1 0.3,0.1 0.1,0 0.2,0.1 0.3,0.1 l 0.2,0.2 z m 0,2 c 0,0 -0.1,-0.2 -0.2,-0.2 -0.1,0 -0.2,-0.1 -0.3,-0.1 -0.1,0 -0.2,0 -0.3,-0.1 l -0.2,-0.2 c 0,0.5 -0.1,1 -0.2,1.5 l 0.2,0.2 c 0.1,0.1 0.2,0.1 0.3,0.1 0.1,0 0.2,0.1 0.3,0.2 l 0.2,0.2 c 0.1,-0.5 0.1,-1 0.2,-1.6 z m -0.3,2 -0.1,-0.2 c -0.1,-0.1 -0.2,-0.1 -0.3,-0.2 -0.1,0 -0.2,-0.1 -0.3,-0.1 l -0.2,-0.2 -0.3,1.5 c 0,0.1 0.1,0.3 0.1,0.3 0.1,0.1 0.2,0.1 0.3,0.2 0.1,0.1 0.2,0.1 0.3,0.2 0.1,0.1 0.1,0.2 0.1,0.2 0.1,-0.6 0.2,-1.1 0.4,-1.7 z m -0.6,2 c 0,0 0,-0.2 -0.1,-0.2 0,-0.1 -0.2,-0.2 -0.2,-0.2 -0.1,-0.1 -0.2,-0.1 -0.2,-0.2 0,0 -0.1,-0.1 -0.1,-0.3 -0.2,0.5 -0.4,0.9 -0.6,1.4 0,0.1 0.1,0.3 0.1,0.3 l 0.2,0.2 0.2,0.2 c 0,0.1 0.1,0.3 0.1,0.3 z m -0.8,1.9 c 0,0 0,-0.2 -0.1,-0.3 0,-0.1 -0.2,-0.2 -0.2,-0.2 -0.1,-0.1 -0.2,-0.1 -0.2,-0.2 0,0 -0.1,-0.1 -0.1,-0.3 -0.2,0.5 -0.5,0.9 -0.7,1.3 0,0.1 0.1,0.3 0.1,0.3 l 0.2,0.2 c 0.1,0.1 0.2,0.2 0.2,0.3 0,0.1 0.1,0.3 0.1,0.3 0.2,-0.5 0.4,-1 0.7,-1.4 z m -1.1,1.7 v -0.3 c 0,-0.1 -0.1,-0.2 -0.2,-0.3 -0.1,-0.1 -0.2,-0.1 -0.2,-0.2 0,0 -0.1,-0.1 -0.1,-0.3 l -0.9,1.2 v 0.3 c 0,0.1 0.1,0.2 0.2,0.3 0.1,0.1 0.1,0.2 0.2,0.3 v 0.3 c 0.4,-0.4 0.7,-0.9 1,-1.3 z m -1.3,1.6 v -0.3 c 0,-0.1 -0.1,-0.2 -0.2,-0.3 -0.1,-0.1 -0.1,-0.1 -0.2,-0.3 v -0.3 c -0.3,0.4 -0.7,0.8 -1,1.1 v 0.3 c 0,0.1 0.1,0.2 0.1,0.3 0,0.1 0.1,0.2 0.1,0.3 v 0.3 c 0.5,-0.4 0.9,-0.7 1.2,-1.1 z m -1.4,1.4 v -0.3 c 0,-0.1 -0.1,-0.2 -0.1,-0.3 0,-0.1 -0.1,-0.2 -0.1,-0.3 v -0.3 c -0.4,0.3 -0.8,0.7 -1.2,0.9 v 0.3 c 0,0.1 0.1,0.2 0.1,0.3 0,0.1 0.1,0.2 0.1,0.3 0,0.1 -0.1,0.3 -0.1,0.3 0.4,-0.2 0.9,-0.6 1.3,-0.9 z m -1.7,1.2 c 0,0 0.1,-0.2 0.1,-0.3 0,-0.1 0,-0.2 -0.1,-0.3 0,-0.1 -0.1,-0.2 -0.1,-0.3 0,0 0,-0.2 0.1,-0.3 -0.4,0.3 -0.8,0.6 -1.3,0.8 -0.1,0.1 -0.1,0.3 -0.1,0.3 0,0.1 0,0.2 0.1,0.3 0,0.1 0.1,0.2 0.1,0.3 0,0.1 -0.1,0.3 -0.1,0.3 0.4,-0.3 0.9,-0.5 1.3,-0.8 z m -1.8,1 0.1,-0.2 v -0.3 c 0,-0.1 -0.1,-0.2 -0.1,-0.3 0,0 0,-0.2 0.1,-0.3 -0.5,0.2 -0.9,0.4 -1.4,0.6 -0.1,0.1 -0.1,0.3 -0.1,0.3 v 0.6 c 0,0.1 -0.1,0.3 -0.1,0.3 0.5,-0.3 1,-0.5 1.5,-0.7 z m -2,0.7 c 0,0 0,-0.1 0.1,-0.2 v -0.3 c 0,-0.1 -0.1,-0.2 0,-0.3 0,0 0.1,-0.3 0.2,-0.4 -0.5,0.2 -1.2,0.4 -1.6,0.7 -0.1,0 -0.2,0.1 -0.2,0.1 0,0.1 -0.1,0.2 -0.1,0.3 v 0.3 c 0,0.2 -0.2,0.5 -0.2,0.5 0.5,-0.1 1.2,-0.4 1.6,-0.6 z m -9.9,-0.2 c 0,0 0.2,0 0.2,-0.1 0.1,-0.1 0.2,-0.2 0.2,-0.3 0,-0.1 0.1,-0.2 0.2,-0.3 0,0 0.1,-0.1 0.3,-0.1 -0.5,-0.2 -0.9,-0.3 -1.4,-0.5 -0.1,0 -0.3,0.1 -0.3,0.1 -0.1,0.1 -0.1,0.2 -0.2,0.2 l -0.2,0.2 c -0.1,0.1 -0.3,0.1 -0.3,0.1 0.5,0.3 1,0.5 1.5,0.7 z m -1.8,-0.8 c 0,0 0.2,0 0.3,-0.1 0.1,0 0.2,-0.2 0.2,-0.2 0.1,-0.1 0.1,-0.2 0.2,-0.2 0,0 0.1,-0.1 0.3,-0.1 -0.5,-0.2 -0.9,-0.4 -1.3,-0.7 -0.1,0 -0.3,0.1 -0.3,0.1 l -0.2,0.2 c -0.1,0.1 -0.2,0.2 -0.3,0.2 -0.1,0 -0.3,0.1 -0.3,0.1 0.4,0.2 0.9,0.4 1.4,0.7 z m -1.8,-1.1 h 0.3 c 0.1,0 0.2,-0.1 0.3,-0.2 0.1,-0.1 0.1,-0.2 0.2,-0.2 0,0 0.1,-0.1 0.3,-0.1 l -1.2,-0.9 h -0.3 c -0.1,0 -0.2,0.1 -0.3,0.2 -0.1,0.1 -0.2,0.1 -0.3,0.2 h -0.3 c 0.5,0.4 0.9,0.7 1.3,1 z m -1.6,-1.3 h 0.3 c 0.1,0 0.2,-0.1 0.3,-0.2 0.1,-0.1 0.1,-0.1 0.3,-0.2 h 0.3 c -0.4,-0.3 -0.7,-0.7 -1.1,-1 h -0.3 c -0.1,0 -0.2,0.1 -0.3,0.1 -0.1,0 -0.2,0.1 -0.3,0.1 H 3.9 c 0.400001,0.5 0.700001,0.9 1.100001,1.2 z M 3.6,25.6 h 0.3 c 0.100001,0 0.200001,-0.1 0.300001,-0.1 0.1,0 0.2,-0.1 0.3,-0.1 h 0.3 C 4.500001,25 4.100001,24.6 3.8,24.2 H 3.5 c -0.1,0 -0.2,0.1 -0.3,0.1 -0.1,0 -0.2,0.1 -0.3,0.1 -0.1,0 -0.3,-0.1 -0.3,-0.1 0.4,0.4 0.7,0.8 1,1.3 z M 2.4,23.9 c 0,0 0.2,0.1 0.3,0.1 0.1,0 0.2,-0.1 0.3,-0.1 0.1,0 0.2,-0.1 0.3,-0.1 0,0 0.2,0 0.3,0.1 C 3.3,23.5 3,23.1 2.8,22.6 2.7,22.5 2.5,22.5 2.5,22.5 c -0.1,0 -0.2,0 -0.3,0.1 -0.1,0 -0.2,0.1 -0.3,0.1 -0.1,0 -0.3,-0.1 -0.3,-0.1 0.3,0.4 0.5,0.9 0.8,1.3 z m -1,-1.8 c 0,0 0.2,0.1 0.3,0.1 H 2 c 0.1,0 0.2,-0.1 0.3,-0.1 0,0 0.2,0 0.3,0.1 C 2.4,21.8 2.2,21.3 2,20.8 1.9,20.7 1.7,20.7 1.7,20.7 H 1.1 c -0.1,0 -0.2,-0.1 -0.2,-0.1 0.1,0.6 0.3,1 0.5,1.5 z M 0.7,20.2 c 0,0 0.1,0.1 0.2,0.1 h 0.6 c 0,0 0.1,0 0.3,0.1 C 1.6,19.9 1.5,19.4 1.4,19 L 1.2,18.8 H 0.6 c -0.1,0 -0.2,-0.1 -0.2,-0.1 0,0.5 0.1,1 0.3,1.5 z M 0.2,18.3 0.4,18.5 H 1 l 0.2,0.2 C 1.1,18.2 1,17.7 1,17.2 L 0.8,17 C 0.7,16.9 0.6,17 0.5,16.9 0.4,16.9 0.2,16.9 0.2,16.8 0.1,16.8 0,16.6 0,16.6 c 0.1,0.6 0.1,1.1 0.2,1.7 z M 0,16.2 0.2,16.4 c 0.1,0 0.2,0.1 0.3,0.1 0.1,0 0.2,0 0.3,0.1 L 1,16.8 c 0,-0.5 -0.1,-1 0,-1.5 L 0.8,15.1 C 0.7,15 0.6,15 0.5,15 0.4,15 0.3,14.9 0.2,14.9 L 0,14.7 Z m 0.1,-2 c 0,0 0.1,0.2 0.2,0.2 0.1,0 0.2,0.1 0.3,0.1 0.1,0 0.2,0 0.3,0.1 l 0.2,0.2 c 0,-0.5 0.1,-1 0.1,-1.5 L 1,13.1 C 0.9,13 0.8,13 0.7,13 0.6,13 0.5,12.9 0.4,12.8 0.3,12.7 0.3,12.6 0.3,12.6 0.2,13.1 0.1,13.7 0.1,14.2 Z m 0.3,-2 0.1,0.2 c 0.1,0.1 0.2,0.1 0.3,0.2 0.1,0 0.2,0.1 0.3,0.1 l 0.2,0.2 0.3,-1.5 C 1.6,11.3 1.5,11.1 1.5,11.1 1.4,11 1.3,11 1.2,10.9 1.1,10.8 1,10.8 0.9,10.7 0.8,10.6 0.8,10.5 0.8,10.5 0.6,11.2 0.5,11.7 0.4,12.2 Z m 0.5,-2 c 0,0 0,0.2 0.1,0.2 0.1,0.1 0.2,0.1 0.3,0.2 0.1,0 0.2,0.1 0.3,0.2 0,0 0.1,0.1 0.1,0.3 C 1.9,10.6 2,10.2 2.2,9.7 2.2,9.6 2.1,9.4 2.1,9.4 L 1.9,9.2 1.7,9 C 1.6,8.9 1.6,8.7 1.6,8.7 1.3,9.2 1.1,9.7 0.9,10.2 Z M 1.8,8.4 c 0,0 0,0.2 0.1,0.3 0,0.1 0.2,0.2 0.2,0.2 C 2.2,9 2.3,9 2.3,9.1 2.3,9.1 2.4,9.2 2.4,9.4 2.6,8.9 2.9,8.5 3.1,8.1 3.1,8 3,7.8 3,7.8 L 2.8,7.6 C 2.7,7.5 2.6,7.4 2.6,7.3 2.6,7.2 2.5,7 2.5,7 2.3,7.4 2,7.9 1.8,8.4 Z m 1,-1.8 v 0.3 c 0,0.1 0.1,0.2 0.2,0.3 0.1,0.1 0.2,0.1 0.2,0.2 0,0 0.1,0.1 0.1,0.3 L 4.200001,6.5 V 6.2 c 0,-0.1 -0.1,-0.2 -0.2,-0.3 C 3.9,5.8 3.9,5.7 3.8,5.6 V 5.3 C 3.4,5.8 3.1,6.2 2.8,6.6 Z M 4.100001,5.1 v 0.3 c 0,0.1 0.1,0.2 0.2,0.3 0.1,0.1 0.1,0.1 0.2,0.3 v 0.3 c 0.3,-0.4 0.7,-0.8 1,-1.1 V 4.9 c 0,-0.1 -0.1,-0.2 -0.1,-0.3 0,-0.1 -0.1,-0.2 -0.1,-0.3 V 4 c -0.5,0.3 -0.9,0.6 -1.2,1.1 z m 1.5,-1.5 v 0.3 c 0,0.1 0.1,0.2 0.1,0.3 0,0.1 0.1,0.2 0.1,0.3 v 0.3 c 0.4,-0.3 0.8,-0.7 1.2,-0.9 V 3.6 c 0,-0.1 -0.1,-0.2 -0.1,-0.3 0,-0.1 -0.1,-0.2 -0.1,-0.3 0,-0.1 0.1,-0.3 0.1,-0.3 -0.5,0.3 -0.9,0.6 -1.3,0.9 z m 1.6,-1.2 c 0,0 -0.1,0.2 -0.1,0.3 0,0.1 0,0.2 0.1,0.3 0,0.1 0.1,0.2 0.1,0.3 0,0 0,0.2 -0.1,0.3 0.4,-0.3 0.8,-0.5 1.3,-0.8 0.1,-0.1 0.1,-0.3 0.1,-0.3 0,-0.1 0,-0.2 -0.1,-0.3 0,-0.1 -0.1,-0.2 -0.1,-0.3 0,-0.1 0.1,-0.3 0.1,-0.3 -0.4,0.3 -0.9,0.5 -1.3,0.8 z m 1.8,-0.9 c 0,0 -0.1,0.2 -0.1,0.3 v 0.3 c 0,0.1 0.1,0.2 0.1,0.3 0,0 0,0.2 -0.1,0.3 0.4,-0.2 0.9,-0.4 1.4,-0.6 0.1,-0.1 0.1,-0.3 0.1,-0.3 V 1.5 1.2 c 0,-0.1 0.1,-0.2 0.1,-0.2 -0.5,0 -1,0.2 -1.5,0.5 z m 1.9,-0.8 c 0,0 -0.1,0.1 -0.1,0.2 v 0.6 c 0,0 0,0.1 -0.1,0.3 0.5,-0.2 1,-0.3 1.4,-0.4 l 0.2,-0.2 V 0.9 0.6 c 0,-0.1 0.1,-0.2 0.1,-0.2 -0.5,0 -1,0.2 -1.5,0.3 z m 2,-0.5 -0.2,0.2 V 1 l -0.2,0.2 c 0.5,-0.1 1,-0.2 1.5,-0.2 l 0.2,-0.2 c 0.1,-0.1 0,-0.2 0.1,-0.3 0,-0.1 0,-0.2 0.1,-0.3 0,-0.1 0.2,-0.2 0.2,-0.2 -0.7,0.1 -1.2,0.1 -1.7,0.2 z m 2,-0.2 -0.2,0.2 c 0,0.1 -0.1,0.2 -0.1,0.3 0,0.1 0,0.2 -0.1,0.3 l -0.2,0.2 c 0.5,0 1,-0.1 1.5,0 l 0.2,-0.2 c 0.1,-0.1 0.1,-0.2 0.1,-0.3 0,-0.1 0.1,-0.2 0.1,-0.3 l 0.2,-0.2 z m -3.8,30.1 c 0,0 0.2,0.8 0.7,0.9 0.1,-0.3 0.6,-0.8 0.9,-1 l 0.1,-0.1 c -0.1,-0.7 0.2,-1.1 0.2,-1.1 l -0.3,0.1 c -0.7,0.2 -1.3,0.6 -1.6,1.2 z m 1,2.8 c 0.1,0 0.2,-0.1 0.3,-0.2 -0.4,-0.3 -0.6,-0.8 -0.6,-1.3 -0.7,-0.1 -0.9,-0.9 -0.9,-0.9 -0.1,0.3 -0.2,0.6 -0.2,0.9 0,0.5 0.1,1.1 0.4,1.5 0.1,0 0.6,0.1 1,0 z m 1.5,0.1 h -0.3 c -0.2,0 -0.4,0 -0.6,-0.1 -0.2,0.5 -1.2,0.4 -1.2,0.4 0.4,0.4 0.9,0.6 1.5,0.7 0,0 0.6,-0.1 0.6,-1 z m 0.4,0 0.5,0.1 c 0.9,0.2 1,0.4 1,0.4 0,0 -1,0.9 -1.9,0.7 0,-0.1 0.7,-0.5 0.4,-1.2 m 2.9,-0.2 c -0.7,-0.5 -1.3,-0.6 -1.8,-0.8 l -1,0.7 1.1,0.4 c 0.3,0.1 0.4,0.3 0.9,0.5 0,0 1.1,-0.6 0.8,-0.8 z m 1.9,0.9 c -0.4,0.4 -1,0.4 -1,0.4 -0.4,0 -0.8,0 -1.3,-0.3 0,0 0.8,-0.6 0.8,-0.9 0.2,0.1 0.8,0.1 0.9,0 0.1,0.1 0.3,0.6 0.6,0.8 z"
     id="path6"
     inkscape:connector-curvature="0"
     style="fill:#6a2c91" /><path
     class="st1"
     d="m 17.300001,30.1 c 0.4,-0.4 0.8,-0.5 1.1,-0.4 1,-0.4 1.2,-0.5 1.2,-0.5 -0.4,-0.4 -0.8,-0.5 -1.5,-0.5 -0.3,0 -1.3,0.4 -1.4,0.6 m 0.3,1 c 0,0 -0.7,-0.6 -0.5,-1 -0.7,0.7 -1,1 -1.7,1 -0.2,0 0,0 0,0 -0.1,0.1 -0.1,0.2 -0.2,0.3 0,0.1 -0.1,0.2 -0.1,0.3 v 0.3 c 0.7,0 0.6,0.1 1.2,-0.1 0,0 0.4,-0.2 0.8,-0.6 0.2,0 0.4,-0.2 0.5,-0.2 z m -2.7,1 c 0,0 -0.1,0 0,-0.4 0,-0.1 0.1,-0.2 0.1,-0.3 0,-0.1 0.1,-0.2 0.2,-0.3 0,0 -0.1,0.1 0,0 h -0.2 c -0.5,0 -0.8,-0.1 -1.2,-0.2 -0.1,0 0,0 0,0 -0.2,0 -0.4,0.2 -0.4,0.3 0,0.1 -0.1,0.1 -0.2,0.2 l -0.2,0.2 c 0.4,0.2 1.4,0.5 1.9,0.5 z m -0.6,-2.4 c 0.1,-0.1 0.2,-0.1 0.4,-0.1 0.6,-0.1 1.5,0.3 1.6,0.7 l -0.3,0.2 c -0.2,0.2 -0.6,0.2 -0.6,0.2 l -0.2,-0.1 c -0.2,-0.1 -0.5,-0.1 -0.7,-0.1 -0.2,0 -0.5,-0.1 -0.6,0 -0.2,-0.1 0.4,-0.8 0.4,-0.8 z m -2.5,4.5 c -0.2,0.2 -0.4,0.3 -0.4,0.3 l -0.2,0.2 c 0,0 -0.7,-0.8 -1.3,-0.3 0.2,-0.3 0.4,-0.6 0.6,-0.7 0.1,-0.1 0.3,-0.2 0.5,-0.4 h -0.1 c 0.1,0 0.2,-0.1 0.2,-0.1 0.1,0 0.2,0.7 0.7,1 z m -2.2,0.6 c 0.7,-0.6 1.3,0.2 1.3,0.2 l -0.5,0.5 z m 0.4,1 0.1,-0.1 -0.7,-0.7 -0.1,0.1 z m -0.9,-0.5 c -0.2,0.2 -0.4,0.3 -0.4,0.3 l 0.8,0.9 0.3,-0.5 z m 13.1,0.2 c 0.2,0.2 0.4,0.3 0.4,0.3 l -0.8,0.9 -0.3,-0.5 z m -0.2,-0.1 -0.1,-0.1 -0.7,0.6 0.1,0.1 z m -0.2,-0.4 c -0.7,-0.6 -1.3,0.1 -1.3,0.1 l 0.5,0.5 z m -1.3,-1.5 c -0.9,-0.5 -1.4,0.2 -1.4,0.2 0.6,0.3 1,0.9 1,0.9 l 0.1,0.2 c 0,0 0.7,-0.8 1.3,-0.3 -0.2,-0.3 -0.4,-0.6 -0.5,-0.7 -0.2,0 -0.3,-0.2 -0.5,-0.3 z m -3.5,-1.5 c -0.1,0 0.5,0.2 1.4,0.1 l 0.2,-0.2 c 0,-0.1 0.1,-0.3 0.1,-0.4 v -0.3 -0.2 c -0.1,0.1 -0.7,0.2 -0.7,0.2 -0.2,0 -0.3,0.1 -0.3,0.1 -0.1,0.1 -0.2,0.1 -0.2,0.2 0,0 -0.2,0.1 -0.3,0.2 0.1,0.1 -0.2,0.2 -0.2,0.3 z m 3.8,1.3 c 0.6,-0.7 0.3,-1.4 0.2,-1.8 l -1.1,0.5 c 0,0.1 0.2,0.4 -0.1,0.7 0,0 1.1,0.5 1,0.6 z m -2.2,0.2 c 0,0 0.8,-0.7 1.2,-0.5 l -0.1,-0.1 c -0.4,-0.3 -1,-0.5 -1.5,-0.5 -0.5,0 -1.3,0.1 -1.5,0.4 0,0 0.7,0.1 1.1,0.6 0.2,0.1 0.4,0 0.8,0.1 z"
     id="path8"
     inkscape:connector-curvature="0"
     style="fill:#6a2c91" /><g
     transform="translate(-10.4,-10.4)"
     id="g14"><path
       class="st1"
       d="m 16.9,25.7 0.5,-0.9 1,0.2 -0.7,-0.7 0.5,-0.9 -0.9,0.5 -0.7,-0.7 0.2,1 -0.9,0.5 1,0.2 z m 6.8,2.6 c -0.5,0.1 -1.2,0.1 -1.8,0.2 -0.3,-1.1 -1.1,-2.6 -2.5,-2.4 -1.2,0.2 -1.7,1.4 -1.4,2.5 -1.7,0.2 -3.2,-1.2 -3.6,-2.8 -0.5,-2.4 1.2,-4.8 3.8,-4.8 3.5,0.1 5.4,4.8 5.5,7.3 z m 11.3,-2.6 0.2,-1 1,-0.1 -0.9,-0.5 0.2,-1 -0.7,0.7 -0.9,-0.5 0.5,0.9 -0.7,0.7 1,-0.2 z m -6.8,2.7 c 0.1,-2.5 2,-7.2 5.6,-7.2 2.5,0 4.3,2.4 3.8,4.8 -0.4,1.6 -1.8,3 -3.6,2.8 0.3,-1.1 -0.2,-2.4 -1.4,-2.5 -1.4,-0.2 -2.3,1.3 -2.5,2.4 -0.7,-0.2 -1.3,-0.3 -1.9,-0.3 z M 26,30 c 2.3,0 4.2,-0.2 4.2,-0.4 0,-0.1 -1.9,-0.4 -4.2,-0.4 -2.3,0 -4.2,0.2 -4.2,0.4 0,0.1 1.9,0.4 4.2,0.4 z m 0,0.5 c -2.7,0 -4.8,-0.4 -4.8,-0.9 0,-0.5 2.2,-0.9 4.8,-0.9 2.7,0 4.8,0.4 4.8,0.9 0,0.5 -2.2,0.9 -4.8,0.9 z m 3.9,0.1 c -0.5,0.1 -1.1,0.2 -1.7,0.2 0.1,1.1 1,3.3 2.5,3.3 1.1,0 2,-1 2,-2 -1.3,0.7 -2.6,0.1 -2.8,-1.5 z m -6.2,0.3 c -0.6,-0.1 -1.2,-0.1 -1.7,-0.2 -0.3,1.6 -1.6,2.2 -2.9,1.6 0.1,1.1 0.9,2 2,2 1.6,-0.1 2.5,-2.4 2.6,-3.4 z"
       id="path10"
       inkscape:connector-curvature="0"
       style="fill:#6a2c91" /><path
       class="st2"
       d="m 26,13.8 c 0.6,0.7 1.7,1.5 1.9,1.7 1.6,1.2 2.4,2.9 2.4,4.4 0,2.7 -2.3,5.1 -2.6,8.4 -0.5,-0.1 -1,-0.1 -1.5,-0.1 0.1,-3.3 -0.1,-7.9 -0.3,-11.2 -0.2,3.3 -0.4,7.8 -0.3,11.2 -0.5,0 -1,0 -1.5,0.1 -0.3,-3.3 -2.6,-5.7 -2.6,-8.4 0,-1.5 0.8,-3.2 2.4,-4.4 0.3,-0.2 1.4,-1 2.1,-1.7 z m 0,23.5 c 1.3,-0.6 2.6,-1.8 3.2,-3 -0.8,-1.1 -1.2,-2.4 -1.4,-3.3 -0.5,0 -1,0.1 -1.5,0.1 -0.1,0.9 -0.1,2.8 -0.3,3.8 -0.3,-1 -0.3,-2.9 -0.3,-3.8 -0.5,0 -1,0 -1.5,-0.1 -0.1,1 -0.5,2.2 -1.4,3.3 0.5,1.2 1.9,2.4 3.2,3 z"
       id="path12"
       inkscape:connector-curvature="0"
       style="clip-rule:evenodd;fill:#6a2c91;fill-rule:evenodd" /></g><g
     transform="translate(-10.4,-10.4)"
     id="g18"><path
       class="st1"
       d="m 169.5,15.6 c 0.9,0 1.7,0.7 1.7,1.7 0,1 -0.8,1.7 -1.7,1.7 -0.9,0 -1.7,-0.7 -1.7,-1.7 0.1,-1 0.8,-1.7 1.7,-1.7 z m 0,3.1 c 0.8,0 1.4,-0.6 1.4,-1.4 0,-0.8 -0.6,-1.4 -1.4,-1.4 -0.8,0 -1.4,0.6 -1.4,1.4 0,0.8 0.6,1.4 1.4,1.4 z m -0.6,-2.4 h 0.7 c 0.5,0 0.7,0.2 0.7,0.6 0,0.3 -0.2,0.5 -0.5,0.5 l 0.6,0.9 h -0.3 l -0.5,-0.8 h -0.3 v 0.8 H 169 v -2 z m 0.3,0.9 h 0.3 c 0.3,0 0.5,0 0.5,-0.3 0,-0.3 -0.2,-0.3 -0.4,-0.3 h -0.4 z m -71.5,16 c -3.8,0 -6.4,-2.9 -6.4,-7.4 0,-4.4 2.5,-7.3 6.4,-7.3 3.8,0 6.3,2.9 6.3,7.3 0.1,4.5 -2.5,7.4 -6.3,7.4 z m 0,-17.5 c -2.8,0 -5.3,0.9 -7.1,2.5 -2.1,1.8 -3.2,4.6 -3.2,7.9 0,3.3 1.2,6.1 3.5,8 1.8,1.5 4.2,2.3 6.9,2.3 2.8,0 5.3,-0.9 7.1,-2.5 2.1,-1.9 3.3,-4.6 3.3,-7.9 0,-3.1 -1.1,-5.8 -3,-7.6 -1.9,-1.8 -4.5,-2.8 -7.5,-2.7 z m 14.6,0.4 h 3.8 V 29 c 0.1,1.3 0.5,2.4 1.3,3.1 0.8,0.7 1.9,1.1 3.4,1.1 1.6,0 2.8,-0.4 3.6,-1.2 0.7,-0.7 1.1,-1.7 1.1,-2.9 v -13 h 3.8 v 12.5 c 0,2.3 -0.7,4.1 -2,5.5 -1.5,1.5 -3.7,2.4 -6.6,2.4 -2.8,0 -5,-0.8 -6.3,-2.1 -1.3,-1.3 -2.1,-3.2 -2.1,-5.4 z m 36.7,3 h -5.8 v 16.8 h -3.8 V 19.1 h -6.2 v -3 h 17.4 z M 71.4,18.5 c 1.8,-1.7 4.3,-2.8 7.3,-2.9 h 1 c 1.5,0.1 3.3,0.6 4.6,1.4 0.2,0.1 0.4,0.3 0.4,0.3 -0.2,0.3 -1.4,2.5 -1.4,2.5 l -0.4,-0.2 c -0.9,-0.5 -2,-0.8 -3.2,-0.8 h -0.6 c -2,0.1 -3.6,0.8 -4.8,2.1 -1.1,1.2 -1.7,2.8 -1.8,4.6 v 0.9 c 0.2,4 2.7,6.7 6.4,6.9 h 0.8 c 1.4,-0.1 2.6,-0.5 3.8,-1.3 0.1,0.2 1.4,2.7 1.5,2.8 -1.5,0.9 -3.9,1.6 -6.3,1.6 -3.1,0 -5.7,-1 -7.5,-2.8 -1.8,-1.8 -2.8,-4.3 -2.8,-7.4 0,-3.2 1.1,-5.9 3,-7.7 z m -10.5,12 c 0,-1.9 -1.9,-2.8 -3.8,-3.6 -1.3,-0.6 -2.4,-1 -3.5,-2 -1.1,-1 -1.7,-2.3 -1.7,-4 0,-3.3 2.6,-5.4 6.7,-5.4 2.9,0 4.9,1 5.9,1.7 0,0.1 -1.4,2.4 -1.4,2.5 -1.2,-0.8 -2.7,-1.4 -3.9,-1.4 -2.1,0.1 -3.3,1.1 -3.3,2.4 0,1.7 1.8,2.4 3.6,3.2 2.6,1 5.5,2.3 5.5,6.3 0,3.5 -3.1,6 -7.4,6 -2.5,0 -4.6,-0.6 -6.7,-1.7 0,-0.1 1.5,-2.8 1.5,-2.8 1.7,0.9 3.3,1.5 4.7,1.5 2.3,0.1 3.8,-1.1 3.8,-2.7 z m 101.1,0 c 0,-1.9 -1.9,-2.8 -3.8,-3.6 -1.3,-0.6 -2.4,-1 -3.5,-2 -1.1,-1 -1.7,-2.3 -1.7,-4 0,-3.3 2.6,-5.4 6.7,-5.4 2.9,0 4.9,1 5.9,1.7 0,0.1 -1.4,2.4 -1.4,2.5 -1.2,-0.8 -2.7,-1.4 -3.9,-1.4 -2.1,0.1 -3.3,1.1 -3.3,2.4 0,1.7 1.8,2.4 3.6,3.2 2.6,1 5.5,2.3 5.5,6.3 0,3.5 -3.1,6 -7.4,6 -2.5,0 -4.6,-0.6 -6.7,-1.7 0,-0.1 1.5,-2.8 1.5,-2.8 1.7,0.9 3.3,1.5 4.7,1.5 2.3,0.1 3.8,-1.1 3.8,-2.7 z"
       id="path16"
       inkscape:connector-curvature="0"
       style="fill:#6a2c91" /></g><g
     transform="translate(-10.4,-10.4)"
     id="g22"><path
       class="st1"
       d="m 131.1,44.7 -0.8,1.9 h -0.8 l 3.1,-7.1 3.1,7.1 h -0.8 l -0.8,-1.9 z m 1.5,-3.4 -1.2,2.7 h 2.3 z m 3.5,3.2 c 0,-1.2 1,-2.2 2.2,-2.2 1.2,0 2.2,1 2.2,2.2 0,1.2 -1,2.2 -2.2,2.2 -1.2,0 -2.2,-1 -2.2,-2.2 z m 0.7,0 c 0,0.9 0.6,1.6 1.5,1.6 0.9,0 1.5,-0.7 1.5,-1.6 0,-0.9 -0.6,-1.6 -1.5,-1.6 -0.9,0 -1.5,0.7 -1.5,1.6 z m 5.6,2.1 h -0.7 V 43 h -0.4 v -0.7 h 0.4 v -1.5 h 0.7 v 1.5 h 0.8 V 43 h -0.8 z m 1.8,-2 c 0,0.8 0.6,1.4 1.4,1.4 0.6,0 1,-0.4 1.3,-0.9 l 0.6,0.4 c -0.4,0.8 -1.1,1.2 -2,1.2 -1.3,0 -2.1,-1 -2.1,-2.2 0,-1.3 0.7,-2.3 2.1,-2.3 1.4,0 2.1,1.1 2,2.4 z m 2.6,-0.6 c -0.1,-0.6 -0.6,-1.1 -1.2,-1.1 -0.6,0 -1.2,0.5 -1.3,1.1 z m 5.7,2.6 h -0.7 V 46 c -0.4,0.5 -0.9,0.7 -1.5,0.7 -1.2,0 -2,-1.1 -2,-2.2 0,-1.2 0.8,-2.2 2,-2.2 0.6,0 1.1,0.3 1.4,0.7 v -0.6 h 0.7 v 4.2 z M 149,44.4 c 0,0.8 0.5,1.6 1.4,1.6 0.9,0 1.4,-0.7 1.4,-1.6 0,-0.8 -0.5,-1.5 -1.4,-1.5 -0.9,0 -1.4,0.7 -1.4,1.5 z m 5.6,-1.6 c 0.3,-0.3 0.5,-0.6 1,-0.6 0.2,0 0.4,0.1 0.6,0.2 l -0.3,0.7 c -0.1,-0.1 -0.2,-0.2 -0.4,-0.2 -0.8,0 -0.8,1 -0.8,1.6 v 2.1 H 154 v -4.2 h 0.7 v 0.4 z m 2,1.7 c 0,-1.2 1,-2.2 2.2,-2.2 1.2,0 2.2,1 2.2,2.2 0,1.2 -1,2.2 -2.2,2.2 -1.2,0 -2.2,-1 -2.2,-2.2 z m 0.8,0 c 0,0.9 0.6,1.6 1.5,1.6 0.9,0 1.5,-0.7 1.5,-1.6 0,-0.9 -0.6,-1.6 -1.5,-1.6 -0.9,0 -1.5,0.7 -1.5,1.6 z m 8.6,2.1 h -0.7 V 46 c -0.4,0.5 -0.9,0.7 -1.5,0.7 -1.2,0 -2,-1.1 -2,-2.2 0,-1.2 0.8,-2.2 2,-2.2 0.6,0 1.1,0.3 1.5,0.7 v -0.6 h 0.7 z m -3.5,-2.2 c 0,0.8 0.5,1.6 1.4,1.6 0.9,0 1.4,-0.7 1.4,-1.6 0,-0.8 -0.5,-1.5 -1.4,-1.5 -0.8,0 -1.4,0.7 -1.4,1.5 z"
       id="path20"
       inkscape:connector-curvature="0"
       style="fill:#6a2c91" /></g></svg>