<svg xmlns="http://www.w3.org/2000/svg" width="31.1" height="35.9" viewBox="0 0 8.229 9.499" version="1.1"><path class="st1" d="M4.577 7.964s-.211-.159-.158-.238m-.583.688c-.211-.08-.476-.106-.608-.053l.026.08.106.132h.106s.08 0 .159.026c0 .027.185-.185.211-.185zM4.471.026S4.42.053 4.42.08c0 .027-.027.053-.027.08 0 .026 0 .053-.026.08L4.313.29c.132 0 .264.027.397.027l.052-.053c.027-.027.027-.053.027-.08 0-.026.026-.053.053-.08l.053-.052c-.133 0-.265-.026-.424-.026zm.53.08l-.053.026c-.027.027-.027.053-.053.08 0 .026-.027.053-.027.08l-.053.052.397.08c.027 0 .08-.027.08-.027.026-.027.026-.053.053-.08 0-.026.026-.052.052-.079.027-.026.053-.026.053-.026A2.767 2.767 0 0 0 5 .106zm.529.159s-.053 0-.053.026c-.027.027-.027.053-.053.08 0 .026-.027.052-.053.079 0 0-.026.026-.08.026.133.053.239.08.371.133.027 0 .08-.027.08-.027.026-.026.026-.053.052-.053l.053-.053c.027-.026.08-.026.08-.026A.9.9 0 0 0 5.53.265zm.502.211s-.052 0-.079.027c-.026 0-.053.053-.053.053-.026.026-.026.053-.053.053 0 0-.026.026-.08.026.133.053.239.132.345.185.026 0 .08-.026.08-.026L6.243.74c.027-.027.053-.053.08-.053.026 0 .079-.027.079-.027C6.27.61 6.138.53 6.033.476zm.45.265h-.08c-.026 0-.052.026-.078.053-.027.026-.027.053-.053.053 0 0-.027.026-.08.026l.318.238h.08c.026 0 .052-.026.078-.053.027-.026.053-.026.08-.053h.08C6.72.926 6.587.82 6.481.741zm.424.344h-.08c-.026 0-.053.026-.08.053-.026.026-.026.026-.078.053h-.08a2.9 2.9 0 0 1 .291.264h.08c.026 0 .052-.026.079-.026.026 0 .053-.027.08-.027h.079c-.08-.132-.186-.211-.291-.317zm.37.397h-.08c-.026 0-.052.026-.079.026-.026 0-.053.027-.08.027H6.96c.079.106.185.211.264.317h.08c.026 0 .052-.026.079-.026.026 0 .053-.027.08-.027h.079c-.08-.106-.186-.211-.265-.317zm.318.423s-.053-.026-.08-.026c-.026 0-.053 0-.08.026-.026 0-.052.027-.079.027 0 0-.052 0-.079-.027.08.106.159.212.212.344.026.026.08.026.08.026.026 0 .052 0 .078-.026.027 0 .053-.027.08-.027.026 0 .08.027.08.027-.08-.106-.133-.212-.212-.344zm.264.476l-.053-.026h-.08c-.026 0-.052.026-.079.026 0 0-.052 0-.079-.026.053.106.106.238.159.37.026.027.08.027.08.027h.158c.026 0 .053.026.053.026zm.185.503s-.026-.027-.053-.027h-.158s-.027 0-.08-.026c.053.132.08.265.106.37.027.027.08.053.08.053h.158c.027 0 .053.027.053.027a2.205 2.205 0 0 0-.106-.397zm.133.53l-.053-.054h-.159l-.053-.053c.026.133.053.265.053.397l.053.053c.026.027.053 0 .08.027.026 0 .079 0 .079.026.026 0 .053.053.053.053 0-.185-.027-.317-.053-.45zm.053.528l-.053-.053c-.027 0-.053-.026-.08-.026-.026 0-.053 0-.08-.026l-.052-.053c0 .132.026.264 0 .396l.053.053c.026.027.053.027.08.027.026 0 .052.026.079.026l.053.053zm0 .53s-.027-.053-.053-.053c-.027 0-.053-.027-.08-.027-.026 0-.053 0-.08-.026l-.052-.053c0 .132-.027.264-.053.397l.053.052c.026.027.053.027.08.027.026 0 .052.026.079.053l.053.053c.026-.133.026-.265.053-.424zM8.149 5l-.026-.053c-.027-.027-.053-.027-.08-.053-.026 0-.053-.027-.079-.027l-.053-.053-.08.397c0 .027.027.08.027.08.027.026.053.026.08.053.026.026.052.026.079.053a.082.082 0 0 1 .026.052c.027-.158.053-.29.106-.45zm-.159.529s0-.053-.026-.053c0-.027-.053-.053-.053-.053-.026-.026-.053-.026-.053-.053 0 0-.026-.026-.026-.08-.053.133-.106.239-.16.371 0 .027.027.08.027.08l.053.052.053.053c0 .027.027.08.027.08zm-.211.503s0-.053-.027-.08c0-.026-.053-.053-.053-.053-.026-.026-.053-.026-.053-.053 0 0-.026-.026-.026-.08-.053.133-.132.24-.185.345 0 .026.026.08.026.08l.053.052c.027.027.053.053.053.08 0 .026.027.079.027.079.052-.132.105-.265.185-.37zm-.291.45v-.08c0-.026-.027-.053-.053-.08-.027-.026-.053-.026-.053-.052 0 0-.027-.027-.027-.08l-.238.318v.08c0 .026.027.052.053.079.027.026.027.052.053.079v.08c.106-.107.185-.239.265-.345zm-.344.423v-.08c0-.026-.027-.053-.053-.08-.027-.026-.027-.026-.053-.079v-.079c-.08.106-.185.212-.265.291v.08c0 .026.027.052.027.079 0 .026.026.053.026.08v.079c.133-.106.238-.186.318-.291zm-.37.37v-.08c0-.026-.027-.052-.027-.079 0-.026-.027-.053-.027-.08v-.079c-.105.08-.211.186-.317.239v.079c0 .026.026.053.026.08 0 .026.027.052.027.079 0 .026-.027.08-.027.08.106-.054.239-.16.344-.239zm-.45.318s.026-.053.026-.08c0-.026 0-.053-.026-.08 0-.026-.027-.052-.027-.079 0 0 0-.053.027-.079a1.5 1.5 0 0 1-.344.212c-.027.026-.027.079-.027.079 0 .027 0 .053.027.08 0 .026.026.052.026.079 0 .026-.026.08-.026.08.105-.08.238-.133.344-.212zm-.477.264l.027-.053v-.08c0-.026-.027-.052-.027-.079 0 0 0-.052.027-.079-.133.053-.238.106-.37.159-.027.026-.027.08-.027.08v.158c0 .026-.027.08-.027.08.133-.08.265-.133.397-.186zm-.529.185s0-.026.027-.053v-.079c0-.026-.027-.053 0-.08 0 0 .026-.079.053-.105-.133.053-.318.106-.424.185-.026 0-.053.027-.053.027 0 .026-.026.052-.026.079v.08c0 .052-.053.132-.053.132.132-.027.317-.106.423-.16zm-2.62-.053s.054 0 .054-.026c.026-.026.053-.053.053-.08 0-.026.026-.052.053-.079 0 0 .026-.026.079-.026-.132-.053-.238-.08-.37-.133-.027 0-.08.027-.08.027-.026.026-.026.053-.053.053l-.053.053c-.026.026-.08.026-.08.026.133.08.265.133.398.185zm-.475-.211s.052 0 .079-.027c.026 0 .053-.053.053-.053.026-.026.026-.053.053-.053 0 0 .026-.026.08-.026a1.425 1.425 0 0 1-.345-.185c-.026 0-.08.026-.08.026l-.052.053c-.027.027-.053.053-.08.053-.026 0-.079.027-.079.027.106.052.238.105.37.185zm-.477-.291h.08c.026 0 .053-.027.079-.053.026-.027.026-.053.053-.053 0 0 .026-.027.08-.027l-.318-.238h-.08c-.026 0-.053.027-.079.053-.026.027-.053.027-.08.053h-.079c.133.106.238.185.344.265zm-.423-.344h.08c.026 0 .052-.027.079-.053.026-.027.026-.027.079-.053h.08c-.106-.08-.186-.185-.292-.265H1.27c-.026 0-.053.027-.08.027-.026 0-.052.026-.079.026h-.08c.107.133.186.239.292.318zm-.37-.37h.079c.026 0 .053-.027.08-.027.026 0 .052-.027.079-.027h.079c-.08-.105-.185-.211-.265-.317H.926c-.026 0-.053.026-.08.026-.026 0-.052.027-.079.027-.026 0-.08-.027-.08-.027.107.106.186.212.266.344zm-.318-.45s.053.026.08.026c.026 0 .052-.026.079-.026.026 0 .053-.027.08-.027 0 0 .052 0 .078.027-.079-.106-.158-.212-.211-.344-.027-.027-.08-.027-.08-.027-.026 0-.052 0-.079.027-.026 0-.053.026-.08.026-.026 0-.079-.026-.079-.026.08.105.133.238.212.344zM.37 5.847s.053.027.08.027h.08c.026 0 .052-.027.079-.027 0 0 .052 0 .079.027-.053-.106-.106-.238-.159-.37-.026-.027-.08-.027-.08-.027H.292c-.026 0-.053-.027-.053-.027.027.16.08.265.132.397zm-.185-.502s.027.026.053.026h.159s.026 0 .08.027c-.054-.133-.08-.265-.107-.37l-.053-.054H.16c-.027 0-.053-.026-.053-.026 0 .132.026.264.08.397zm-.132-.503l.053.053h.159l.053.053C.29 4.815.265 4.683.265 4.55l-.053-.053c-.027-.026-.053 0-.08-.026-.026 0-.08 0-.08-.027-.026 0-.052-.053-.052-.053.026.159.026.291.053.45zM0 4.286l.053.053c.026 0 .053.027.08.027.026 0 .052 0 .079.026l.053.053c0-.132-.027-.264 0-.397l-.053-.053C.185 3.97.159 3.97.132 3.97c-.026 0-.053-.027-.08-.027L0 3.89zm.026-.529s.027.053.053.053c.027 0 .053.027.08.027.026 0 .053 0 .08.026l.052.053c0-.132.026-.265.026-.397l-.052-.053C.238 3.44.212 3.44.185 3.44c-.026 0-.053-.027-.08-.053C.08 3.36.08 3.334.08 3.334a2.316 2.316 0 0 0-.053.423zm.08-.529l.026.053c.027.026.053.026.08.053.026 0 .053.026.079.026l.053.053.08-.397c0-.026-.027-.08-.027-.08C.37 2.91.344 2.91.317 2.885c-.026-.027-.052-.027-.079-.053-.026-.026-.026-.053-.026-.053-.053.185-.08.318-.106.45zm.132-.53s0 .054.027.054c.026.026.053.026.079.053.026 0 .053.026.08.052 0 0 .026.027.026.08.053-.132.08-.238.132-.37 0-.027-.026-.08-.026-.08l-.053-.053-.053-.053c-.027-.026-.027-.08-.027-.08a2.67 2.67 0 0 0-.185.398zm.238-.475s0 .052.027.079c0 .026.053.053.053.053.026.026.053.026.053.053 0 0 .026.026.026.08.053-.133.132-.239.185-.345 0-.026-.026-.08-.026-.08L.74 2.012c-.027-.027-.053-.053-.053-.08 0-.026-.027-.079-.027-.079-.052.106-.132.238-.185.37zm.265-.477v.08c0 .026.026.053.053.08.026.026.053.026.053.052 0 0 .026.026.026.08l.238-.318v-.08c0-.026-.026-.052-.053-.079-.026-.026-.026-.053-.053-.08v-.079C.9 1.535.82 1.64.741 1.746zm.344-.397v.08c0 .026.026.053.053.08.026.026.026.026.053.079v.079c.079-.106.185-.212.264-.291v-.08c0-.026-.026-.052-.026-.079 0-.026-.027-.053-.027-.08v-.079a.841.841 0 0 0-.317.291zm.397-.396v.079c0 .026.026.053.026.08 0 .026.027.052.027.079v.08c.105-.08.211-.186.317-.239v-.08c0-.026-.026-.052-.026-.079 0-.026-.027-.053-.027-.08 0-.026.027-.079.027-.079-.133.08-.239.16-.344.239zm.423-.318s-.026.053-.026.08c0 .026 0 .052.026.079 0 .026.026.053.026.08 0 0 0 .052-.026.079.106-.08.212-.133.344-.212.026-.027.026-.08.026-.08 0-.026 0-.052-.026-.079 0-.026-.027-.053-.027-.08 0-.026.027-.079.027-.079-.106.08-.238.133-.344.212zm.476-.238s-.026.053-.026.08v.079c0 .026.026.053.026.08 0 0 0 .052-.026.079.106-.053.238-.106.37-.16.027-.026.027-.079.027-.079V.318c0-.027.026-.053.026-.053a.787.787 0 0 0-.397.132zm.503-.212s-.027.027-.027.053v.159s0 .026-.026.08c.132-.054.265-.08.37-.107l.053-.052v-.16c0-.026.027-.052.027-.052-.132 0-.265.053-.397.08zm.53-.132L3.36.106v.159l-.053.053a2.04 2.04 0 0 1 .397-.053l.053-.053c.027-.027 0-.053.027-.08 0-.026 0-.053.026-.08 0-.025.053-.052.053-.052-.185.027-.318.027-.45.053zM3.941 0L3.89.053c0 .026-.026.053-.026.08 0 .026 0 .052-.027.079l-.052.053c.132 0 .264-.027.396 0l.053-.053c.027-.027.027-.053.027-.08 0-.026.026-.053.026-.079L4.34 0zM2.937 7.964s.053.212.185.238c.027-.08.159-.212.238-.264l.027-.027c-.027-.185.053-.291.053-.291l-.08.027c-.185.052-.344.158-.423.317zm.264.74c.027 0 .053-.026.08-.052a.427.427 0 0 1-.159-.344c-.185-.026-.238-.238-.238-.238-.027.08-.053.159-.053.238 0 .132.026.291.106.397.026 0 .159.026.264 0zm.397.027H3.52c-.053 0-.106 0-.159-.026-.053.132-.317.106-.317.106a.695.695 0 0 0 .397.185s.158-.027.158-.265zm.106 0l.132.027c.239.053.265.106.265.106s-.265.238-.503.185c0-.027.186-.132.106-.318m.767-.053c-.185-.132-.344-.158-.476-.211l-.264.185.29.106c.08.026.106.08.239.132 0 0 .29-.159.211-.212zm.503.239c-.106.105-.264.105-.264.105-.106 0-.212 0-.344-.079 0 0 .211-.159.211-.238.053.026.212.026.238 0 .027.026.08.159.16.212z" fill="#000" fill-opacity="1" stroke-width=".265"/><path class="st1" d="M4.577 7.964c.106-.106.212-.132.291-.106.265-.106.318-.132.318-.132-.106-.106-.212-.132-.397-.132-.08 0-.344.105-.37.158m.079.265s-.185-.159-.132-.265c-.186.185-.265.265-.45.265-.053 0 0 0 0 0-.027.026-.027.053-.053.08 0 .026-.027.052-.027.079v.08c.186 0 .16.026.318-.027 0 0 .106-.053.212-.16.053 0 .105-.052.132-.052zm-.714.264s-.027 0 0-.105c0-.027.026-.053.026-.08 0-.026.026-.053.053-.08 0 0-.027.027 0 0H3.81c-.132 0-.212-.026-.318-.052-.026 0 0 0 0 0-.052 0-.105.053-.105.08 0 .026-.027.026-.053.052l-.053.053c.106.053.37.132.503.132zm-.16-.635c.027-.026.054-.026.107-.026.158-.027.396.08.423.185l-.08.053c-.052.053-.158.053-.158.053l-.053-.027c-.053-.026-.132-.026-.185-.026-.053 0-.133-.027-.159 0-.053-.027.106-.212.106-.212zm-.66 1.191c-.054.053-.107.08-.107.08l-.052.052s-.186-.211-.344-.079c.053-.08.105-.159.158-.185.027-.027.08-.053.133-.106h-.027c.027 0 .053-.027.053-.027.027 0 .053.186.185.265zm-.583.159c.185-.159.344.053.344.053l-.132.132zm.106.264l.027-.026-.186-.185-.026.026zm-.238-.132c-.053.053-.106.08-.106.08l.212.238.08-.133zm3.466.053c.053.053.106.08.106.08l-.212.238-.08-.133zm-.053-.026l-.026-.027-.186.159.027.026zm-.053-.106c-.185-.16-.344.026-.344.026l.132.132zm-.344-.397c-.238-.132-.37.053-.37.053.159.08.264.238.264.238l.027.053s.185-.212.344-.08a1.802 1.802 0 0 0-.133-.185c-.052 0-.079-.053-.132-.08zm-.926-.397c-.026 0 .132.053.37.026l.053-.052c0-.027.027-.08.027-.106V7.99c-.027.027-.185.053-.185.053-.053 0-.08.027-.08.027-.026.026-.053.026-.053.053 0 0-.052.026-.079.053.027.026-.053.053-.053.08zm1.006.344c.158-.185.079-.37.052-.476l-.29.132c0 .026.052.106-.027.185 0 0 .291.132.265.159zm-.583.053s.212-.185.318-.132l-.026-.027a.713.713 0 0 0-.397-.132c-.133 0-.344.026-.397.106 0 0 .185.026.29.158.054.027.107 0 .212.027z" fill="#000" fill-opacity="1" stroke-width=".265"/><g fill="#000" fill-opacity="1"><path class="st1" d="M1.72 4.048l.132-.238.265.053-.186-.185.133-.238-.238.132-.186-.185.053.264-.238.133.265.052zm1.799.688c-.132.026-.318.026-.476.053-.08-.291-.291-.688-.662-.635-.317.053-.45.37-.37.661-.45.053-.847-.317-.953-.74-.132-.635.318-1.27 1.006-1.27.926.026 1.428 1.27 1.455 1.931zm2.99-.688l.053-.264.264-.027-.238-.132.053-.265-.185.185-.238-.132.132.238-.185.185.264-.052zm-1.8.714c.027-.661.53-1.905 1.482-1.905.662 0 1.138.635 1.006 1.27-.106.424-.477.794-.953.741.08-.29-.053-.635-.37-.661-.37-.053-.609.344-.662.635a1.798 1.798 0 0 0-.502-.08zm-.582.424c.609 0 1.112-.053 1.112-.106 0-.026-.503-.106-1.112-.106-.608 0-1.11.053-1.11.106 0 .026.502.106 1.11.106zm0 .132c-.714 0-1.27-.106-1.27-.238s.583-.238 1.27-.238c.715 0 1.27.106 1.27.238s-.582.238-1.27.238zm1.032.027a2.33 2.33 0 0 1-.45.052c.027.292.265.874.662.874.291 0 .53-.265.53-.53-.345.186-.689.027-.742-.396zm-1.64.079c-.159-.027-.318-.027-.45-.053-.08.423-.423.582-.767.423.026.291.238.53.529.53.423-.027.661-.635.688-.9z" fill="#000" fill-opacity="1"/><path class="st2" d="M4.127.9c.16.185.45.396.503.45.424.317.635.767.635 1.164 0 .714-.608 1.349-.688 2.222-.132-.026-.264-.026-.397-.026.027-.874-.026-2.09-.079-2.964-.053.873-.106 2.064-.08 2.964-.132 0-.264 0-.396.026-.08-.873-.688-1.508-.688-2.222 0-.397.212-.847.635-1.165.08-.053.37-.264.555-.45zm0 6.217c.344-.158.688-.476.847-.793a2.395 2.395 0 0 1-.37-.874c-.133 0-.265.027-.397.027-.027.238-.027.74-.08 1.005-.079-.264-.079-.767-.079-1.005-.132 0-.264 0-.397-.027a1.648 1.648 0 0 1-.37.874c.132.317.503.635.846.793z" clip-rule="evenodd" fill="#000" fill-opacity="1" fill-rule="evenodd"/></g></svg>